<svg xmlns="http://www.w3.org/2000/svg" viewBox="0 0 500 500"><g id="freepik--background-complete--inject-5"><polygon points="129.01 409.38 127.44 411.06 80.48 467.03 184.6 467.09 213.24 409.68 129.01 409.38" style="fill:#ebebeb"></polygon><polygon points="108.89 411.99 107.32 413.73 55.01 471.6 156.47 471.67 193.12 412.3 108.89 411.99" style="fill:#fafafa"></polygon><path d="M108.89,412h.38l1.15,0H132l61.11.13h.4l-.21.34L156.69,471.8l-.08.12H142.56L55,471.82h-.5l.33-.37L94,428.26l11-12,2.9-3.16c.66-.72,1-1.07,1-1.07l-1,1.12q-1,1.09-2.85,3.2L94.2,428.44l-39,43.31-.16-.37,87.55,0h13.91l-.22.12c13.36-21.61,25.86-41.85,36.67-59.35l.2.35-61-.33L115,412.08l-4.52-.05-1.16,0Z" style="fill:#e0e0e0"></path><path d="M147.57,461a3.78,3.78,0,0,1-.72,0l-2,0-7.54,0-24.87-.15-24.88-.3L80,460.43l-2-.06a3.42,3.42,0,0,1-.72-.06,3.13,3.13,0,0,1,.72-.05l2,0h7.53l24.88.15,24.87.3,7.54.15,2,.07A3.42,3.42,0,0,1,147.57,461Z" style="fill:#e0e0e0"></path><path d="M150.58,454.74a3.81,3.81,0,0,1-.7.05l-2,0h-7.35l-24.27-.14L92,454.39l-7.35-.15-2-.07a5.47,5.47,0,0,1-.7-.05,2.93,2.93,0,0,1,.7-.05l2,0L92,454l24.27.15,24.27.29,7.36.15,2,.07A3.15,3.15,0,0,1,150.58,454.74Z" style="fill:#e0e0e0"></path><path d="M155.11,448.48a3.75,3.75,0,0,1-.69,0l-2,0h-7.22l-23.83-.14-23.82-.29L90.37,448l-2-.06a4.16,4.16,0,0,1-.68-.06,2.83,2.83,0,0,1,.68-.05l2,0,7.22,0,23.83.14,23.82.3,7.22.14,2,.07A3.15,3.15,0,0,1,155.11,448.48Z" style="fill:#e0e0e0"></path><path d="M160.35,442.68a4.36,4.36,0,0,1-.67,0l-1.92,0-7.08,0-23.33-.13L104,442.35l-7.07-.15L95,442.13a5,5,0,0,1-.67-.05A2.69,2.69,0,0,1,95,442l1.93,0,7.07,0,23.34.14,23.34.28,7.07.15,1.92.07A2.94,2.94,0,0,1,160.35,442.68Z" style="fill:#e0e0e0"></path><path d="M164.22,436.58a2.69,2.69,0,0,1-.67.05l-1.93,0-7.07,0-23.34-.14-23.34-.28-7.07-.15L98.88,436a2.94,2.94,0,0,1-.67-.06,4.36,4.36,0,0,1,.67,0l1.92,0,7.08,0,23.34.13,23.33.29,7.08.15,1.92.06Z" style="fill:#e0e0e0"></path><path d="M169.93,430.53a4.36,4.36,0,0,1-.67,0l-1.93,0-7.07,0-23.34-.13-23.33-.29-7.08-.15-1.92-.07a5,5,0,0,1-.67-.05,2.69,2.69,0,0,1,.67-.05l1.92,0,7.08,0,23.34.13,23.33.29,7.08.15,1.92.07A2.94,2.94,0,0,1,169.93,430.53Z" style="fill:#e0e0e0"></path><path d="M174.12,424.61a3.16,3.16,0,0,1-.67,0l-1.93,0-7.07,0-23.33-.24L117.78,424l-7.07-.18-1.92-.07a3.23,3.23,0,0,1-.67-.07,4.36,4.36,0,0,1,.67,0l1.92,0h7.07l23.34.24,23.34.4,7.07.17,1.92.08A2.94,2.94,0,0,1,174.12,424.61Z" style="fill:#e0e0e0"></path><path d="M180.57,419a2.69,2.69,0,0,1-.67,0L178,419H170.9l-23.34-.24-23.33-.4-7.07-.18-1.93-.07a2.94,2.94,0,0,1-.67-.06,3.5,3.5,0,0,1,.67-.05l1.93,0h7.07l23.34.24,23.33.4,7.08.18,1.92.07A3.92,3.92,0,0,1,180.57,419Z" style="fill:#e0e0e0"></path><path d="M79.87,231.39c0-7,4.25-11.53,10.26-11.53s10.2,4.42,10.2,11.53-4.19,11.53-10.2,11.53S79.87,238.44,79.87,231.39Zm14.56,0c0-4.48-1.71-6.63-4.3-6.63s-4.3,2.21-4.3,6.63,1.76,6.63,4.3,6.63S94.43,235.87,94.43,231.39Zm20.28-11.06h7L93.55,262.16h-7Zm-6.78,30.77c0-7,4.25-11.53,10.2-11.53s10.26,4.48,10.26,11.53-4.25,11.54-10.26,11.54S107.93,258.15,107.93,251.1Zm14.5,0c0-4.42-1.71-6.63-4.3-6.63s-4.3,2.15-4.3,6.63,1.77,6.64,4.3,6.64S122.43,255.53,122.43,251.1Z" style="fill:#ebebeb"></path><path d="M415.63,68.61a45.84,45.84,0,1,1-52.14-38.38A45.79,45.79,0,0,1,415.63,68.61Z" style="fill:#f5f5f5"></path><path d="M404.85,70.24A34.94,34.94,0,1,1,365.11,41,34.91,34.91,0,0,1,404.85,70.24Z" style="fill:#ebebeb"></path><path d="M404.67,69.16c-.2,0-.58-1.46-1.54-4a36.76,36.76,0,0,0-5.58-10A35.72,35.72,0,0,0,392,49.57a35,35,0,0,0-7.66-4.68,33.33,33.33,0,0,0-4.56-1.66,31.93,31.93,0,0,0-4.95-1,34.84,34.84,0,0,0-5.23-.28,36.35,36.35,0,0,0-5.36.55,38.31,38.31,0,0,0-5.21,1.38A33.89,33.89,0,0,0,354.28,46,32,32,0,0,0,350,48.69a31.47,31.47,0,0,0-3.68,3.16,34.68,34.68,0,0,0-5.5,7.09,35.29,35.29,0,0,0-3.18,7.18A36.89,36.89,0,0,0,336,77.43c0,2.74.19,4.27,0,4.3s-.68-1.44-1-4.24a32.25,32.25,0,0,1,.9-11.89,35.09,35.09,0,0,1,3.06-7.74,35.56,35.56,0,0,1,5.68-7.73,34.39,34.39,0,0,1,3.89-3.48,35.18,35.18,0,0,1,9.72-5.29,38.39,38.39,0,0,1,5.62-1.51,39.31,39.31,0,0,1,5.78-.58,36.14,36.14,0,0,1,5.64.34,34.88,34.88,0,0,1,5.32,1.18,34.08,34.08,0,0,1,4.87,1.86A35,35,0,0,1,399.07,54a32.32,32.32,0,0,1,5.06,10.8C404.8,67.57,404.83,69.13,404.67,69.16Z" style="fill:#e0e0e0"></path><path d="M377.32,95.46l1,6-5.36.89-1-5.84c-5.36.55-10.72-.26-14.05-2.08l1.86-7a22,22,0,0,0,11,2.09l-1.48-8.95c-6.19-.47-13.16-1.35-14.43-9-.94-5.69,2.38-11.25,10.69-13.61l-1-6,5.36-.89,1,5.84a24.6,24.6,0,0,1,11.42,1.47l-1.59,7A22.3,22.3,0,0,0,372.11,64l1.51,9.11c6.18.41,13,1.31,14.3,8.87C388.84,87.55,385.56,93.05,377.32,95.46ZM368,72.66l-1.27-7.61c-2.73,1.11-3.6,2.85-3.3,4.62S365.55,72.3,368,72.66Zm11.35,11.39c-.31-1.88-2-2.64-4.47-3.06l1.23,7.39C378.73,87.35,379.68,85.76,379.39,84.05Z" style="fill:#e0e0e0"></path><path d="M467,336.14a36.71,36.71,0,1,1-22-46.95A36.65,36.65,0,0,1,467,336.14Z" style="fill:#f5f5f5"></path><path d="M458.82,333.16a28,28,0,1,1-16.76-35.78A27.94,27.94,0,0,1,458.82,333.16Z" style="fill:#ebebeb"></path><path d="M459.11,332.33c-.16-.05.15-1.25.46-3.41a29.7,29.7,0,0,0-.11-9.16,28.88,28.88,0,0,0-1.74-6,27.87,27.87,0,0,0-3.6-6.22,26.89,26.89,0,0,0-5.66-5.53,27.26,27.26,0,0,0-3.57-2.19,28.56,28.56,0,0,0-4-1.67,29.16,29.16,0,0,0-4.2-1,27,27,0,0,0-4.18-.35,25.63,25.63,0,0,0-4,.28,24.27,24.27,0,0,0-3.79.82,27.82,27.82,0,0,0-6.59,2.88,28.4,28.4,0,0,0-5,3.83,29.55,29.55,0,0,0-5.51,7.32c-1,1.93-1.5,3.07-1.66,3s.07-1.27.9-3.37a26,26,0,0,1,5.19-8,28.57,28.57,0,0,1,5.12-4.28,29,29,0,0,1,6.95-3.26,26.4,26.4,0,0,1,4.06-.95,27.07,27.07,0,0,1,4.35-.35A27.56,27.56,0,0,1,437,295a28.92,28.92,0,0,1,8.82,2.89,29.22,29.22,0,0,1,3.84,2.4,28.59,28.59,0,0,1,6,6A28,28,0,0,1,461,319.54a25.92,25.92,0,0,1-.57,9.54C459.81,331.26,459.23,332.37,459.11,332.33Z" style="fill:#e0e0e0"></path><path d="M429.81,340.37l-1.6,4.6-4.11-1.43,1.56-4.48c-4-1.66-7.45-4.28-9.1-6.84l4-4.23a17.64,17.64,0,0,0,7,5.69l2.38-6.86c-4.18-2.7-8.75-6-6.71-11.86,1.51-4.36,6-7,12.73-5.49l1.58-4.56,4.11,1.43-1.56,4.48a19.63,19.63,0,0,1,7.48,5.4l-3.81,4.34a17.89,17.89,0,0,0-5.55-4.32l-2.42,7c4.19,2.65,8.67,5.91,6.66,11.71C440.94,339.21,436.53,341.83,429.81,340.37ZM432,320.78l2-5.84c-2.35-.26-3.63.63-4.1,2S430.39,319.57,432,320.78Zm3.64,12.35c.49-1.44-.43-2.63-2-3.86l-2,5.67C433.9,335.2,435.18,334.45,435.64,333.13Z" style="fill:#e0e0e0"></path><rect x="64.52" y="53.33" width="227.32" height="148.13" style="fill:#f5f5f5"></rect><rect x="53.28" y="45.32" width="227.32" height="147.81" style="fill:#ebebeb"></rect></g><g id="freepik--Desk--inject-5"><path d="M462.48,399.47c0,.14-95.26.26-212.75.26S37,399.61,37,399.47s95.24-.27,212.77-.27S462.48,399.32,462.48,399.47Z" style="fill:#263238"></path></g><g id="freepik--Sheet--inject-5"><polygon points="441.45 463.83 352.24 466.72 283.07 402.54 369.75 402.54 441.45 463.83" style="fill:#f5f5f5"></polygon><polygon points="409.52 473.39 320.31 476.28 251.13 412.1 337.81 412.1 409.52 473.39" style="fill:#f5f5f5"></polygon><polygon points="424.53 467.03 335.32 469.92 266.14 405.73 352.83 405.73 424.53 467.03" style="fill:#e0e0e0"></polygon><polygon points="341.78 402.54 255.1 402.54 324.27 466.72 416.33 463.74 341.78 402.54" style="fill:#f5f5f5"></polygon><path d="M341.78,402.54l.35.26,1,.83,4,3.26,15.22,12.4,54.08,44.27.47.38-.61,0-88.29,2.9-3.77.12h-.11l-.08-.07L255,402.7l-.41-.39h.56l62.94.1,17.55.06,4.62,0c1,0,1.57,0,1.57,0l-1.6,0-4.63,0-17.57.06-62.88.1.15-.39,69.2,64.16-.19-.07,3.77-.12,88.3-2.83-.14.4-53.91-44.37c-6.51-5.39-11.64-9.62-15.15-12.52l-4-3.32-1-.86Z" style="fill:#263238"></path><path d="M372.86,439.55c0,.15-13.82.7-30.88,1.23s-30.89.85-30.9.71,13.82-.7,30.88-1.23S372.86,439.41,372.86,439.55Z" style="fill:#263238"></path><path d="M380.23,445c0,.14-14,.69-31.37,1.22s-31.38.85-31.39.7,14-.69,31.38-1.22S380.23,444.89,380.23,445Z" style="fill:#263238"></path><path d="M388,450.52c0,.14-14.14.72-31.59,1.28s-31.6.91-31.61.76,14.14-.71,31.59-1.28S388,450.38,388,450.52Z" style="fill:#263238"></path><path d="M368.6,434.59c0,.15-14.23.72-31.78,1.27s-31.8.9-31.8.75,14.22-.71,31.78-1.27S368.59,434.45,368.6,434.59Z" style="fill:#263238"></path><path d="M339.2,414.07c0,.14-13.2.51-29.49.83s-29.49.45-29.5.3,13.2-.51,29.49-.82S339.2,413.93,339.2,414.07Z" style="fill:#263238"></path><path d="M346.57,419.55c0,.14-13.6.52-30.39.84s-30.4.47-30.41.32,13.61-.52,30.4-.84S346.57,419.4,346.57,419.55Z" style="fill:#263238"></path><path d="M353.94,425c0,.15-14.27.54-31.89.88s-31.9.49-31.9.35,14.27-.54,31.89-.87S353.94,424.88,353.94,425Z" style="fill:#263238"></path><path d="M361.32,430.5c0,.14-14.28.53-31.89.87s-31.91.5-31.91.35,14.28-.53,31.9-.87S361.31,430.36,361.32,430.5Z" style="fill:#263238"></path><path d="M334.94,409.11a2.6,2.6,0,0,1-.62.06l-1.77.08-6.52.17-21.51.39L283,410l-6.52,0-1.77,0a2.69,2.69,0,0,1-.62,0,2.5,2.5,0,0,1,.62-.06l1.77-.08,6.52-.17,21.51-.39,21.5-.24h6.52l1.78,0A2.78,2.78,0,0,1,334.94,409.11Z" style="fill:#263238"></path></g><g id="freepik--calculator-2--inject-5"><polygon points="307.13 424.75 284.38 403.92 363.14 400.8 386.28 413.61 307.13 424.75" style="fill:#455a64"></polygon><polygon points="293.56 406.84 297.99 410.63 297.97 407.93 293.29 404.43 293.56 406.84" style="fill:#263238"></polygon><polygon points="297.92 408.1 304.3 407.88 299.17 404.16 293.29 404.43 297.92 408.1" style="fill:#F77F00"></polygon><polygon points="297.92 408.1 297.99 410.63 304.21 410.23 304.3 407.88 297.92 408.1" style="fill:#263238"></polygon><path d="M304.3,407.88a36.17,36.17,0,0,1-5.14-3.3l-.3-.22.16.05a32.51,32.51,0,0,1-5.73,0,33.29,33.29,0,0,1,5.71-.54h.09l.07.05.31.21A37.71,37.71,0,0,1,304.3,407.88Z" style="fill:#263238"></path><path d="M298,410.63c-.14,0-.27-.56-.29-1.25s.09-1.26.23-1.26.27.56.29,1.25S298.11,410.62,298,410.63Z" style="fill:#455a64"></path><polygon points="304.24 406.64 308.66 410.43 308.64 407.73 303.96 404.23 304.24 406.64" style="fill:#263238"></polygon><polygon points="308.6 407.9 314.97 407.68 309.84 403.96 303.96 404.23 308.6 407.9" style="fill:#e0e0e0"></polygon><polygon points="308.6 407.9 308.66 410.43 314.89 410.02 314.97 407.68 308.6 407.9" style="fill:#263238"></polygon><path d="M315,407.68a35.79,35.79,0,0,1-5.13-3.3l-.31-.22.17,0a32.61,32.61,0,0,1-5.74,0,33.29,33.29,0,0,1,5.71-.54h.09l.07.05.31.21A35.87,35.87,0,0,1,315,407.68Z" style="fill:#263238"></path><path d="M308.64,410.43c-.15,0-.28-.56-.3-1.25s.09-1.26.23-1.26.28.55.29,1.25S308.78,410.42,308.64,410.43Z" style="fill:#455a64"></path><polygon points="314.45 406.5 318.88 410.29 318.86 407.59 314.18 404.09 314.45 406.5" style="fill:#263238"></polygon><polygon points="318.81 407.76 325.19 407.55 320.06 403.82 314.18 404.09 318.81 407.76" style="fill:#455a64"></polygon><polygon points="318.81 407.76 318.88 410.29 325.11 409.89 325.19 407.55 318.81 407.76" style="fill:#263238"></polygon><path d="M325.19,407.55a36.45,36.45,0,0,1-5.13-3.31l-.31-.21.17.05a33.14,33.14,0,0,1-5.74,0,32.75,32.75,0,0,1,5.71-.53H320l.07.05.31.22A35.71,35.71,0,0,1,325.19,407.55Z" style="fill:#263238"></path><path d="M318.86,410.29c-.15,0-.28-.55-.3-1.24s.09-1.26.23-1.27.28.56.29,1.25S319,410.29,318.86,410.29Z" style="fill:#455a64"></path><polygon points="325.1 406.2 329.52 409.99 329.5 407.29 324.82 403.79 325.1 406.2" style="fill:#263238"></polygon><polygon points="329.45 407.46 335.83 407.24 330.7 403.52 324.82 403.79 329.45 407.46" style="fill:#455a64"></polygon><polygon points="329.45 407.46 329.52 409.99 335.75 409.58 335.83 407.24 329.45 407.46" style="fill:#263238"></polygon><path d="M335.83,407.24a35.79,35.79,0,0,1-5.13-3.3l-.31-.22.17,0a32.61,32.61,0,0,1-5.74,0,33.29,33.29,0,0,1,5.71-.54h.09l.07.05.31.21A35.87,35.87,0,0,1,335.83,407.24Z" style="fill:#263238"></path><path d="M329.5,410c-.15,0-.28-.56-.3-1.25s.09-1.26.23-1.26.28.55.29,1.25S329.64,410,329.5,410Z" style="fill:#455a64"></path><polygon points="335.89 405.93 340.31 409.72 340.29 407.02 335.61 403.52 335.89 405.93" style="fill:#263238"></polygon><polygon points="340.25 407.19 346.63 406.98 341.49 403.25 335.61 403.52 340.25 407.19" style="fill:#455a64"></polygon><polygon points="340.25 407.19 340.31 409.72 346.54 409.32 346.63 406.98 340.25 407.19" style="fill:#263238"></polygon><path d="M346.62,407a35.79,35.79,0,0,1-5.13-3.3l-.3-.21.16,0a32.61,32.61,0,0,1-5.74,0,33.06,33.06,0,0,1,5.71-.53h.09l.08,0,.3.22A36.33,36.33,0,0,1,346.62,407Z" style="fill:#263238"></path><path d="M340.29,409.72c-.14,0-.28-.55-.29-1.25s.08-1.25.22-1.26.28.56.3,1.25S340.43,409.72,340.29,409.72Z" style="fill:#455a64"></path><polygon points="346.19 405.45 350.62 409.24 350.6 406.54 345.92 403.04 346.19 405.45" style="fill:#263238"></polygon><polygon points="350.55 406.71 356.93 406.49 351.8 402.77 345.92 403.04 350.55 406.71" style="fill:#455a64"></polygon><polygon points="350.55 406.71 350.62 409.24 356.85 408.83 356.93 406.49 350.55 406.71" style="fill:#263238"></polygon><path d="M356.93,406.49a35.79,35.79,0,0,1-5.13-3.3l-.31-.22.16,0a32.51,32.51,0,0,1-5.73,0,33.29,33.29,0,0,1,5.71-.54h.09l.07.05.31.21A37.71,37.71,0,0,1,356.93,406.49Z" style="fill:#263238"></path><path d="M350.59,409.24c-.14,0-.27-.56-.29-1.25s.09-1.26.23-1.26.27.55.29,1.25S350.74,409.23,350.59,409.24Z" style="fill:#455a64"></path><polygon points="356.27 404.87 360.69 408.66 360.67 405.95 355.99 402.46 356.27 404.87" style="fill:#263238"></polygon><polygon points="360.63 406.13 367 405.91 361.87 402.19 355.99 402.46 360.63 406.13" style="fill:#455a64"></polygon><polygon points="360.63 406.13 360.69 408.66 366.92 408.25 367 405.91 360.63 406.13" style="fill:#263238"></polygon><path d="M367,405.91a34.93,34.93,0,0,1-5.14-3.3l-.3-.22.16.05a32.61,32.61,0,0,1-5.74,0,33.61,33.61,0,0,1,5.71-.54h.09l.08.05.3.21A36.24,36.24,0,0,1,367,405.91Z" style="fill:#263238"></path><path d="M360.67,408.66c-.14,0-.28-.56-.29-1.25s.08-1.26.22-1.26.28.55.3,1.25S360.81,408.65,360.67,408.66Z" style="fill:#455a64"></path><polygon points="300.68 413.96 305.11 417.75 305.09 415.05 300.41 411.55 300.68 413.96" style="fill:#263238"></polygon><polygon points="305.04 415.22 311.42 415 306.29 411.28 300.41 411.55 305.04 415.22" style="fill:#455a64"></polygon><polygon points="305.04 415.22 305.11 417.75 311.33 417.35 311.42 415 305.04 415.22" style="fill:#263238"></polygon><path d="M311.42,415a36.17,36.17,0,0,1-5.14-3.3l-.3-.22.16,0a32.51,32.51,0,0,1-5.73,0,33.29,33.29,0,0,1,5.71-.54h.09l.07.05.31.21A37.71,37.71,0,0,1,311.42,415Z" style="fill:#263238"></path><path d="M305.08,417.75c-.14,0-.27-.56-.29-1.25s.09-1.26.23-1.26.27.55.29,1.25S305.23,417.74,305.08,417.75Z" style="fill:#455a64"></path><polygon points="311.36 413.76 315.78 417.55 315.76 414.85 311.08 411.35 311.36 413.76" style="fill:#263238"></polygon><polygon points="315.71 415.02 322.09 414.8 316.96 411.08 311.08 411.35 315.71 415.02" style="fill:#455a64"></polygon><polygon points="315.71 415.02 315.78 417.55 322.01 417.14 322.09 414.8 315.71 415.02" style="fill:#263238"></polygon><path d="M322.09,414.8a35.79,35.79,0,0,1-5.13-3.3l-.31-.22.17.05a32.61,32.61,0,0,1-5.74,0,33.29,33.29,0,0,1,5.71-.54h.09l.07.05.31.21A34.94,34.94,0,0,1,322.09,414.8Z" style="fill:#263238"></path><path d="M315.76,417.55c-.15,0-.28-.56-.3-1.25s.09-1.26.23-1.26.28.55.29,1.25S315.9,417.54,315.76,417.55Z" style="fill:#455a64"></path><polygon points="321.57 413.62 326 417.41 325.98 414.71 321.3 411.21 321.57 413.62" style="fill:#263238"></polygon><polygon points="325.93 414.88 332.31 414.67 327.18 410.94 321.3 411.21 325.93 414.88" style="fill:#455a64"></polygon><polygon points="325.93 414.88 326 417.41 332.23 417.01 332.31 414.67 325.93 414.88" style="fill:#263238"></polygon><path d="M332.31,414.67a37.58,37.58,0,0,1-5.13-3.31l-.31-.21.17.05a33.14,33.14,0,0,1-5.74,0,32.75,32.75,0,0,1,5.71-.53h.09l.07.05.31.22A35.71,35.71,0,0,1,332.31,414.67Z" style="fill:#263238"></path><path d="M326,417.41c-.15,0-.28-.55-.3-1.24s.09-1.26.23-1.27.28.56.29,1.25S326.12,417.41,326,417.41Z" style="fill:#455a64"></path><polygon points="332.21 413.32 336.64 417.11 336.62 414.4 331.94 410.91 332.21 413.32" style="fill:#263238"></polygon><polygon points="336.57 414.58 342.95 414.36 337.82 410.64 331.94 410.91 336.57 414.58" style="fill:#455a64"></polygon><polygon points="336.57 414.58 336.64 417.11 342.87 416.7 342.95 414.36 336.57 414.58" style="fill:#263238"></polygon><path d="M343,414.36a35.79,35.79,0,0,1-5.13-3.3l-.31-.22.17.05a32.61,32.61,0,0,1-5.74,0,33.29,33.29,0,0,1,5.71-.54h.09l.07.05.31.21A36.68,36.68,0,0,1,343,414.36Z" style="fill:#263238"></path><path d="M336.62,417.11c-.15,0-.28-.56-.3-1.25s.09-1.26.23-1.26.28.55.29,1.25S336.76,417.1,336.62,417.11Z" style="fill:#455a64"></path><polygon points="343.01 413.05 347.43 416.84 347.41 414.14 342.73 410.64 343.01 413.05" style="fill:#263238"></polygon><polygon points="347.37 414.31 353.75 414.1 348.61 410.37 342.73 410.64 347.37 414.31" style="fill:#455a64"></polygon><polygon points="347.37 414.31 347.43 416.84 353.66 416.44 353.75 414.1 347.37 414.31" style="fill:#263238"></polygon><path d="M353.74,414.09a35.79,35.79,0,0,1-5.13-3.3l-.3-.21.16,0a32.61,32.61,0,0,1-5.74,0,33.61,33.61,0,0,1,5.71-.54h.09l.08,0,.3.22A36.33,36.33,0,0,1,353.74,414.09Z" style="fill:#263238"></path><path d="M347.41,416.84c-.14,0-.28-.55-.29-1.25s.08-1.25.22-1.26.28.56.3,1.25S347.55,416.84,347.41,416.84Z" style="fill:#455a64"></path><polygon points="353.31 412.57 357.74 416.36 357.72 413.65 353.04 410.16 353.31 412.57" style="fill:#263238"></polygon><polygon points="357.67 413.83 364.05 413.61 358.92 409.89 353.04 410.16 357.67 413.83" style="fill:#455a64"></polygon><polygon points="357.67 413.83 357.74 416.36 363.96 415.95 364.05 413.61 357.67 413.83" style="fill:#263238"></polygon><path d="M364.05,413.61a36.17,36.17,0,0,1-5.14-3.3l-.3-.22.16.05a32.51,32.51,0,0,1-5.73,0,33.29,33.29,0,0,1,5.71-.54h.09l.07.05.31.21A36.68,36.68,0,0,1,364.05,413.61Z" style="fill:#263238"></path><path d="M357.71,416.36c-.14,0-.27-.56-.29-1.25s.09-1.26.23-1.26.27.55.29,1.25S357.86,416.35,357.71,416.36Z" style="fill:#455a64"></path><polygon points="363.39 411.99 367.81 415.78 367.79 413.07 363.11 409.58 363.39 411.99" style="fill:#263238"></polygon><polygon points="367.75 413.25 374.13 413.03 368.99 409.31 363.11 409.58 367.75 413.25" style="fill:#455a64"></polygon><polygon points="367.75 413.25 367.81 415.78 374.04 415.37 374.13 413.03 367.75 413.25" style="fill:#263238"></polygon><path d="M374.12,413a35.79,35.79,0,0,1-5.13-3.3l-.3-.22.16.05a32.61,32.61,0,0,1-5.74,0,32.42,32.42,0,0,1,5.71-.54h.09l.08,0,.3.21A34.94,34.94,0,0,1,374.12,413Z" style="fill:#263238"></path><path d="M367.79,415.78c-.14,0-.28-.56-.29-1.25s.08-1.26.22-1.26.28.55.3,1.25S367.93,415.77,367.79,415.78Z" style="fill:#455a64"></path><polygon points="408.4 407.89 319.1 412.75 307.24 423.96 284.38 403.92 284.38 409.74 308.06 432.43 321.13 419.72 409.76 414.43 408.4 407.89" style="fill:#263238"></polygon><polygon points="308.06 432.43 388.75 427.71 409.76 414.43 318.99 417.99 308.06 432.43" style="fill:#263238"></polygon><path d="M409.76,414.43a.84.84,0,0,1-.27.05l-.81.07-3.11.23-11.44.77-37.77,2.33-35.22,2,.12-.05-9.61,9.23c-1.13,1.06-2,1.9-2.64,2.5l-.7.63a1.33,1.33,0,0,1-.25.21s.06-.09.21-.25l.66-.68,2.57-2.57,9.49-9.35.05-.05h.07l35.22-2.16,37.77-2.18,11.46-.6,3.11-.13.81,0Z" style="fill:#455a64"></path><path d="M321.13,419.72a12.73,12.73,0,0,1-1.27-3.41,13.45,13.45,0,0,1-.77-3.56,12.73,12.73,0,0,1,1.27,3.41A13.45,13.45,0,0,1,321.13,419.72Z" style="fill:#455a64"></path></g><g id="freepik--calculator-1--inject-5"><path d="M419.69,270.56l-80.15-15.34a4.52,4.52,0,0,1-3.59-5.29l25.79-134.75a6.43,6.43,0,0,1,7.51-5.1l76.42,14.63a6.42,6.42,0,0,1,5.1,7.51L425,267A4.52,4.52,0,0,1,419.69,270.56Z" style="fill:#455a64"></path><g style="opacity:0.4"><path d="M419.63,270.54,339.48,255.2a4.52,4.52,0,0,1-3.59-5.29l25.79-134.75a6.42,6.42,0,0,1,7.51-5.1l76.42,14.63a6.43,6.43,0,0,1,5.1,7.51L424.92,267A4.52,4.52,0,0,1,419.63,270.54Z"></path></g><path d="M412.71,269.2l-80.15-15.35a4.51,4.51,0,0,1-3.59-5.28l25.8-134.76a6.4,6.4,0,0,1,7.51-5.09l76.42,14.62a6.42,6.42,0,0,1,5.09,7.52L418,265.61A4.53,4.53,0,0,1,412.71,269.2Z" style="fill:#455a64"></path><rect x="345.02" y="225.39" width="30.57" height="13.51" rx="2.42" transform="translate(50.07 -63.6) rotate(10.84)" style="fill:#455a64"></rect><g style="opacity:0.2"><rect x="345.02" y="225.39" width="30.57" height="13.51" rx="2.42" transform="translate(50.07 -63.6) rotate(10.84)"></rect></g><rect x="380.18" y="106.8" width="30.4" height="77.5" transform="translate(178.1 506.51) rotate(-79.16)" style="fill:#fafafa"></rect><path d="M430.58,167.76s0-.19.09-.54.16-.87.28-1.54c.26-1.36.63-3.36,1.12-5.94,1-5.15,2.38-12.6,4.13-21.86l.07.11-76.11-14.53h0l.15-.1c-2,10.44-3.93,20.53-5.72,29.85l-.1-.14c22,4.24,41,7.89,54.54,10.5l15.84,3.06,4.24.83,1.1.22.38.08-.37-.06-1.08-.2-4.22-.8-15.83-3-54.64-10.4-.13,0,0-.12c1.78-9.33,3.71-19.42,5.71-29.86l0-.13.13,0h0l76.1,14.61.09,0,0,.09c-1.8,9.27-3.24,16.74-4.24,21.89-.5,2.57-.89,4.56-1.15,5.91l-.31,1.53C430.61,167.59,430.58,167.76,430.58,167.76Z" style="fill:#263238"></path><rect x="355.08" y="167.03" width="13.17" height="13.17" rx="2.08" transform="translate(39.09 -64.89) rotate(10.84)" style="fill:#455a64"></rect><g style="opacity:0.2"><rect x="355.08" y="167.03" width="13.17" height="13.17" rx="2.08" transform="translate(39.09 -64.89) rotate(10.84)"></rect></g><rect x="353.08" y="166.65" width="13.17" height="13.17" rx="2.08" transform="translate(38.98 -64.53) rotate(10.84)" style="fill:#263238"></rect><path d="M361.11,170.65l-1,5.39-1.25-.23.84-4.39-1.08-.21.19-1Z" style="fill:#fff"></path><rect x="373.12" y="170.48" width="13.17" height="13.17" rx="2.08" transform="translate(40.06 -68.23) rotate(10.84)" style="fill:#455a64"></rect><g style="opacity:0.2"><rect x="373.12" y="170.48" width="13.17" height="13.17" rx="2.08" transform="translate(40.06 -68.23) rotate(10.84)"></rect></g><rect x="371.12" y="170.1" width="13.17" height="13.17" rx="2.08" transform="translate(39.95 -67.86) rotate(10.84)" style="fill:#263238"></rect><path d="M380.26,178.85l-.19,1-4.08-.78.16-.81,2.45-1.56c.57-.37.7-.63.75-.89.09-.42-.16-.73-.73-.84a1.37,1.37,0,0,0-1.22.33l-.8-.76a2.56,2.56,0,0,1,2.34-.59c1.2.23,1.88,1,1.69,2a2.19,2.19,0,0,1-1.22,1.53l-1.47.93Z" style="fill:#fff"></path><rect x="391.82" y="174.06" width="13.17" height="13.17" rx="2.08" transform="translate(41.07 -71.68) rotate(10.84)" style="fill:#455a64"></rect><g style="opacity:0.2"><rect x="391.82" y="174.06" width="13.17" height="13.17" rx="2.08" transform="translate(41.07 -71.68) rotate(10.84)"></rect></g><rect x="389.83" y="173.68" width="13.17" height="13.17" rx="2.08" transform="translate(40.96 -71.31) rotate(10.84)" style="fill:#263238"></rect><path d="M399,181.79c-.18.91-1,1.61-2.57,1.32a3.8,3.8,0,0,1-1.94-1l.66-.87a2.61,2.61,0,0,0,1.45.78c.62.12,1.06-.06,1.14-.5s-.17-.72-.88-.85l-.57-.11.16-.83,1.35-1-2.3-.44.19-1,3.78.72-.16.81L397.87,180A1.56,1.56,0,0,1,399,181.79Z" style="fill:#fff"></path><rect x="410.53" y="177.64" width="13.17" height="13.17" rx="2.08" transform="translate(42.07 -75.13) rotate(10.84)" style="fill:#455a64"></rect><g style="opacity:0.2"><rect x="410.53" y="177.64" width="13.17" height="13.17" rx="2.08" transform="translate(42.07 -75.13) rotate(10.84)"></rect></g><rect x="408.57" y="177.26" width="13.17" height="13.17" rx="2.08" transform="translate(41.97 -74.77) rotate(10.84)" style="fill:#263238"></rect><rect x="414.87" y="180.69" width="0.5" height="5.88" transform="translate(156.72 556.82) rotate(-79.16)" style="fill:#fff"></rect><path d="M416.54,181.29a1,1,0,1,1-.76-1.12A1,1,0,0,1,416.54,181.29Z" style="fill:#fff"></path><path d="M415.58,186.33a1,1,0,1,1-.76-1.12A1,1,0,0,1,415.58,186.33Z" style="fill:#fff"></path><g style="opacity:0.2"><path d="M361.92,200l-10.24-2a1.38,1.38,0,0,1-1.09-1.61l2-10.24a1.37,1.37,0,0,1,1.6-1.09l10.25,2a1.35,1.35,0,0,1,1.09,1.6l-2,10.25A1.38,1.38,0,0,1,361.92,200Z"></path></g><rect x="349.45" y="185.6" width="13.17" height="13.17" rx="2.08" transform="translate(42.48 -63.51) rotate(10.84)" style="fill:#263238"></rect><path d="M358.24,194.17l-.88-.17-.22,1.13-1.21-.23.21-1.13-2.9-.56.16-.84,3.2-2.93,1.31.25-3,2.79,1.45.28.19-1,1.18.22-.19,1,.87.17Z" style="fill:#fff"></path><rect x="369.49" y="189.44" width="13.17" height="13.17" rx="2.08" transform="translate(43.56 -67.21) rotate(10.84)" style="fill:#455a64"></rect><g style="opacity:0.2"><rect x="369.49" y="189.44" width="13.17" height="13.17" rx="2.08" transform="translate(43.56 -67.21) rotate(10.84)"></rect></g><rect x="367.5" y="189.05" width="13.17" height="13.17" rx="2.08" transform="translate(43.45 -66.84) rotate(10.84)" style="fill:#263238"></rect><path d="M376.17,197c-.19,1-1.05,1.66-2.59,1.36a3.77,3.77,0,0,1-1.94-1l.67-.86a2.65,2.65,0,0,0,1.44.78c.63.12,1.06-.07,1.15-.51s-.15-.75-1.12-.94l-1.38-.26.86-3,3.28.63-.19,1-2.25-.43-.28,1,.44.09C375.86,195.22,376.35,196.06,376.17,197Z" style="fill:#fff"></path><rect x="388.2" y="193.01" width="13.17" height="13.17" rx="2.08" transform="translate(44.56 -70.66) rotate(10.84)" style="fill:#455a64"></rect><g style="opacity:0.2"><rect x="388.2" y="193.01" width="13.17" height="13.17" rx="2.08" transform="translate(44.56 -70.66) rotate(10.84)"></rect></g><rect x="386.2" y="192.63" width="13.17" height="13.17" rx="2.08" transform="translate(44.45 -70.29) rotate(10.84)" style="fill:#263238"></rect><path d="M395.25,200.66a1.89,1.89,0,0,1-2.39,1.4c-1.48-.28-2.23-1.39-1.89-3.13a2.67,2.67,0,0,1,3.3-2.38,3,3,0,0,1,1.43.66l-.64.83a1.78,1.78,0,0,0-.95-.47,1.47,1.47,0,0,0-1.82,1.28,1.86,1.86,0,0,1,1.42-.23A1.75,1.75,0,0,1,395.25,200.66Zm-1.22-.17a.83.83,0,0,0-.76-1,.86.86,0,0,0-1.09.63c-.09.46.19.86.79,1A.83.83,0,0,0,394,200.49Z" style="fill:#fff"></path><rect x="406.9" y="196.59" width="13.17" height="13.17" rx="2.08" transform="translate(45.57 -74.11) rotate(10.84)" style="fill:#455a64"></rect><g style="opacity:0.2"><rect x="406.9" y="196.59" width="13.17" height="13.17" rx="2.08" transform="translate(45.57 -74.11) rotate(10.84)"></rect></g><rect x="404.9" y="196.21" width="13.17" height="13.17" rx="2.08" transform="translate(45.46 -73.74) rotate(10.84)" style="fill:#263238"></rect><rect x="408.55" y="202.55" width="5.88" height="0.5" transform="translate(-43.78 259.22) rotate(-33.3)" style="fill:#fff"></rect><rect x="411.24" y="199.86" width="0.5" height="5.88" transform="translate(-42.87 266.12) rotate(-34.17)" style="fill:#fff"></rect><rect x="347.85" y="204.78" width="13.17" height="13.17" rx="2.08" transform="translate(46.05 -62.86) rotate(10.84)" style="fill:#455a64"></rect><g style="opacity:0.2"><rect x="347.85" y="204.78" width="13.17" height="13.17" rx="2.08" transform="translate(46.05 -62.86) rotate(10.84)"></rect></g><rect x="345.86" y="204.4" width="13.17" height="13.17" rx="2.08" transform="translate(45.95 -62.49) rotate(10.84)" style="fill:#263238"></rect><path d="M354.74,208.57l-.15.81-2.88,4.2-1.36-.26,2.77-4-1.79-.34-.16.88-1.11-.21.36-1.9Z" style="fill:#fff"></path><rect x="365.9" y="208.23" width="13.17" height="13.17" rx="2.08" transform="translate(47.03 -66.2) rotate(10.84)" style="fill:#455a64"></rect><g style="opacity:0.2"><rect x="365.9" y="208.23" width="13.17" height="13.17" rx="2.08" transform="translate(47.03 -66.2) rotate(10.84)"></rect></g><rect x="363.9" y="207.85" width="13.17" height="13.17" rx="2.08" transform="translate(46.92 -65.83) rotate(10.84)" style="fill:#263238"></rect><path d="M373,216c-.19,1-1.22,1.48-2.59,1.22s-2.15-1.08-1.95-2.09A1.4,1.4,0,0,1,369.5,214a1.26,1.26,0,0,1-.41-1.23c.18-.94,1.14-1.37,2.36-1.14s2,1,1.8,1.94a1.29,1.29,0,0,1-.85,1A1.38,1.38,0,0,1,373,216Zm-1.25-.28c.09-.48-.25-.85-.87-1s-1.06.1-1.15.58.24.85.85,1S371.64,216.22,371.73,215.75Zm-1.41-2.64c-.08.4.19.72.7.82s.9-.09,1-.5-.21-.75-.72-.84S370.4,212.68,370.32,213.11Z" style="fill:#fff"></path><rect x="384.6" y="211.81" width="13.17" height="13.17" rx="2.08" transform="translate(48.03 -69.65) rotate(10.84)" style="fill:#455a64"></rect><g style="opacity:0.2"><rect x="384.6" y="211.81" width="13.17" height="13.17" rx="2.08" transform="translate(48.03 -69.65) rotate(10.84)"></rect></g><rect x="382.6" y="211.43" width="13.17" height="13.17" rx="2.08" transform="translate(47.93 -69.28) rotate(10.84)" style="fill:#263238"></rect><path d="M391.72,218.32a2.68,2.68,0,0,1-3.31,2.38A2.93,2.93,0,0,1,387,220l.64-.83a1.72,1.72,0,0,0,.95.47,1.47,1.47,0,0,0,1.82-1.28,1.88,1.88,0,0,1-1.43.22,1.74,1.74,0,0,1-1.54-2,1.89,1.89,0,0,1,2.39-1.4C391.31,215.47,392.05,216.58,391.72,218.32Zm-1.22-1.21c.09-.46-.19-.86-.78-1a.83.83,0,1,0-.3,1.62A.86.86,0,0,0,390.5,217.11Z" style="fill:#fff"></path><rect x="403.3" y="215.39" width="13.17" height="13.17" rx="2.08" transform="translate(49.04 -73.1) rotate(10.84)" style="fill:#455a64"></rect><g style="opacity:0.2"><rect x="403.3" y="215.39" width="13.17" height="13.17" rx="2.08" transform="translate(49.04 -73.1) rotate(10.84)"></rect></g><rect x="401.3" y="215.01" width="13.17" height="13.17" rx="2.08" transform="translate(48.93 -72.73) rotate(10.84)" style="fill:#263238"></rect><rect x="407.64" y="218.66" width="0.5" height="5.88" transform="matrix(0.19, -0.98, 0.98, 0.19, 113.59, 580.58)" style="fill:#fff"></rect><rect x="380.97" y="230.78" width="13.17" height="13.17" rx="2.08" transform="translate(51.53 -68.63) rotate(10.84)" style="fill:#455a64"></rect><g style="opacity:0.2"><rect x="380.97" y="230.78" width="13.17" height="13.17" rx="2.08" transform="translate(51.53 -68.63) rotate(10.84)"></rect></g><rect x="378.97" y="230.39" width="13.17" height="13.17" rx="2.08" transform="translate(51.43 -68.26) rotate(10.84)" style="fill:#263238"></rect><rect x="399.67" y="234.36" width="13.17" height="13.17" rx="2.08" transform="translate(52.54 -72.08) rotate(10.84)" style="fill:#F77F00"></rect><g style="opacity:0.4"><rect x="399.67" y="234.36" width="13.17" height="13.17" rx="2.08" transform="translate(52.54 -72.08) rotate(10.84)"></rect></g><rect x="397.67" y="233.97" width="13.17" height="13.17" rx="2.08" transform="translate(52.43 -71.71) rotate(10.84)" style="fill:#F77F00"></rect><rect x="404.14" y="236.91" width="0.5" height="5.88" transform="translate(92.84 591.97) rotate(-79.17)" style="fill:#fff"></rect><rect x="403.72" y="239.1" width="0.5" height="5.88" transform="translate(90.34 593.35) rotate(-79.17)" style="fill:#fff"></rect><rect x="341.38" y="224.81" width="31.8" height="13.51" rx="2.5" transform="translate(49.9 -63.04) rotate(10.84)" style="fill:#263238"></rect><path d="M356.14,231.08c.34-1.78,1.52-2.6,2.85-2.34s2.11,1.45,1.77,3.23-1.51,2.6-2.84,2.34S355.8,232.86,356.14,231.08Zm3.37.65c.23-1.23-.1-1.82-.72-1.94s-1.15.31-1.38,1.54.1,1.81.71,1.93S359.27,233,359.51,231.73Z" style="fill:#fff"></path><rect x="382.62" y="236.73" width="5.88" height="0.5" transform="translate(75.37 566.52) rotate(-78.31)" style="fill:#fff"></rect><rect x="385.31" y="234.04" width="0.5" height="5.88" transform="translate(80.33 571.13) rotate(-79.17)" style="fill:#fff"></rect><path d="M387.94,144.27l-1.55,8.06-.38-.07,1.48-7.7-2-.39.07-.36Z" style="fill:#263238"></path><path d="M393.88,153.39l-.07.36-5.46-1,0-.28,4.12-2.82c1.18-.8,1.5-1.34,1.63-2,.2-1.07-.41-1.91-1.82-2.18a3,3,0,0,0-2.6.51l-.22-.3a3.45,3.45,0,0,1,2.9-.56c1.54.3,2.37,1.28,2.12,2.58-.14.76-.51,1.38-1.77,2.24L389,152.46Z" style="fill:#263238"></path><path d="M400.43,152.7c-.26,1.34-1.38,2.1-3.15,1.76a3.68,3.68,0,0,1-2.59-1.65l.26-.24a3.39,3.39,0,0,0,2.38,1.53c1.55.3,2.5-.31,2.72-1.47s-.41-2.07-2.12-2.4l-.45-.08,0-.28,3.14-2.79-4.44-.85.06-.36,5,.95-.06.28L398,149.89C399.93,150.26,400.69,151.36,400.43,152.7Z" style="fill:#263238"></path><path d="M408.37,154.13l-1.75-.34-.45,2.33-.38-.07.45-2.33-4.63-.89.05-.27,5.5-4.61.45.09-5.43,4.55,4.13.78.39-2.05.38.08-.39,2,1.75.33Z" style="fill:#263238"></path><path d="M409.88,156.47a2.32,2.32,0,0,1-.15.41l-.71,1.47-.3-.06.66-1.52a.39.39,0,0,1-.26-.45.38.38,0,0,1,.45-.3A.39.39,0,0,1,409.88,156.47Z" style="fill:#263238"></path><path d="M418,156l-1.75-.34-.44,2.33-.38-.07.44-2.33-4.63-.89.06-.27,5.5-4.61.45.09-5.43,4.55,4.12.79.39-2,.38.07-.39,2.05,1.75.33Z" style="fill:#263238"></path><path d="M424,157.17c-.25,1.31-1.35,2.15-3.18,1.8a3.67,3.67,0,0,1-2.58-1.65l.27-.23a3.4,3.4,0,0,0,2.37,1.53c1.58.3,2.51-.38,2.73-1.52s-.36-2.13-2.66-2.57l-1.57-.3,1.16-3.71,4.15.79-.06.36-3.84-.74-.94,3,1.25.24C423.58,154.66,424.29,155.74,424,157.17Z" style="fill:#263238"></path></g><g id="freepik--Window--inject-5"><rect x="38.26" y="42.78" width="222.98" height="148.7" style="fill:#fafafa"></rect><rect x="79.64" y="95.98" width="36.68" height="14.72" style="fill:#F77F00"></rect><rect x="189.69" y="95.98" width="36.68" height="14.72" style="fill:#F77F00"></rect><rect x="189.69" y="125.21" width="36.68" height="14.72" style="fill:#F77F00"></rect><rect x="189.69" y="139.82" width="36.68" height="14.72" style="fill:#F77F00"></rect><rect x="116.32" y="125.47" width="36.68" height="14.72" style="fill:#455a64"></rect><rect x="152.95" y="140.36" width="36.68" height="14.72" style="fill:#455a64"></rect><rect x="116.32" y="169.56" width="36.68" height="15.31" style="fill:#ebebeb"></rect><rect x="189.69" y="169.76" width="36.68" height="14.72" style="fill:#F77F00"></rect><rect x="56.39" y="81.6" width="198.07" height="14.38" style="fill:#e0e0e0"></rect><rect x="44.91" y="81.6" width="34.73" height="103.58" style="fill:#e0e0e0"></rect><path d="M80.14,185.68H44.41V81.1H80.14Zm-34.73-1H79.14V82.1H45.41Z" style="fill:#e0e0e0"></path><rect x="38.26" y="42.78" width="222.98" height="16.87" style="fill:#F77F00"></rect><rect x="45.31" y="65.79" width="34.33" height="9.65" style="fill:#ebebeb"></rect><rect x="83.66" y="65.79" width="33.11" height="9.65" style="fill:#ebebeb"></rect><rect x="119.97" y="65.79" width="33.11" height="9.65" style="fill:#ebebeb"></rect><rect x="156.28" y="65.79" width="33.11" height="9.65" style="fill:#ebebeb"></rect><rect x="192.59" y="65.79" width="33.11" height="9.65" style="fill:#ebebeb"></rect><rect x="228.9" y="65.79" width="27.21" height="9.65" style="fill:#ebebeb"></rect><path d="M44.91,184.87l1,0h3l11.58,0,43.41-.07,150.54-.12-.24.25c0-31.94,0-66.88,0-103.26h0l.26.26L44.91,81.79l.19-.19c0,31.83-.07,57.62-.1,75.47,0,8.93,0,15.87,0,20.58,0,2.36,0,4.16,0,5.37s0,1.85,0,1.85,0-.61,0-1.81,0-3,0-5.33c0-4.71,0-11.63,0-20.54,0-17.88-.06-43.72-.1-75.59v-.2h.19l209.55-.07h.26v.27h0c0,36.38,0,71.32,0,103.26v.24h-.25L103.75,185l-43.35-.07-11.53,0-3,0Z" style="fill:#263238"></path><path d="M254.86,96c0,.14-46.92.26-104.77.26S45.31,96.12,45.31,96s46.9-.26,104.78-.26S254.86,95.83,254.86,96Z" style="fill:#263238"></path><path d="M254.86,110.69c0,.15-46.92.26-104.77.26s-104.78-.11-104.78-.26,46.9-.26,104.78-.26S254.86,110.55,254.86,110.69Z" style="fill:#263238"></path><path d="M254.86,125.41c0,.14-46.92.26-104.77.26s-104.78-.12-104.78-.26,46.9-.26,104.78-.26S254.86,125.26,254.86,125.41Z" style="fill:#263238"></path><path d="M254.86,140.12c0,.15-46.92.26-104.77.26s-104.78-.11-104.78-.26,46.9-.26,104.78-.26S254.86,140,254.86,140.12Z" style="fill:#263238"></path><path d="M254.86,154.84c0,.14-46.92.26-104.77.26S45.31,155,45.31,154.84s46.9-.26,104.78-.26S254.86,154.7,254.86,154.84Z" style="fill:#263238"></path><path d="M254.86,169.56c0,.14-46.92.26-104.77.26s-104.78-.12-104.78-.26,46.9-.26,104.78-.26S254.86,169.41,254.86,169.56Z" style="fill:#263238"></path><path d="M79.64,185.18c-.15,0-.26-23.06-.26-51.5s.11-51.51.26-51.51.26,23.06.26,51.51S79.78,185.18,79.64,185.18Z" style="fill:#263238"></path><path d="M116.32,184.87c-.14,0-.26-23-.26-51.35s.12-51.35.26-51.35.26,23,.26,51.35S116.47,184.87,116.32,184.87Z" style="fill:#263238"></path><path d="M153,185.18c-.15,0-.26-23.06-.26-51.5s.11-51.51.26-51.51.26,23.06.26,51.51S153.15,185.18,153,185.18Z" style="fill:#263238"></path><path d="M189.69,185.18c-.14,0-.26-23.06-.26-51.5s.12-51.51.26-51.51.26,23.06.26,51.51S189.84,185.18,189.69,185.18Z" style="fill:#263238"></path><path d="M226.38,185.18c-.15,0-.26-23.06-.26-51.5s.11-51.51.26-51.51.26,23.06.26,51.51S226.52,185.18,226.38,185.18Z" style="fill:#263238"></path><path d="M51.29,51.21A2.13,2.13,0,1,1,49.17,49,2.16,2.16,0,0,1,51.29,51.21Z" style="fill:#fff"></path><path d="M58.52,51.21A2.13,2.13,0,1,1,56.39,49,2.16,2.16,0,0,1,58.52,51.21Z" style="fill:#fff"></path><path d="M65.75,51.21A2.13,2.13,0,1,1,63.62,49,2.16,2.16,0,0,1,65.75,51.21Z" style="fill:#fff"></path><path d="M261.24,191.47c0-1.7-.08-58.11-.21-148.69l.21.2L38.27,43h0l.26-.26c0,53,0,103.32,0,148.69l-.24-.24,160.67.12,45.89.06,12.2,0,3.14,0h1.08l-1.05,0h-3.12l-12.15,0-45.83.06-160.83.12H38v-.24c0-45.37,0-95.74,0-148.69v-.26h.27l223,0h.2v.21C261.32,133.36,261.24,189.78,261.24,191.47Z" style="fill:#263238"></path></g><g id="freepik--Character--inject-5"><path d="M243.44,218.64,231.87,233l-48.23,13.42,7.21,77.91c2.22,30.53,5.34,38,7.5,58.32v16.55h137l19.13-158.14L307.22,230.2l-10.16-11.56Z" style="fill:#F77F00"></path><polygon points="241.39 246.46 247.29 324.47 253.6 364.07 299.91 234.84 262.55 279.11 241.39 246.46" style="fill:#fff"></polygon><path d="M252.93,369.64s.06-.13.18-.38.34-.62.58-1.08L256,364c2-3.62,4.88-8.81,8.44-15.23l28-50.14,15.28-27.21.05.3-6.65-5.62-.24-.2.28-.17,9.47-5.58-.1.2c-1-9.23-1.88-16.76-2.47-22-.28-2.6-.49-4.63-.65-6-.06-.67-.11-1.2-.15-1.58s0-.54,0-.54,0,.18.09.54l.21,1.57c.18,1.4.43,3.43.76,6,.63,5.25,1.53,12.77,2.64,22l0,.13-.11.07-9.45,5.62,0-.36,6.66,5.59.16.13-.1.17L292.89,298.9,264.73,349l-8.59,15.15c-1,1.77-1.8,3.15-2.36,4.11l-.62,1.06A1.54,1.54,0,0,1,252.93,369.64Z" style="fill:#263238"></path><path d="M252.93,369.64a1.91,1.91,0,0,1-.13-.36c-.09-.27-.2-.63-.34-1.09-.3-1-.72-2.4-1.26-4.21-1.08-3.68-2.62-9-4.53-15.48s-4.21-14.31-6.6-23c-2.23-8.74-4.36-18.41-6.61-28.56-3.06-13.92-5.82-26.95-8.11-38l0-.19.18-.07,6.31-2.21,0,.38-7.68-4.07-.15-.07.06-.15,5.72-14.36,1.57-3.87.41-1a3.19,3.19,0,0,1,.16-.33,2,2,0,0,1-.11.35c-.09.25-.21.59-.37,1-.35.92-.84,2.23-1.48,3.9l-5.56,14.42-.09-.23,7.71,4,.42.22-.45.16-6.3,2.23.15-.25c2.34,11,5.12,24,8.18,38,2.25,10.14,4.36,19.82,6.57,28.55s4.65,16.47,6.49,23l4.37,15.54c.5,1.81.89,3.23,1.16,4.23l.29,1.1A2.22,2.22,0,0,1,252.93,369.64Z" style="fill:#263238"></path><path d="M183.64,246.43s-10.6,5.17-18.08,28.94c-5.43,17.28-27.51,76.77-27.51,76.77L113.59,345s-18,22.42-13.92,30.23,33.87,24,33.87,24h34.88a28.69,28.69,0,0,0,10-14.54l19.95-67.18Z" style="fill:#F77F00"></path><path d="M354.46,241.07a43,43,0,0,1,15.35,15.77c6.09,10.83,54.72,90,58.75,108.73,6,28-6,33.61-6,33.61h-16.8L364.16,399l-5.25-32.55,18.49-3.95-34.27-38-2.27,3.87-6.7-54.24Z" style="fill:#F77F00"></path><path d="M188.05,279.11c.15,0,1.39,13.45,2.77,30.06s2.39,30.09,2.25,30.1-1.38-13.45-2.77-30.06S187.91,279.12,188.05,279.11Z" style="fill:#263238"></path><path d="M352,264.05c.14,0-1.78,16.81-4.28,37.5S343.08,339,342.93,339s1.77-16.8,4.28-37.5S351.86,264,352,264.05Z" style="fill:#263238"></path><path d="M364.66,399.21s.16-.21.47-.6a18.81,18.81,0,0,0,1.25-1.77,29.35,29.35,0,0,0,3.22-7.28,35.09,35.09,0,0,0,1.16-5.39,25.38,25.38,0,0,0,.27-6.27,14.73,14.73,0,0,0-2.32-6.45,17.54,17.54,0,0,0-5.27-5.16L363,366l-.56-.3.6-.18a130.14,130.14,0,0,1,25.69-4.79c3.33-.29,6-.41,7.89-.47.93,0,1.66,0,2.15,0a3.33,3.33,0,0,1,.75,0,4.52,4.52,0,0,1-.75.08l-2.14.14c-1.86.12-4.55.3-7.86.63a139.25,139.25,0,0,0-25.58,4.93l.05-.48.48.28a17.88,17.88,0,0,1,5.42,5.32,15.17,15.17,0,0,1,2.37,6.67,25.72,25.72,0,0,1-.32,6.4,35,35,0,0,1-1.24,5.42,27.81,27.81,0,0,1-3.4,7.29,15.74,15.74,0,0,1-1.34,1.73A2.9,2.9,0,0,1,364.66,399.21Z" style="fill:#263238"></path><path d="M253.05,399.21c-.14,0-.26-6.7-.26-15s.12-15,.26-15,.26,6.7.26,15S253.2,399.21,253.05,399.21Z" style="fill:#263238"></path><path d="M331.1,332.83a6.87,6.87,0,0,1,0-.71c0-.49,0-1.15,0-2,0-1.76,0-4.27-.09-7.43l.16.16-41.44.1c.11-.11-.27.26.25-.26h0v10.12l-.26-.25,29.5.11,8.74.07,2.37,0h.62l.22,0a7.4,7.4,0,0,1-.78,0l-2.31,0-8.68.07-29.68.12h-.25v-.26c0-1.64,0-3.3,0-5v-5.13h0c.52-.52.15-.14.27-.26l41.44.11h.15v.15c0,3.2-.06,5.74-.08,7.52,0,.83,0,1.48,0,2A5,5,0,0,1,331.1,332.83Z" style="fill:#263238"></path><path d="M188.05,274.65c-.14,0-1.5-5.75-3-12.91s-2.67-13-2.53-13,1.5,5.75,3,12.91S188.19,274.62,188.05,274.65Z" style="fill:#263238"></path><g style="opacity:0.30000000000000004"><polygon points="255.23 365.55 314.38 274.82 305.84 266.57 310.72 260.34 301.26 265.95 307.92 271.56 255.23 365.55"></polygon></g><g style="opacity:0.30000000000000004"><polygon points="109.11 368.59 109.11 373.63 176.25 373.84 176.25 368.59 109.11 368.59"></polygon></g><path d="M190.93,183.24a9.94,9.94,0,0,0,9.34-4.17c-2.41.37-5,.71-7.18-.4s-3.4-4.31-1.7-6c1.33-1.37,3.52-1.13,5.42-1.27a11.72,11.72,0,0,0,10-7.65c1.61-4.62.14-9.65-.44-14.51a40,40,0,0,1,16.72-36.87l30.41-17.58c11,14.12,14.47,33.14,12.18,50.9s-9.82,34.47-18.88,49.92c-2.64,4.5-5.45,9-9.18,12.62s-8.47,6.47-13.66,7a14.08,14.08,0,0,1,2.25-12.72,30.69,30.69,0,0,1-22.61-8.1l6.51-5A23.79,23.79,0,0,1,190.93,183.24Z" style="fill:#263238"></path><path d="M308,133.64c-.54-12.7-8.45-23.34-20.68-26.83L249.23,95.92c-16.54-2.27-28.2,17.83-29.77,34.45-1.73,18.47-3,38-1.26,51.85,3.55,27.9,24.72,32.09,24.72,32.09s-.7,25.15-.92,33.26l19.39,40.54L299,236.25,308.12,134C308.14,133.51,308.06,134.28,308,133.64Z" style="fill:#af7e69"></path><path d="M226.79,153.38a3.57,3.57,0,0,0,3.32,3.7,3.41,3.41,0,0,0,3.77-3.1,3.56,3.56,0,0,0-3.32-3.7A3.41,3.41,0,0,0,226.79,153.38Z" style="fill:#263238"></path><path d="M223.32,141.37c.43.48,3.19-1.44,7-1.31s6.58,2.13,7,1.68c.21-.21-.21-1.06-1.41-2a9.79,9.79,0,0,0-5.59-1.91,9.43,9.43,0,0,0-5.61,1.62C223.54,140.33,223.11,141.15,223.32,141.37Z" style="fill:#263238"></path><path d="M259.19,153.38a3.57,3.57,0,0,0,3.32,3.7,3.41,3.41,0,0,0,3.77-3.1,3.56,3.56,0,0,0-3.32-3.7A3.42,3.42,0,0,0,259.19,153.38Z" style="fill:#263238"></path><path d="M259.71,142.41c.43.48,3.19-1.44,7-1.31s6.58,2.13,7,1.68c.21-.21-.21-1.06-1.41-2a9.74,9.74,0,0,0-5.59-1.91,9.38,9.38,0,0,0-5.61,1.62C259.93,141.37,259.5,142.19,259.71,142.41Z" style="fill:#263238"></path><path d="M246.88,172.16c0-.21-2.35-.7-6.19-1.31-1-.13-1.9-.36-2-1s.23-1.75.74-2.88l3.12-7.36c4.35-10.48,7.52-19.12,7.1-19.29S245.32,148.48,241,159l-3,7.41c-.4,1.1-1.08,2.35-.62,3.83a2.45,2.45,0,0,0,1.56,1.48,6.47,6.47,0,0,0,1.66.28C244.44,172.29,246.85,172.38,246.88,172.16Z" style="fill:#263238"></path><path d="M280,205.48s-9.58,18.82-37.29,15.36l.18-6.53A69.9,69.9,0,0,0,280,205.48Z" style="fill:#7c5142"></path><path d="M261.31,130.05c.35,1,4.19.68,8.67,1.36s8.07,2,8.7,1.1c.28-.44-.32-1.44-1.76-2.5a15.26,15.26,0,0,0-13.23-1.87C262,128.76,261.17,129.55,261.31,130.05Z" style="fill:#263238"></path><path d="M224.91,129.68c.64.89,3.31.07,6.49.13s5.84.76,6.49-.13c.28-.43-.11-1.32-1.26-2.18a9.4,9.4,0,0,0-10.46,0C225,128.36,224.62,129.25,224.91,129.68Z" style="fill:#263238"></path><path d="M261.25,179.64a5,5,0,0,0-5.06-3.94,5.24,5.24,0,0,0-4.1,2.74,6.44,6.44,0,0,0-.37,5l.07.36a5.7,5.7,0,0,0,6.37,1.55A5.34,5.34,0,0,0,261.25,179.64Z" style="fill:#7c5142"></path><path d="M249,183.8c0-.58,3.88-.29,6.89-3.38s2.9-7.25,3.44-7.24c.25,0,.68,1,.59,2.72a9.65,9.65,0,0,1-2.65,6.06,8.44,8.44,0,0,1-5.76,2.59C249.89,184.57,249,184.06,249,183.8Z" style="fill:#263238"></path><path d="M295.22,89.41c-4.29-6.81-14.42-13.92-22.36-15.31-9-1.58-14.48,0-20.43,5.4,0,0-4.62,4.46-9,5.3s-8,.13-13.13,2.78c-7.07,3.61-10.17,13.06-13.44,20.29-4.07,9-9.86,17.25-12.52,26.75s-1.24,21.16,6.76,26.93c-1.37-7.28-2.51-15.29.49-21.87a19.08,19.08,0,0,0,.48,7.88c1.5-4.28,3.08-8.69,6.18-12,2.93-3.12,7-5,10-8,4.43-4.45,6.47-11.22,11.85-14.45,5.6-3.36,12.69-1.68,19.21-1.65A36.82,36.82,0,0,0,288,97.69l-1.62-.14A45.79,45.79,0,0,0,295.22,89.41Z" style="fill:#263238"></path><path d="M336.05,157.34c-2.49-8.17-6.87-15.64-9.6-23.73-2.67-7.88-3.77-16.3-7.31-23.82-4.77-10.12-13.67-23.24-27.54-22.51l-1,.83a29.68,29.68,0,0,0-14,1.67l-.22,10.81-2.65,2.34c1.11,2.15,2.17,4.22,3.19,6.26a67.85,67.85,0,0,0,3.53,11.9,30.77,30.77,0,0,0,6.66,10.12c23.9,57.22,2.22,60.83,13,93.62l6.77-18.77a33.4,33.4,0,0,0,13.39-14.43l1.2,6a34.47,34.47,0,0,0,9.33-21.31L334,182C338.89,175,338.54,165.5,336.05,157.34Z" style="fill:#263238"></path><path d="M295.28,155.25c.37-.93,17.64-6.61,17.35,11.57-.28,17.66-18,13.67-18,13.16S295.28,155.25,295.28,155.25Z" style="fill:#af7e69"></path><path d="M300.19,173.4c.08-.06.3.22.82.47a3.05,3.05,0,0,0,2.29.09c1.88-.65,3.51-3.58,3.66-6.76a10.17,10.17,0,0,0-.78-4.42,3.54,3.54,0,0,0-2.27-2.41,1.58,1.58,0,0,0-1.83.81c-.25.49-.14.84-.23.87s-.38-.3-.22-1a2,2,0,0,1,.71-1.09,2.33,2.33,0,0,1,1.71-.42,4.31,4.31,0,0,1,3.16,2.8,10.44,10.44,0,0,1,1,4.94c-.18,3.56-2.07,6.86-4.64,7.54a3.24,3.24,0,0,1-2.8-.52C300.21,173.83,300.12,173.43,300.19,173.4Z" style="fill:#7c5142"></path><path d="M302.1,176.58a3.48,3.48,0,1,1-.83.24" style="fill:#fff"></path><path d="M301.27,176.82a4.62,4.62,0,0,0-1.65,2.32,3,3,0,0,0,.61,2.79,3.09,3.09,0,0,0,5.48-1.57,3,3,0,0,0-1-2.69,4.72,4.72,0,0,0-2.64-1.09c0-.05.28-.18.84-.17a3.58,3.58,0,0,1,2.18.83,3.54,3.54,0,0,1,1.32,3.22,3.79,3.79,0,0,1-6.78,1.95,3.53,3.53,0,0,1-.59-3.43,3.63,3.63,0,0,1,1.41-1.87C301,176.81,301.26,176.77,301.27,176.82Z" style="fill:#263238"></path><path d="M275.2,107.36c.35.14,2-5.85,6.9-11.4s10.55-8,10.37-8.38c-.05-.13-1.54.29-3.73,1.49a28.58,28.58,0,0,0-12.56,14.4C275.29,105.79,275.07,107.33,275.2,107.36Z" style="fill:#455a64"></path><path d="M116.86,373.63l-13.18-15.49s-9.25,0-13.87-4.4-13.18-8.55-9.71-16.41c0,0-4.16-4.86-.81-10.17l.11-1.39s-10.4-4.4-7.4-9.71,8.79-3,8.79-3-11.36-7.68-13.41-9.78c-5.48-5.62.41-9.41,6.5-6C84,302.8,118,318.83,120.33,330.39v5s9.47,11.61,9.47,12.3S129.11,366.46,116.86,373.63Z" style="fill:#af7e69"></path><path d="M50.23,256.87c-.41-.52,51.72,83.52,51.72,83.52l2.37,28.2h81.36l-7.55-32.1s-14.06-37.7-13.9-38.14c.31-.86-26.33-42.75-26.33-42.75Z" style="fill:#fff"></path><path d="M50.23,256.87l1.6-.05,4.63-.09,17.66-.32,63.78-1H138l.06.1c7,11,14.64,23,22.58,36,1,1.63,2,3.27,2.93,5,.24.43.48.85.69,1.3a2.57,2.57,0,0,1,.16.37.4.4,0,0,1,0,.18c0,.13,0,.08,0,.09h0l0,.08.22.68,1,2.77,4.08,11.22,8.6,23.21v0h0c2.29,9.74,4.7,19.95,7.14,30.34.14.59.28,1.18.41,1.76l.08.32h-.33l-81.36,0h-.22l0-.22q-1.23-14.81-2.35-28.2l0,.1L64.28,279.86l-10.43-17c-1.18-1.95-2.09-3.45-2.72-4.47-.29-.51-.52-.89-.68-1.16a2.7,2.7,0,0,1-.22-.4l51.91,83.4,0,.05v.05q1.14,13.39,2.39,28.2l-.24-.22,81.36,0-.25.32-.42-1.76-7.13-30.34v0q-4.39-11.86-8.59-23.22-2.07-5.69-4.07-11.22c-.33-.93-.65-1.86-1-2.78l-.22-.71,0-.09a.52.52,0,0,1,0-.18v-.09c-.18-.08.27.06.16,0a.32.32,0,0,0-.14,0c-.07,0,0,0,0,0v0a1.82,1.82,0,0,0-.13-.3c-.2-.42-.44-.85-.67-1.27-.95-1.68-1.94-3.32-2.92-5-7.93-13-15.57-25.07-22.52-36.07l.18.1L74,256.64l-17.63.2-4.61,0C50.76,256.89,50.23,256.87,50.23,256.87Z" style="fill:#263238"></path><path d="M157,300.44l-.73,0h-2.08l-7.66-.15c-6.46-.14-15.38-.39-25.24-.55s-18.79-.14-25.24.07c-3.23.08-5.84.22-7.64.32l-2.08.12a5.79,5.79,0,0,1-.73,0,3.29,3.29,0,0,1,.72-.11l2.07-.22c1.8-.17,4.41-.36,7.65-.49,6.46-.3,15.39-.37,25.26-.22s18.79.46,25.24.71l7.65.31,2.08.1A3.25,3.25,0,0,1,157,300.44Z" style="fill:#263238"></path><path d="M167,337.86c0,.14-11.53-1.11-25.7-2.81s-25.66-3.18-25.64-3.32,11.52,1.11,25.7,2.81S167,337.72,167,337.86Z" style="fill:#263238"></path><path d="M92,343.54l15.22-1c1.6-.1,3.36-.27,4.48-1.42,1.38-1.44.7-4.69-1.05-5.65l-17.44-4.21" style="fill:#af7e69"></path><path d="M93.19,331.29a9.11,9.11,0,0,1,1.35.23l3.68.81,12.47,2.92h.07a3.64,3.64,0,0,1,1.46,1.69,4.91,4.91,0,0,1,.45,2.22,3.16,3.16,0,0,1-.9,2.23,4.41,4.41,0,0,1-2,1.08,24.33,24.33,0,0,1-4.19.43l-7.06.39-4.75.22a10.65,10.65,0,0,1-1.75,0,11.89,11.89,0,0,1,1.73-.21l4.75-.38,7-.51a25.18,25.18,0,0,0,4.1-.44,4.07,4.07,0,0,0,1.81-1,2.65,2.65,0,0,0,.74-1.88,3.92,3.92,0,0,0-1.64-3.44l.06,0-12.43-3.09-3.64-1A7,7,0,0,1,93.19,331.29Z" style="fill:#7c5142"></path><path d="M99,325.83a74.73,74.73,0,0,1,13.53,3.81,3,3,0,0,1,2,3.49,2.44,2.44,0,0,1-1,1.86,4.83,4.83,0,0,1-2.14.59c-4.38.42-8.58-.18-12.94-.79s-10.4,0-12.93,1.34" style="fill:#af7e69"></path><path d="M85.55,336.13s.14-.11.43-.26a10,10,0,0,1,1.34-.52,24.62,24.62,0,0,1,5.2-.9,33.12,33.12,0,0,1,3.65-.07,40.15,40.15,0,0,1,4.16.42,54.58,54.58,0,0,0,9.46.63,21.24,21.24,0,0,0,2.45-.22,2.34,2.34,0,0,0,1.79-1.13c.57-1.32.38-3.11-.81-3.83a9.93,9.93,0,0,0-1.91-.83l-1.9-.67c-1.23-.43-2.38-.8-3.44-1.11-2.12-.64-3.86-1.06-5.07-1.35a17.85,17.85,0,0,1-1.87-.46,1.87,1.87,0,0,1,.5,0c.33,0,.8.12,1.42.23,1.22.22,3,.59,5.12,1.18,1.07.3,2.24.65,3.48,1.06l1.92.65a10.46,10.46,0,0,1,2,.86,3,3,0,0,1,1.29,2,4.29,4.29,0,0,1-.29,2.46,2.21,2.21,0,0,1-.92,1,4,4,0,0,1-1.23.43,19.68,19.68,0,0,1-2.53.24,53.16,53.16,0,0,1-9.55-.67,40.83,40.83,0,0,0-4.11-.47,33.24,33.24,0,0,0-3.61,0,28,28,0,0,0-5.16.72C86.18,335.85,85.57,336.17,85.55,336.13Z" style="fill:#7c5142"></path><path d="M81.57,313.22l12,6.69c1.81,1,3.7,2.1,4.79,3.87s1,4.44-.75,5.57c-1.36.9-3.16.56-4.74.16a117.45,117.45,0,0,1-13.19-4.19" style="fill:#af7e69"></path><path d="M79.68,325.32a11.54,11.54,0,0,1,1.68.52c1.08.36,2.63.89,4.57,1.49s4.26,1.26,6.86,1.91a7.46,7.46,0,0,0,4,.23,2.78,2.78,0,0,0,1.55-1.27,3.79,3.79,0,0,0,.46-2.06,5.31,5.31,0,0,0-1.93-3.73,18.9,18.9,0,0,0-3.45-2.31l-6.2-3.52-4.16-2.42a11.59,11.59,0,0,1-1.49-.94,9.8,9.8,0,0,1,1.59.77l4.24,2.27,6.25,3.42A18.7,18.7,0,0,1,97.21,322a7.06,7.06,0,0,1,1.46,1.78,5.22,5.22,0,0,1,.65,2.3,4.33,4.33,0,0,1-.53,2.35A3.31,3.31,0,0,1,97,330a7.81,7.81,0,0,1-4.29-.24c-2.6-.68-4.92-1.39-6.85-2s-3.47-1.23-4.53-1.65l-1.21-.5A1.58,1.58,0,0,1,79.68,325.32Z" style="fill:#7c5142"></path><path d="M366.8,396.37l-5.7-1.62L343,393.06l-5.07-6.73,3.53-14.54,22.65-5.39C374.55,373.84,371.72,386.24,366.8,396.37Z" style="fill:#af7e69"></path><path d="M314.1,359.87a15.64,15.64,0,0,0-6.36.5,8.45,8.45,0,0,0-5,6.6c-.59,4.66-.77,8.44-1.1,12.78a4.06,4.06,0,0,0,1.18,3.07c1.43,1.46,4,1,5.49-.44s2.13-3.43,2.84-5.34,1.46-6.48,2.57-6.88c3.16-1.14,7.45,4.29,9.82,1.63l4.31-10.5C321.14,360.64,320.77,360.52,314.1,359.87Z" style="fill:#af7e69"></path><path d="M314.1,359.87h.24l.72,0,2.73.23,10,1,.26,0-.1.24-4.26,10.52v0l0,0a2.45,2.45,0,0,1-2.07.81,6.74,6.74,0,0,1-2.13-.64,23.55,23.55,0,0,0-4-1.76l-.54-.08h-.53a4.59,4.59,0,0,0-.51.1c-.18,0-.22.11-.35.24a7,7,0,0,0-.89,2.05c-.47,1.5-.77,3.08-1.34,4.65a19.14,19.14,0,0,1-1.85,4.07,6.36,6.36,0,0,1-1.55,1.64,5.16,5.16,0,0,1-2.05.86,4,4,0,0,1-2.2-.19,3.6,3.6,0,0,1-1.63-1.45,4.2,4.2,0,0,1-.66-2c0-.73.08-1.34.12-2,.19-2.58.36-5,.59-7.34.11-1.14.23-2.25.36-3.31a9,9,0,0,1,.79-3,8.07,8.07,0,0,1,7.48-4.87,19,19,0,0,1,2.54.05l.65.07.22.05a8.34,8.34,0,0,1-.88,0,20.57,20.57,0,0,0-2.51.05,8.5,8.5,0,0,0-3.77,1,8.39,8.39,0,0,0-3.4,3.8,8.76,8.76,0,0,0-.72,2.91c-.12,1.06-.23,2.17-.33,3.31-.21,2.3-.36,4.75-.54,7.34,0,.63-.13,1.33-.11,1.93a3.74,3.74,0,0,0,.6,1.77,3,3,0,0,0,1.39,1.24,3.46,3.46,0,0,0,1.92.16,5,5,0,0,0,3.26-2.29,18.05,18.05,0,0,0,1.79-4c.55-1.51.86-3.1,1.33-4.62a7.16,7.16,0,0,1,1-2.23,1,1,0,0,1,.26-.25.87.87,0,0,1,.33-.15,4.52,4.52,0,0,1,.62-.12H315l.6.1a22.48,22.48,0,0,1,4.13,1.8,6.17,6.17,0,0,0,2,.61,2,2,0,0,0,1.68-.64l-.05.07c1.62-3.89,3.09-7.44,4.35-10.48l.16.26c-4.24-.43-7.66-.86-10-1.13l-2.72-.33-.71-.1A.68.68,0,0,1,314.1,359.87Z" style="fill:#7c5142"></path><path d="M352.31,361.2s-2.25-.7-5.28,1.52c0,0-1.14-5-5.13-6-2.9-.71-6.59,2.26-6.59,2.26s-2.5-5-9.17-2.92c-5.51,1.73-17.09,35.95-18.08,38.24-1.14,2.63,3.54,5.92,6.12,3.27s11.8-18,11.8-18l-6.05,21.32A4.15,4.15,0,0,0,320,403c.65,2.17,4.92,4.71,7.93.63,3.76-5.09,7.58-15.56,7.58-15.56l3.69-8s-6.89,21.3-4.38,23.24,5.71,1.19,8-3.81,10.63-20.85,10.63-20.85l4-2.08-1.46,5s-7.58,4-5.88,7.5,5.29,2.5,8.8.84,6.57-9.89,8.44-13.27c1.68-3,1.84-11.93-5.35-12.27a5.5,5.5,0,0,0-4.12,1.64l-.36.36S356.3,361.91,352.31,361.2Z" style="fill:#af7e69"></path><path d="M352.31,361.2l.48.1a3.33,3.33,0,0,1,.58.18,4.16,4.16,0,0,1,.77.35,7.72,7.72,0,0,1,3.41,4.5l-.13,0a5.85,5.85,0,0,1,3.68-2,6.7,6.7,0,0,1,4.89,1.49,8.05,8.05,0,0,1,2.37,5.49,12.7,12.7,0,0,1-.21,3.35,8.79,8.79,0,0,1-.53,1.7c-.25.56-.55,1.05-.81,1.6-1.06,2.17-2.09,4.52-3.4,6.87a22.67,22.67,0,0,1-2.3,3.44,7.69,7.69,0,0,1-1.58,1.48,11.71,11.71,0,0,1-2,1,9.51,9.51,0,0,1-4.42.91,3.7,3.7,0,0,1-2.17-1,4.59,4.59,0,0,1-.77-.93l-.3-.53-.2-.6a3.42,3.42,0,0,1,.49-2.42,8.46,8.46,0,0,1,1.58-1.9,20.52,20.52,0,0,1,4.08-2.88l-.11.13,1.46-5,.31.25c-1.21.65-2.58,1.37-4,2.09l.1-.09q-3,5.72-6.13,11.83l-3.14,6.23L342.82,400a11.27,11.27,0,0,1-2.09,3,4.77,4.77,0,0,1-3.44,1.49,4.35,4.35,0,0,1-1.87-.54,5.19,5.19,0,0,1-.81-.54,1.73,1.73,0,0,1-.48-.95,12.52,12.52,0,0,1,.07-3.82c.17-1.25.4-2.49.66-3.74,1.07-5,2.5-9.94,4.08-15l.48.19-3.68,8v0c-.84,2.26-1.82,4.65-2.89,7-.79,1.75-1.63,3.47-2.55,5.14-.46.84-.95,1.65-1.47,2.45A9.76,9.76,0,0,1,327,405a4.51,4.51,0,0,1-2.72,1.05,4.92,4.92,0,0,1-2.79-.84,4.15,4.15,0,0,1-1.77-2.29,4.49,4.49,0,0,1-.12-1.46,7.15,7.15,0,0,1,.32-1.38q3-10.59,5.84-20.57l.45.2q-3.46,5.76-6.95,11.17c-1.17,1.79-2.34,3.56-3.59,5.25a7.81,7.81,0,0,1-2.24,2.27,3.75,3.75,0,0,1-3.16,0,4.51,4.51,0,0,1-2.31-2.1,2.88,2.88,0,0,1-.25-1.59c.15-.56.35-1,.51-1.44l2-5.46c1.32-3.59,2.63-7,4-10.34s2.64-6.46,4-9.43a74.08,74.08,0,0,1,4.31-8.3,13.31,13.31,0,0,1,2.75-3.37,3.17,3.17,0,0,1,1-.51l1-.26a9.8,9.8,0,0,1,2-.21,7,7,0,0,1,6.22,3.5l-.2,0a12.45,12.45,0,0,1,4.37-2.21,4.83,4.83,0,0,1,2.2-.07,5.45,5.45,0,0,1,1.87.81A7.49,7.49,0,0,1,346,360a10.88,10.88,0,0,1,1.07,2.66l-.1,0a7.79,7.79,0,0,1,4-1.58,3.55,3.55,0,0,1,1.36.12l-.33,0a4.77,4.77,0,0,0-1,0,8,8,0,0,0-3.88,1.62l-.08.06,0-.1a11.06,11.06,0,0,0-1.08-2.61,7.49,7.49,0,0,0-2.32-2.54,5.37,5.37,0,0,0-1.8-.76,4.74,4.74,0,0,0-2.11.09,12,12,0,0,0-4.25,2.19l-.13.09-.07-.14a6.78,6.78,0,0,0-6-3.32,10.13,10.13,0,0,0-1.95.22l-1,.25a2.74,2.74,0,0,0-.85.47,13,13,0,0,0-2.66,3.29,74.29,74.29,0,0,0-4.26,8.27q-2,4.47-4,9.43T310.62,388c-.66,1.79-1.32,3.62-2,5.47-.16.45-.38.95-.48,1.36a2.43,2.43,0,0,0,.21,1.32,4.1,4.1,0,0,0,2.08,1.87,3.27,3.27,0,0,0,2.77,0,7.27,7.27,0,0,0,2.07-2.13c1.23-1.68,2.4-3.44,3.57-5.23q3.48-5.4,6.92-11.17l1-1.6-.51,1.8c-1.88,6.63-3.83,13.5-5.82,20.56a5.84,5.84,0,0,0-.3,1.29,3.74,3.74,0,0,0,.1,1.29,3.64,3.64,0,0,0,1.56,2,4.52,4.52,0,0,0,2.48.76,4.13,4.13,0,0,0,2.42-.95,9.19,9.19,0,0,0,1.74-2.1c.51-.79,1-1.6,1.45-2.42.91-1.65,1.74-3.36,2.53-5.1,1.06-2.36,2-4.75,2.88-7h0l3.69-8,.48.19c-1.57,5-3,10-4.07,14.91-.26,1.23-.49,2.47-.66,3.7a12.33,12.33,0,0,0-.08,3.63,1.31,1.31,0,0,0,.32.69,4.1,4.1,0,0,0,.72.48,3.74,3.74,0,0,0,1.65.48,4.25,4.25,0,0,0,3.07-1.35c1.7-1.65,2.45-4,3.55-6.09l3.16-6.23c2.11-4.07,4.17-8,6.15-11.82l0-.06.06,0,4-2.08.46-.24-.15.5-1.46,5,0,.09-.08,0a20,20,0,0,0-4,2.81,8.07,8.07,0,0,0-1.51,1.8,3,3,0,0,0-.44,2.12,3.66,3.66,0,0,0,3.09,2.73,9.25,9.25,0,0,0,4.23-.88,12.61,12.61,0,0,0,1.92-.92,8.08,8.08,0,0,0,1.51-1.41,22.44,22.44,0,0,0,2.27-3.38c1.31-2.32,2.34-4.66,3.42-6.84.26-.54.58-1.07.81-1.59a7.93,7.93,0,0,0,.52-1.63,12.12,12.12,0,0,0,.22-3.27,7.78,7.78,0,0,0-2.25-5.33,6.52,6.52,0,0,0-4.7-1.47,5.79,5.79,0,0,0-3.6,1.92l-.09.11,0-.14a7.68,7.68,0,0,0-3.3-4.47A8.07,8.07,0,0,0,352.31,361.2Z" style="fill:#7c5142"></path><path d="M342.93,369.64c.16,0-.49,3.11-1.91,6.67-.69,1.79-1.37,3.38-1.87,4.53a8.78,8.78,0,0,1-.91,1.82,44.23,44.23,0,0,1,2.3-6.54c.69-1.77,1.28-3.39,1.68-4.57A11,11,0,0,1,342.93,369.64Z" style="fill:#7c5142"></path><path d="M331.1,367.5c.14.07-1.13,2.86-2.54,6.38a42.39,42.39,0,0,1-2.75,6.3,7.92,7.92,0,0,1,.57-1.94c.41-1.17,1-2.79,1.7-4.55s1.43-3.34,2-4.45A7.61,7.61,0,0,1,331.1,367.5Z" style="fill:#7c5142"></path></g></svg>