<svg xmlns="http://www.w3.org/2000/svg" viewBox="0 0 750 500"><g id="freepik--background-complete--inject-7"><path d="M297.75,50.26c6.4-7.47,23.05-2.78,34.47,3.34,0,0,7.85,3.7,10.77,5.62l.1,0,26.68-3.33A10.86,10.86,0,0,1,376.08,57l2.19,1.11a1.47,1.47,0,0,1-.09,2.65l-19.65,8.4c0,.11,0,.13,0,.24l19.39,12.74.29.19a17.29,17.29,0,0,0,12.35,2.45L400.93,83a2.75,2.75,0,0,1,1.58.13,2.62,2.62,0,0,1,.69,4.44l-12,10.06a6.35,6.35,0,0,1-6.74.9l-5.63-2.59L350.3,82.31l3.27,16.23a1.07,1.07,0,0,1-1.09,1.26l-1.34,0a5.33,5.33,0,0,1-4.43-2.68L335.22,75.13l-33.63-16C297.11,57.06,295.51,53.22,297.75,50.26Z" style="fill:#e0e0e0"></path><rect x="450.89" y="207.69" width="97.34" height="77.28" transform="translate(75.41 -114.69) rotate(14.15)" style="fill:#fff"></rect><rect x="457.87" y="208.55" width="97.34" height="20.23" transform="translate(68.85 -117.23) rotate(14.15)" style="fill:#ebebeb"></rect><path d="M470.2,237.79s.06-.38.2-1,.38-1.66.63-2.79c.55-2.38,1.34-5.74,2.32-9.74l.19.32L460,221.19l.36-.22h0v.1l0,.12-.06.23-.12.46-.23.91c-.15.61-.31,1.21-.46,1.81-.3,1.19-.6,2.35-.88,3.49-.58,2.25-1.13,4.39-1.64,6.35l-.19-.32c4,1,7.31,1.94,9.67,2.58l2.75.77a8.36,8.36,0,0,1,1,.31,4.16,4.16,0,0,1-.93-.17l-2.73-.62c-2.37-.54-5.79-1.34-9.9-2.35l-.25-.07.06-.25L458,228c.28-1.13.57-2.3.87-3.49.15-.59.3-1.2.45-1.8l.23-.92.12-.46.06-.23,0-.12v-.1h0l.38-.22L473.67,224l.26.07-.07.25c-1.06,4.1-2,7.49-2.62,9.83q-.45,1.65-.75,2.7A4.08,4.08,0,0,1,470.2,237.79Z" style="fill:#e0e0e0"></path><path d="M487.87,242.25a10.44,10.44,0,0,1,.2-1q.24-1.08.63-2.79c.55-2.38,1.34-5.73,2.32-9.73l.19.32-13.51-3.37c-.08.05.7-.41.37-.21h0v0l0,.06,0,.11-.05.23-.12.47-.23.91c-.16.61-.31,1.21-.46,1.8-.3,1.19-.6,2.36-.89,3.49-.58,2.26-1.13,4.39-1.63,6.36l-.19-.32c4,1,7.31,1.93,9.67,2.58l2.75.76a10.44,10.44,0,0,1,1,.32,6.42,6.42,0,0,1-.93-.17l-2.73-.62c-2.37-.55-5.79-1.35-9.9-2.36l-.26-.06.07-.26c.49-2,1-4.11,1.57-6.37.29-1.14.58-2.3.88-3.49l.45-1.81.23-.91.12-.46.05-.24,0-.11,0-.06v0h0c-.33.19.45-.27.37-.23l13.49,3.45.26.06-.07.26c-1.06,4.09-2,7.49-2.62,9.83-.3,1.1-.55,2-.75,2.7A7,7,0,0,1,487.87,242.25Z" style="fill:#e0e0e0"></path><path d="M505.54,246.71a6,6,0,0,1,.2-1q.24-1.09.63-2.79c.55-2.38,1.34-5.74,2.32-9.74l.19.32-13.51-3.36.37-.22h0v.05l0,.05,0,.12-.06.23-.11.46-.23.92c-.16.6-.31,1.2-.46,1.8-.3,1.19-.6,2.35-.89,3.49-.58,2.25-1.13,4.39-1.63,6.36l-.19-.32c4,1,7.31,1.93,9.67,2.57l2.75.77a6.75,6.75,0,0,1,1,.32,5.9,5.9,0,0,1-.93-.18l-2.73-.62c-2.37-.54-5.79-1.34-9.9-2.35l-.26-.07.07-.25c.48-2,1-4.11,1.57-6.38.29-1.13.58-2.3.87-3.49.15-.59.3-1.2.46-1.8l.23-.92.11-.46.06-.23,0-.12,0-.05v0h0l.37-.22L509,233l.25.07-.06.25c-1.06,4.1-2,7.49-2.62,9.84-.31,1.09-.56,2-.75,2.69A6.87,6.87,0,0,1,505.54,246.71Z" style="fill:#e0e0e0"></path><path d="M523.21,251.16a6.35,6.35,0,0,1,.2-1c.16-.72.37-1.65.63-2.78.55-2.39,1.33-5.74,2.31-9.74l.2.32L513,234.56l.37-.22h0v.09l0,.12-.06.23-.11.46-.24.91-.45,1.81c-.31,1.18-.6,2.35-.89,3.48-.58,2.26-1.13,4.39-1.64,6.36l-.19-.32c4,1,7.32,1.93,9.67,2.58l2.76.76c.64.19,1,.3,1,.32a5.13,5.13,0,0,1-.94-.17l-2.73-.62c-2.36-.55-5.78-1.35-9.9-2.36l-.25-.06.06-.26,1.58-6.37c.28-1.14.57-2.3.87-3.49.15-.6.3-1.2.46-1.81l.23-.91.11-.46.06-.23,0-.12v-.09h0l.37-.22,13.48,3.44.26.06-.06.26c-1.07,4.1-2,7.49-2.62,9.83q-.46,1.65-.75,2.7A6.28,6.28,0,0,1,523.21,251.16Z" style="fill:#e0e0e0"></path><path d="M540.87,255.62a9.86,9.86,0,0,1,.2-1c.17-.73.38-1.65.64-2.79.55-2.38,1.33-5.74,2.31-9.73l.19.32L530.71,239l.37-.22h0v.11l0,.11-.06.23-.12.46-.23.92c-.15.6-.3,1.21-.46,1.8-.3,1.19-.59,2.35-.88,3.49-.58,2.26-1.13,4.39-1.64,6.36l-.19-.32c4,1,7.31,1.93,9.67,2.57l2.76.77a5.9,5.9,0,0,1,1,.32,6.15,6.15,0,0,1-.93-.18l-2.73-.61c-2.36-.55-5.79-1.35-9.9-2.36l-.25-.06.06-.26,1.58-6.38c.28-1.13.57-2.3.87-3.49q.23-.89.45-1.8l.23-.92.12-.46.06-.23,0-.11v-.09h0l.38-.22,13.48,3.44.26.07-.07.25c-1.06,4.1-2,7.5-2.62,9.84-.3,1.09-.55,2-.75,2.69A4.36,4.36,0,0,1,540.87,255.62Z" style="fill:#e0e0e0"></path><path d="M465.83,255.15a6.35,6.35,0,0,1,.2-1q.24-1.08.63-2.79c.55-2.38,1.33-5.73,2.31-9.73l.19.32-13.5-3.36.37-.22h0v.09l0,.11-.06.24-.12.46-.23.91q-.22.92-.45,1.8c-.31,1.19-.6,2.36-.89,3.49-.58,2.26-1.13,4.39-1.64,6.36l-.19-.32c4,1,7.31,1.93,9.67,2.58l2.76.76c.64.19,1,.3,1,.32a6.64,6.64,0,0,1-.94-.17l-2.73-.62c-2.36-.55-5.78-1.35-9.9-2.36l-.25-.06.06-.26,1.58-6.37c.28-1.14.57-2.3.87-3.49L455,240l.23-.91.12-.46.06-.23,0-.12v-.09h0c-.33.19.45-.27.37-.23l13.48,3.45.26.06-.07.26c-1.06,4.1-2,7.49-2.61,9.83-.31,1.1-.56,2-.75,2.7A7,7,0,0,1,465.83,255.15Z" style="fill:#e0e0e0"></path><path d="M483.49,259.61a9.86,9.86,0,0,1,.2-1q.26-1.1.63-2.79c.55-2.38,1.34-5.74,2.32-9.73l.19.31L473.33,243l.36-.22h0v.1l0,.12-.06.23-.12.46-.23.92c-.15.6-.3,1.21-.46,1.8-.3,1.19-.59,2.35-.88,3.49-.58,2.26-1.13,4.39-1.64,6.36l-.19-.32c4,1,7.31,1.93,9.67,2.57l2.75.77a5.85,5.85,0,0,1,1,.32,6.15,6.15,0,0,1-.93-.18l-2.73-.61c-2.36-.55-5.79-1.35-9.9-2.36l-.25-.06.06-.26,1.58-6.38c.28-1.13.57-2.3.87-3.49q.22-.89.45-1.8l.23-.92.12-.46.06-.23,0-.11v-.11h0l.38-.22L487,245.85l.26.07-.07.25c-1.06,4.1-2,7.5-2.62,9.84-.3,1.09-.55,2-.75,2.69A4.36,4.36,0,0,1,483.49,259.61Z" style="fill:#e0e0e0"></path><path d="M501.16,264.06s.06-.38.2-1,.38-1.65.63-2.78c.55-2.39,1.34-5.74,2.32-9.74l.19.32L491,247.46l.37-.22h0v0l0,.06,0,.12-.05.23-.12.46-.23.91c-.15.61-.31,1.21-.46,1.81-.3,1.19-.6,2.35-.89,3.48-.58,2.26-1.12,4.4-1.63,6.36l-.19-.32c4,1,7.31,1.93,9.67,2.58l2.75.77a9.2,9.2,0,0,1,1,.31,5.13,5.13,0,0,1-.93-.17l-2.73-.62c-2.37-.54-5.79-1.35-9.9-2.36l-.25-.06.06-.26c.49-2,1-4.11,1.57-6.37.29-1.14.58-2.3.88-3.49l.45-1.81.23-.91.12-.46,0-.23,0-.12,0-.06v0h0l.37-.22,13.49,3.44.26.07-.07.25c-1.06,4.1-2,7.49-2.62,9.83q-.45,1.65-.75,2.7A4.94,4.94,0,0,1,501.16,264.06Z" style="fill:#e0e0e0"></path><path d="M518.83,268.52a7.44,7.44,0,0,1,.2-1c.16-.73.37-1.65.63-2.79.55-2.38,1.34-5.74,2.32-9.73l.19.32-13.51-3.37.37-.22h0v.05l0,.06,0,.11-.06.23-.11.46-.23.92c-.16.61-.31,1.21-.46,1.8-.3,1.19-.6,2.36-.89,3.49-.58,2.26-1.13,4.39-1.63,6.36l-.19-.32c4,1,7.31,1.93,9.67,2.58l2.75.76a8.58,8.58,0,0,1,1,.32,5.9,5.9,0,0,1-.93-.18l-2.73-.61c-2.37-.55-5.79-1.35-9.9-2.36l-.26-.06.07-.26c.48-2,1-4.11,1.57-6.37.29-1.14.58-2.3.87-3.5.15-.59.31-1.19.46-1.8l.23-.92.11-.46.06-.23,0-.11,0-.06v0h0l.37-.22,13.49,3.45.25.06-.06.26c-1.06,4.09-2,7.49-2.62,9.83-.31,1.1-.56,2-.75,2.69A6.87,6.87,0,0,1,518.83,268.52Z" style="fill:#e0e0e0"></path><path d="M536.5,273a6.16,6.16,0,0,1,.2-1q.24-1.1.63-2.79c.55-2.38,1.33-5.74,2.31-9.74l.2.32-13.51-3.36.37-.22h0v.09l0,.12-.06.23-.11.46-.24.91-.45,1.81c-.31,1.19-.6,2.35-.89,3.48-.58,2.26-1.13,4.4-1.64,6.36l-.19-.32c4,1,7.32,1.94,9.67,2.58l2.76.77a10.21,10.21,0,0,1,1,.31,4.18,4.18,0,0,1-.94-.17l-2.73-.62c-2.36-.54-5.78-1.34-9.89-2.35l-.26-.07.06-.25,1.58-6.38c.28-1.13.57-2.3.87-3.49.15-.6.3-1.2.46-1.8l.23-.92.11-.46.06-.23,0-.12V256h0l.37-.22L540,259.22l.26.07-.06.25c-1.06,4.1-2,7.49-2.62,9.83q-.46,1.65-.75,2.7A6.28,6.28,0,0,1,536.5,273Z" style="fill:#e0e0e0"></path><rect x="449.73" y="255.94" width="13.92" height="13.92" transform="translate(90.1 641.44) rotate(-75.85)" style="fill:#e0e0e0"></rect><path d="M479.41,275.8a6.16,6.16,0,0,1,.2-1q.24-1.09.63-2.79c.55-2.38,1.33-5.74,2.32-9.74l.19.32-13.51-3.36.37-.22h0v0l0,.06,0,.12-.06.23-.11.46-.23.91c-.16.61-.31,1.21-.46,1.81-.3,1.19-.6,2.35-.89,3.49-.58,2.25-1.13,4.39-1.63,6.35l-.19-.32c4,1,7.31,1.94,9.67,2.58l2.75.77a10.21,10.21,0,0,1,1,.31,4.07,4.07,0,0,1-.93-.17l-2.73-.62c-2.37-.54-5.79-1.34-9.9-2.35l-.26-.07.07-.25c.48-2,1-4.11,1.57-6.38.29-1.13.58-2.3.87-3.49.15-.59.3-1.2.46-1.8l.23-.92.11-.46.06-.23,0-.12,0-.05v-.05h0l.37-.22,13.49,3.44.25.07-.06.25c-1.06,4.1-2,7.49-2.62,9.83q-.46,1.65-.75,2.7A6.28,6.28,0,0,1,479.41,275.8Z" style="fill:#e0e0e0"></path><path d="M497.08,280.26a6.15,6.15,0,0,1,.2-1q.24-1.08.63-2.79c.55-2.38,1.33-5.73,2.31-9.73l.2.32-13.51-3.37c-.08.05.7-.41.37-.21h0v.09l0,.11-.06.23-.11.47-.24.91q-.22.92-.45,1.8c-.31,1.19-.6,2.36-.89,3.49-.58,2.26-1.13,4.39-1.64,6.36l-.19-.32c4,1,7.31,1.93,9.67,2.58l2.76.76c.64.19,1,.3,1,.32a6.64,6.64,0,0,1-.94-.17l-2.73-.62c-2.36-.55-5.78-1.35-9.9-2.36l-.25-.06.06-.26,1.58-6.37c.28-1.14.57-2.3.87-3.49l.45-1.81.24-.91.11-.46.06-.24,0-.11v-.09h0c-.33.19.45-.27.37-.23l13.48,3.45.26.06-.07.26c-1.06,4.1-2,7.49-2.61,9.83-.31,1.1-.56,2-.75,2.7A7,7,0,0,1,497.08,280.26Z" style="fill:#e0e0e0"></path><path d="M514.74,284.72a9.86,9.86,0,0,1,.2-1q.25-1.1.63-2.79c.56-2.38,1.34-5.74,2.32-9.74l.19.32-13.5-3.36.37-.22h0v.1l0,.12-.06.23-.12.46-.23.92c-.15.6-.3,1.2-.46,1.8-.3,1.19-.59,2.35-.88,3.49l-1.64,6.36-.19-.32c4,1,7.31,1.93,9.67,2.57l2.76.77a5.9,5.9,0,0,1,1,.32,6.15,6.15,0,0,1-.93-.18l-2.73-.61c-2.36-.55-5.79-1.35-9.9-2.36l-.25-.07.06-.25,1.58-6.38c.28-1.13.57-2.3.87-3.49q.22-.88.45-1.8l.23-.92.12-.46.06-.23,0-.12v-.1h0l.38-.22L518.21,271l.26.07-.07.25c-1.06,4.1-2,7.49-2.62,9.84-.3,1.09-.55,2-.75,2.69A4.36,4.36,0,0,1,514.74,284.72Z" style="fill:#e0e0e0"></path><path d="M532.41,289.17s.06-.38.2-1,.38-1.65.63-2.78c.55-2.39,1.34-5.74,2.32-9.74l.19.32-13.51-3.36.37-.22h0v0l0,.06,0,.12-.06.23-.12.46-.23.91c-.15.61-.31,1.21-.46,1.81-.3,1.19-.6,2.35-.89,3.48-.58,2.26-1.12,4.39-1.63,6.36l-.19-.32c4,1,7.31,1.93,9.67,2.58l2.75.77a8.36,8.36,0,0,1,1,.31,5.13,5.13,0,0,1-.93-.17l-2.73-.62c-2.37-.54-5.79-1.35-9.9-2.36l-.25-.06.06-.26,1.58-6.37c.28-1.14.57-2.3.87-3.49l.45-1.81.23-.91.12-.46.05-.23,0-.12,0-.06v0h0l.37-.22,13.49,3.44.26.06-.07.26c-1.06,4.1-2,7.49-2.62,9.83q-.45,1.65-.75,2.7A4.94,4.94,0,0,1,532.41,289.17Z" style="fill:#e0e0e0"></path><rect x="479.31" y="195.55" width="4.3" height="12.77" rx="1.47" transform="translate(64.01 -111.63) rotate(14.16)" style="fill:#e0e0e0"></rect><rect x="506.43" y="202.39" width="4.3" height="12.77" rx="1.47" transform="translate(66.5 -118.04) rotate(14.16)" style="fill:#e0e0e0"></rect><rect x="533.55" y="209.23" width="4.3" height="12.77" rx="1.47" transform="translate(68.93 -124.38) rotate(14.15)" style="fill:#e0e0e0"></rect><path d="M537,297s.1-.49.33-1.42.56-2.31,1-4.09c.89-3.58,2.18-8.81,3.83-15.48,3.33-13.32,8.09-32.37,13.82-55.34l.19.31-94.39-23.75h0l.37-.23c-7,27.57-13.54,53.6-19.26,76.27l-.2-.33,68.12,17.32,19.3,4.94,5.12,1.32,1.32.35.46.13s-.15,0-.44-.09l-1.3-.31-5.08-1.25-19.27-4.79-68.36-17.1-.27-.06.07-.27c5.71-22.67,12.26-48.71,19.2-76.27l.08-.3.29.07h0l94.36,23.85.25.06-.06.25-14.12,55.42c-1.7,6.63-3,11.83-4,15.4l-1,4C537.1,296.58,537,297,537,297Z" style="fill:#e0e0e0"></path><rect x="67.78" y="142.1" width="19.27" height="60.2" style="fill:#e0e0e0"></rect><rect x="96.56" y="155.85" width="19.27" height="46.45" style="fill:#e0e0e0"></rect><rect x="123.2" y="174.72" width="19.27" height="27.58" style="fill:#e0e0e0"></rect><path d="M157.14,214.13l-.5,0-1.47,0-5.66,0-20.8.08-68.62.08H55v-.26c0-25.7.06-48.74.08-65.39,0-8.3.07-15,.09-19.65,0-2.29,0-4.08,0-5.32q0-.88,0-1.38c0-.32,0-.48,0-.48s0,.16,0,.48,0,.79,0,1.38c0,1.24,0,3,0,5.32,0,4.65,0,11.35.08,19.65,0,16.65,0,39.69.08,65.39l-.26-.26h4.85l68.62.08,20.8.08,5.66.05,1.47,0Z" style="fill:#e0e0e0"></path><path d="M237,405.65a38.18,38.18,0,1,1-45.17-29.47A38.15,38.15,0,0,1,237,405.65Z" style="fill:#f5f5f5"></path><path d="M228.11,407.51a29.1,29.1,0,1,1-34.42-22.46A29.07,29.07,0,0,1,228.11,407.51Z" style="fill:#ebebeb"></path><path d="M227.91,406.62c-.17,0-.55-1.18-1.46-3.27a31.15,31.15,0,0,0-5.11-8,30.39,30.39,0,0,0-4.86-4.39,29.19,29.19,0,0,0-6.58-3.53,28.44,28.44,0,0,0-3.87-1.16,27,27,0,0,0-4.17-.62,27.6,27.6,0,0,0-4.36,0,28.46,28.46,0,0,0-8.7,2.11,28.4,28.4,0,0,0-3.89,2,27.46,27.46,0,0,0-3.42,2.45,28.74,28.74,0,0,0-2.91,2.81,29.45,29.45,0,0,0-4.24,6.15,30,30,0,0,0-2.31,6.12,30.89,30.89,0,0,0-.86,9.49c.14,2.27.36,3.54.19,3.57s-.64-1.16-1.05-3.47a26.82,26.82,0,0,1,.19-9.94A29,29,0,0,1,177,393.62a29.7,29.7,0,0,1,6.73-5.77,30.38,30.38,0,0,1,4.17-2.16,31.37,31.37,0,0,1,4.6-1.52,30.35,30.35,0,0,1,9.49-.74,30.22,30.22,0,0,1,8.62,2.05,29.8,29.8,0,0,1,6.94,4,29.32,29.32,0,0,1,4.95,4.86,27,27,0,0,1,4.72,8.75C228,405.29,228,406.59,227.91,406.62Z" style="fill:#e0e0e0"></path><path d="M206.4,429.78l1.11,4.94-4.42,1L202,430.9c-4.43.71-8.94.29-11.79-1.07l1.22-5.93a18.21,18.21,0,0,0,9.27,1.21l-1.65-7.37c-5.17-.09-11-.5-12.43-6.81-1-4.68,1.45-9.46,8.25-11.82l-1.1-4.9,4.42-1,1.08,4.81a20.41,20.41,0,0,1,9.56.68l-1,5.93a18.43,18.43,0,0,0-7.27-.78l1.68,7.5c5.16.05,10.92.48,12.31,6.71C215.61,422.66,213.14,427.38,206.4,429.78Zm-8.79-18.53L196.2,405c-2.22,1-2.86,2.54-2.53,4S195.53,411.07,197.61,411.25Zm10,8.94c-.35-1.55-1.81-2.1-3.86-2.34l1.36,6.1C207.19,423,207.91,421.6,207.59,420.19Z" style="fill:#e0e0e0"></path><path d="M231.06,234.85a23.9,23.9,0,1,1-28.28-18.45A23.88,23.88,0,0,1,231.06,234.85Z" style="fill:#f5f5f5"></path><path d="M225.49,236A18.22,18.22,0,1,1,203.94,222,18.18,18.18,0,0,1,225.49,236Z" style="fill:#ebebeb"></path><path d="M225.37,235.46a10.25,10.25,0,0,1-.92-2,19.43,19.43,0,0,0-3.2-5,19,19,0,0,0-3-2.75,18.42,18.42,0,0,0-4.13-2.21,17,17,0,0,0-2.42-.72,15.78,15.78,0,0,0-2.61-.39,17.78,17.78,0,0,0-2.73,0,19,19,0,0,0-2.77.44,19.52,19.52,0,0,0-2.68.87,18.49,18.49,0,0,0-2.43,1.24,17.85,17.85,0,0,0-4,3.3,17.95,17.95,0,0,0-4.1,7.68,19.05,19.05,0,0,0-.54,5.94A10.81,10.81,0,0,1,190,244a5.63,5.63,0,0,1-.65-2.18,16.79,16.79,0,0,1,.11-6.22,18.27,18.27,0,0,1,4.1-8.31,17.51,17.51,0,0,1,1.93-1.92,17.71,17.71,0,0,1,2.28-1.69,19,19,0,0,1,2.62-1.35,18.33,18.33,0,0,1,2.88-1,19.57,19.57,0,0,1,3-.48,18.13,18.13,0,0,1,2.95,0,17,17,0,0,1,2.8.45,17.42,17.42,0,0,1,2.59.83,18.64,18.64,0,0,1,4.35,2.48,18.29,18.29,0,0,1,3.1,3,16.85,16.85,0,0,1,3,5.47A5.36,5.36,0,0,1,225.37,235.46Z" style="fill:#e0e0e0"></path><path d="M211.9,250l.7,3.1-2.77.61-.67-3a13.39,13.39,0,0,1-7.38-.67l.76-3.71a11.55,11.55,0,0,0,5.81.76l-1-4.62c-3.23,0-6.89-.31-7.78-4.26-.65-2.93.91-5.92,5.17-7.4l-.69-3.07,2.76-.62.68,3a13,13,0,0,1,6,.43l-.62,3.71a11.76,11.76,0,0,0-4.55-.49l1,4.7c3.23,0,6.83.3,7.7,4.2C217.67,245.5,216.13,248.46,211.9,250Zm-5.5-11.6-.88-3.92c-1.39.66-1.79,1.59-1.59,2.5S205.1,238.25,206.4,238.36Zm6.25,5.6c-.22-1-1.14-1.32-2.42-1.47l.86,3.82C212.4,245.7,212.85,244.84,212.65,244Z" style="fill:#e0e0e0"></path><path d="M703.28,152.19a38.6,38.6,0,1,1-45.67-29.8A38.56,38.56,0,0,1,703.28,152.19Z" style="fill:#f5f5f5"></path><path d="M694.29,154.07a29.42,29.42,0,1,1-34.8-22.71A29.39,29.39,0,0,1,694.29,154.07Z" style="fill:#ebebeb"></path><path d="M694.09,153.17c-.17,0-.56-1.2-1.48-3.3a31.35,31.35,0,0,0-5.17-8.14,30.56,30.56,0,0,0-4.91-4.43,29.67,29.67,0,0,0-6.66-3.57,28.2,28.2,0,0,0-3.91-1.18,27.55,27.55,0,0,0-4.21-.62,28.24,28.24,0,0,0-4.41,0,31.64,31.64,0,0,0-4.48.72,30.73,30.73,0,0,0-4.32,1.41,29,29,0,0,0-3.93,2,28.12,28.12,0,0,0-3.46,2.48,29.34,29.34,0,0,0-2.94,2.84,29.14,29.14,0,0,0-6.62,12.41,31,31,0,0,0-.87,9.59c.14,2.3.36,3.58.19,3.62s-.65-1.18-1.07-3.52a27.36,27.36,0,0,1,.19-10,30.2,30.2,0,0,1,2.21-6.66,30.73,30.73,0,0,1,4.41-6.77,29.37,29.37,0,0,1,3.11-3.1,28.11,28.11,0,0,1,3.69-2.72,29.13,29.13,0,0,1,4.23-2.19,32.07,32.07,0,0,1,4.65-1.54,32.44,32.44,0,0,1,4.84-.76,30.1,30.1,0,0,1,4.75,0,27.8,27.8,0,0,1,4.53.73,28.75,28.75,0,0,1,4.18,1.34,29.4,29.4,0,0,1,12,8.91,27.37,27.37,0,0,1,4.77,8.85C694.12,151.83,694.22,153.14,694.09,153.17Z" style="fill:#e0e0e0"></path><path d="M672.34,176.58l1.12,5-4.46,1-1.09-4.86c-4.48.72-9,.29-11.92-1.08l1.23-6a18.5,18.5,0,0,0,9.37,1.23l-1.67-7.46c-5.22-.09-11.13-.5-12.56-6.88-1.06-4.74,1.47-9.57,8.34-11.95l-1.11-5,4.46-1,1.09,4.87a20.53,20.53,0,0,1,9.68.69l-1,6a18.88,18.88,0,0,0-7.36-.79l1.71,7.59c5.21.05,11,.48,12.44,6.77C681.65,169.39,679.16,174.16,672.34,176.58Zm-8.89-18.73L662,151.51c-2.25,1.07-2.89,2.57-2.56,4.05S661.35,157.67,663.45,157.85Zm10.09,9c-.35-1.56-1.83-2.12-3.9-2.36l1.38,6.16C673.14,169.7,673.86,168.32,673.54,166.89Z" style="fill:#e0e0e0"></path><path d="M561.62,462.81l-56.3-5.39a3,3,0,0,1-2.8-3.2l9.75-88a4.38,4.38,0,0,1,4.89-3.69l53.67,5.14a4.22,4.22,0,0,1,4,4.54l-9.75,88A3.09,3.09,0,0,1,561.62,462.81Z" style="fill:#e0e0e0"></path><path d="M555.94,462.27l-56.3-5.39a3,3,0,0,1-2.8-3.2l9.75-88a4.39,4.39,0,0,1,4.89-3.69l53.67,5.14a4.24,4.24,0,0,1,4,4.54l-9.75,88A3.09,3.09,0,0,1,555.94,462.27Z" style="fill:#f5f5f5"></path><path d="M524.84,446.84l-16.39-1.57a2.25,2.25,0,0,1-2.11-2.42l.47-4.28a2.34,2.34,0,0,1,2.6-2l16.38,1.57a2.25,2.25,0,0,1,2.11,2.42l-.47,4.28A2.33,2.33,0,0,1,524.84,446.84Z" style="fill:#e0e0e0"></path><polygon points="561.82 396.45 508.35 391.33 510.51 371.84 563.98 376.96 561.82 396.45" style="fill:#fafafa"></polygon><path d="M561.82,396.45a3,3,0,0,1,0-.35l.1-1c.1-.89.24-2.2.42-3.88.36-3.36.89-8.23,1.54-14.27l.06.07-53.46-5.1h0l.1-.07c-.75,6.81-1.48,13.4-2.16,19.49l-.08-.09L546.67,395l11.13,1.09,3,.29.77.08.27,0-.26,0-.76-.07-3-.27-11.11-1-38.38-3.64h-.08v-.08c.67-6.09,1.4-12.67,2.15-19.49v-.09h.1L564,376.9h.07V377c-.69,6.06-1.24,10.93-1.62,14.3-.19,1.68-.34,3-.44,3.86-.05.44-.09.77-.12,1S561.82,396.45,561.82,396.45Z" style="fill:#e0e0e0"></path><path d="M516.61,408.52l-5-.49a1.93,1.93,0,0,1-1.82-2.07l.52-4.69a2,2,0,0,1,2.23-1.68l5,.48a1.93,1.93,0,0,1,1.82,2.07l-.52,4.69A2,2,0,0,1,516.61,408.52Z" style="fill:#e0e0e0"></path><path d="M515.2,408.38l-5-.48a1.93,1.93,0,0,1-1.81-2.08l.52-4.68a2,2,0,0,1,2.23-1.69l5,.48A1.94,1.94,0,0,1,518,402l-.52,4.68A2,2,0,0,1,515.2,408.38Z" style="fill:#ebebeb"></path><path d="M514,402.18l-.39,3.52-.87-.08.31-2.87-.75-.07.07-.66Z" style="fill:#fff"></path><path d="M529.28,409.73l-5-.48a1.94,1.94,0,0,1-1.82-2.08l.52-4.68a2,2,0,0,1,2.24-1.69l5,.48a1.93,1.93,0,0,1,1.81,2.08l-.52,4.68A2,2,0,0,1,529.28,409.73Z" style="fill:#e0e0e0"></path><path d="M527.88,409.6l-5-.49A1.93,1.93,0,0,1,521,407l.52-4.69a2,2,0,0,1,2.23-1.68l5,.48a1.93,1.93,0,0,1,1.82,2.07l-.52,4.69A2,2,0,0,1,527.88,409.6Z" style="fill:#ebebeb"></path><path d="M527.72,406.38l-.08.66-2.86-.27.06-.53,1.6-1.14c.37-.27.45-.44.47-.61s-.16-.46-.56-.5a1,1,0,0,0-.82.28l-.6-.44a1.84,1.84,0,0,1,1.58-.51c.84.08,1.36.53,1.29,1.17,0,.34-.17.65-.76,1.05l-.95.68Z" style="fill:#fff"></path><path d="M542.42,411l-5-.49a1.93,1.93,0,0,1-1.82-2.07l.52-4.69a2,2,0,0,1,2.23-1.68l5,.48a1.94,1.94,0,0,1,1.82,2.07l-.52,4.69A2,2,0,0,1,542.42,411Z" style="fill:#e0e0e0"></path><path d="M541,410.85l-5-.48a1.92,1.92,0,0,1-1.81-2.07l.52-4.69a2,2,0,0,1,2.23-1.69l5,.49a1.91,1.91,0,0,1,1.81,2.07l-.52,4.69A2,2,0,0,1,541,410.85Z" style="fill:#ebebeb"></path><path d="M540.87,407.22c-.07.6-.62,1.09-1.7,1a2.69,2.69,0,0,1-1.4-.52l.41-.59a1.84,1.84,0,0,0,1.05.42c.43,0,.72-.09.75-.38s-.16-.45-.66-.5l-.4,0,.06-.54.87-.74-1.61-.16.07-.65,2.65.25-.05.53-1,.82C540.62,406.28,540.92,406.7,540.87,407.22Z" style="fill:#fff"></path><path d="M555.55,412.25l-5-.49a1.91,1.91,0,0,1-1.81-2.07l.52-4.69a2,2,0,0,1,2.23-1.68l5,.48a1.92,1.92,0,0,1,1.81,2.07l-.52,4.69A2,2,0,0,1,555.55,412.25Z" style="fill:#e0e0e0"></path><path d="M554.18,412.11l-5-.48a1.93,1.93,0,0,1-1.81-2.08l.51-4.68a2,2,0,0,1,2.24-1.69l5,.48a1.93,1.93,0,0,1,1.81,2.08l-.52,4.68A2,2,0,0,1,554.18,412.11Z" style="fill:#ebebeb"></path><polygon points="554.1 407.86 550.04 407.47 550.08 407.15 554.14 407.54 554.1 407.86" style="fill:#fff"></polygon><path d="M552.93,405.93a.65.65,0,0,1-.73.54.63.63,0,0,1-.59-.67.66.66,0,0,1,.73-.55A.63.63,0,0,1,552.93,405.93Z" style="fill:#fff"></path><path d="M552.56,409.21a.64.64,0,0,1-.72.55.62.62,0,0,1-.59-.67.65.65,0,0,1,.72-.55A.62.62,0,0,1,552.56,409.21Z" style="fill:#fff"></path><path d="M515.24,420.89l-5-.48a1.94,1.94,0,0,1-1.82-2.08l.52-4.68a2,2,0,0,1,2.23-1.69l5,.48a1.94,1.94,0,0,1,1.82,2.08l-.52,4.68A2,2,0,0,1,515.24,420.89Z" style="fill:#e0e0e0"></path><path d="M513.83,420.76l-5-.49A1.92,1.92,0,0,1,507,418.2l.52-4.69a2,2,0,0,1,2.23-1.68l5,.48a1.92,1.92,0,0,1,1.81,2.07l-.51,4.69A2,2,0,0,1,513.83,420.76Z" style="fill:#ebebeb"></path><path d="M513.42,417.44l-.62-.06-.08.74-.85-.08.08-.74-2-.2.06-.54,2-2.07.92.09-1.89,2,1,.1.07-.66.83.08-.07.66.61.06Z" style="fill:#fff"></path><path d="M527.91,422.1l-5-.48a1.93,1.93,0,0,1-1.82-2.07l.52-4.69a2,2,0,0,1,2.23-1.69l5,.49a1.93,1.93,0,0,1,1.82,2.07l-.52,4.69A2,2,0,0,1,527.91,422.1Z" style="fill:#e0e0e0"></path><path d="M526.5,422l-5-.48a1.93,1.93,0,0,1-1.81-2.08l.52-4.68A2,2,0,0,1,522.4,413l5,.48a1.94,1.94,0,0,1,1.82,2.08l-.52,4.68A2,2,0,0,1,526.5,422Z" style="fill:#ebebeb"></path><path d="M526,418.27c-.07.63-.63,1.12-1.71,1a2.72,2.72,0,0,1-1.4-.52l.42-.59a1.87,1.87,0,0,0,1,.42c.43,0,.72-.1.76-.39s-.15-.47-.84-.54l-1-.09.41-2,2.31.23-.07.65-1.58-.15-.13.66.3,0C525.65,417.14,526,417.65,526,418.27Z" style="fill:#fff"></path><path d="M541,423.36l-5-.48a1.93,1.93,0,0,1-1.81-2.08l.52-4.68a2,2,0,0,1,2.23-1.69l5,.48A1.94,1.94,0,0,1,543.8,417l-.52,4.69A2,2,0,0,1,541,423.36Z" style="fill:#e0e0e0"></path><path d="M539.64,423.23l-5-.48a1.93,1.93,0,0,1-1.81-2.08l.52-4.69a2,2,0,0,1,2.23-1.68l5,.48a1.93,1.93,0,0,1,1.81,2.08l-.52,4.68A2,2,0,0,1,539.64,423.23Z" style="fill:#ebebeb"></path><path d="M539.38,419.55a1.31,1.31,0,0,1-1.57,1,1.55,1.55,0,0,1-1.49-1.91,1.81,1.81,0,0,1,2.14-1.71,2.12,2.12,0,0,1,1,.34l-.39.57a1.34,1.34,0,0,0-.69-.25,1,1,0,0,0-1.17.92,1.36,1.36,0,0,1,1-.22A1.16,1.16,0,0,1,539.38,419.55Zm-.86,0c0-.32-.19-.55-.58-.59a.59.59,0,0,0-.71.47c0,.3.18.54.6.58S538.49,419.83,538.52,419.51Z" style="fill:#fff"></path><path d="M554.18,424.62l-5-.48a1.93,1.93,0,0,1-1.81-2.08l.51-4.68a2,2,0,0,1,2.24-1.69l5,.48a1.93,1.93,0,0,1,1.81,2.08l-.52,4.68A2,2,0,0,1,554.18,424.62Z" style="fill:#e0e0e0"></path><path d="M552.78,424.49l-5-.49a1.93,1.93,0,0,1-1.82-2.07l.52-4.69a2,2,0,0,1,2.23-1.68l5,.48a1.93,1.93,0,0,1,1.82,2.07L555,422.8A2,2,0,0,1,552.78,424.49Z" style="fill:#ebebeb"></path><polygon points="549.23 421.32 549.02 421.07 552.22 418.72 552.44 418.98 549.23 421.32" style="fill:#fff"></polygon><polygon points="551.88 421.59 549.3 418.65 549.57 418.45 552.15 421.39 551.88 421.59" style="fill:#fff"></polygon><path d="M513.88,433.16l-5-.48a1.93,1.93,0,0,1-1.82-2.07l.52-4.69a2,2,0,0,1,2.23-1.69l5,.49a1.93,1.93,0,0,1,1.82,2.07l-.52,4.69A2,2,0,0,1,513.88,433.16Z" style="fill:#e0e0e0"></path><path d="M512.47,433l-5-.48a1.93,1.93,0,0,1-1.81-2.08l.52-4.68a2,2,0,0,1,2.23-1.69l5,.48a1.93,1.93,0,0,1,1.81,2.08l-.52,4.68A2,2,0,0,1,512.47,433Z" style="fill:#ebebeb"></path><path d="M511.86,426.89l-.05.52-1.74,2.86-1-.09,1.68-2.73-1.26-.12-.06.58-.78-.08.14-1.24Z" style="fill:#fff"></path><path d="M526.55,434.38l-5-.48a1.94,1.94,0,0,1-1.82-2.08l.52-4.68a2,2,0,0,1,2.23-1.69l5,.48A1.94,1.94,0,0,1,529.3,428l-.52,4.68A2,2,0,0,1,526.55,434.38Z" style="fill:#e0e0e0"></path><path d="M525.14,434.24l-5-.48a1.93,1.93,0,0,1-1.81-2.07l.52-4.69a2,2,0,0,1,2.23-1.69l5,.49a1.93,1.93,0,0,1,1.82,2.07l-.52,4.69A2,2,0,0,1,525.14,434.24Z" style="fill:#ebebeb"></path><path d="M524.91,430.66c-.07.67-.75,1-1.72.93s-1.54-.57-1.47-1.23a.93.93,0,0,1,.67-.78.8.8,0,0,1-.36-.77c.07-.61.71-.94,1.57-.86s1.42.53,1.35,1.14a.83.83,0,0,1-.52.69A.85.85,0,0,1,524.91,430.66Zm-.88-.11c0-.31-.22-.53-.66-.57s-.72.12-.76.44.22.53.65.57S524,430.86,524,430.55Zm-1.13-1.62c0,.27.18.46.53.49s.62-.11.65-.37-.19-.47-.55-.5S522.93,428.66,522.9,428.93Z" style="fill:#fff"></path><path d="M539.68,435.64l-5-.49a1.92,1.92,0,0,1-1.81-2.07l.52-4.69a2,2,0,0,1,2.23-1.68l5,.48a1.93,1.93,0,0,1,1.82,2.07l-.52,4.69A2,2,0,0,1,539.68,435.64Z" style="fill:#e0e0e0"></path><path d="M538.28,435.5l-5-.48a1.93,1.93,0,0,1-1.81-2.08l.51-4.68a2,2,0,0,1,2.24-1.69l5,.48a1.93,1.93,0,0,1,1.81,2.08l-.52,4.68A2,2,0,0,1,538.28,435.5Z" style="fill:#ebebeb"></path><path d="M538,431.09a1.82,1.82,0,0,1-2.15,1.71,2.16,2.16,0,0,1-1-.34l.39-.57a1.34,1.34,0,0,0,.69.25,1,1,0,0,0,1.18-.93,1.34,1.34,0,0,1-1,.23,1.16,1.16,0,0,1-1.18-1.22,1.31,1.31,0,0,1,1.57-1A1.55,1.55,0,0,1,538,431.09Zm-.92-.71c0-.3-.18-.54-.6-.58a.56.56,0,0,0-.69.46c0,.32.2.55.59.59A.58.58,0,0,0,537.08,430.38Z" style="fill:#fff"></path><path d="M552.82,436.89l-5-.48a1.92,1.92,0,0,1-1.81-2.07l.51-4.69a2,2,0,0,1,2.24-1.69l5,.49a1.92,1.92,0,0,1,1.81,2.07l-.52,4.69A2,2,0,0,1,552.82,436.89Z" style="fill:#e0e0e0"></path><path d="M551.42,436.76l-5-.48a1.94,1.94,0,0,1-1.82-2.08l.52-4.68a2,2,0,0,1,2.23-1.69l5,.48a1.94,1.94,0,0,1,1.82,2.08l-.52,4.68A2,2,0,0,1,551.42,436.76Z" style="fill:#ebebeb"></path><polygon points="551.38 432.65 547.32 432.26 547.35 431.94 551.41 432.33 551.38 432.65" style="fill:#fff"></polygon><path d="M538.31,448l-5-.49a1.91,1.91,0,0,1-1.81-2.07l.52-4.69a2,2,0,0,1,2.23-1.68l5,.48a1.92,1.92,0,0,1,1.81,2.07l-.52,4.69A2,2,0,0,1,538.31,448Z" style="fill:#e0e0e0"></path><path d="M536.91,447.88l-5-.48a1.94,1.94,0,0,1-1.82-2.07l.52-4.69A2,2,0,0,1,532.8,439l5.05.49a1.92,1.92,0,0,1,1.81,2.07l-.52,4.69A2,2,0,0,1,536.91,447.88Z" style="fill:#ebebeb"></path><path d="M551.45,449.28l-5-.49a1.93,1.93,0,0,1-1.82-2.07l.52-4.69a2,2,0,0,1,2.23-1.68l5,.48a1.93,1.93,0,0,1,1.82,2.07l-.52,4.69A2,2,0,0,1,551.45,449.28Z" style="fill:#e0e0e0"></path><path d="M550.05,449.14l-5-.48a1.94,1.94,0,0,1-1.82-2.08l.52-4.68a2,2,0,0,1,2.23-1.69l5,.48a1.94,1.94,0,0,1,1.82,2.08l-.52,4.68A2,2,0,0,1,550.05,449.14Z" style="fill:#ebebeb"></path><polygon points="550.06 444.57 546 444.18 546.03 443.86 550.09 444.24 550.06 444.57" style="fill:#fff"></polygon><polygon points="549.9 446 545.84 445.61 545.88 445.29 549.93 445.68 549.9 446" style="fill:#fff"></polygon><path d="M523.05,446.66,506,445a2.32,2.32,0,0,1-2.18-2.49l.46-4.15a2.41,2.41,0,0,1,2.68-2L524,438a2.32,2.32,0,0,1,2.18,2.49l-.46,4.15A2.39,2.39,0,0,1,523.05,446.66Z" style="fill:#ebebeb"></path><path d="M514.18,441.27A1.67,1.67,0,0,1,516,439.6a1.61,1.61,0,0,1,1.42,2,1.65,1.65,0,0,1-1.83,1.66A1.59,1.59,0,0,1,514.18,441.27Zm2.37.23c.08-.8-.18-1.17-.62-1.21s-.77.26-.86,1.06.18,1.16.61,1.21S516.46,442.29,516.55,441.5Z" style="fill:#fff"></path><polygon points="534.79 445.32 534.44 445.28 534.92 441.52 535.27 441.55 534.79 445.32" style="fill:#fff"></polygon><polygon points="536.87 443.77 532.81 443.38 532.85 443.06 536.9 443.45 536.87 443.77" style="fill:#fff"></polygon></g><g id="freepik--Table--inject-7"><path d="M640.16,470.25c0,.14-118.73.26-265.15.26s-265.17-.12-265.17-.26S228.54,470,375,470,640.16,470.1,640.16,470.25Z" style="fill:#263238"></path></g><g id="freepik--Character--inject-7"><path d="M420.86,123.19A36.69,36.69,0,0,1,433,154.91c-.73,5.68-2.62,12.1.88,16.64s10.67,4.71,14,9.32c3.89,5.42,0,13,1.2,19.58a13.22,13.22,0,0,0,13.55,10.49,51.54,51.54,0,0,1-26.06,9.82l-6.69-9.52c2.55,3.35,1.58,8.42-1.2,11.57s-6.92,4.74-11,5.82a65.41,65.41,0,0,1-56.78-12.11" style="fill:#263238"></path><path d="M311.24,168.3c1.64-4.3,4.24-8.23,5.42-12.68,2.54-9.56-1.64-20.66,3.48-29.13,3.64-6,10.89-8.71,17.71-10.45s14.13-3.15,19.38-7.83c3.85-3.44,6.19-8.32,10-11.77,5.47-4.92,13.27-6.3,20.62-6.39,7.56-.09,15.31,1,21.93,4.67s11.93,10.18,12.77,17.69c.41,3.66-.22,7.44.75,11,1.07,3.9,3.95,7,5.64,10.73a19.37,19.37,0,0,1-6,23l-55,64.28c-11.07,3.57-37.15-2.68-45.15-11.12S307.1,179.17,311.24,168.3Z" style="fill:#263238"></path><path d="M422,148.55c-1.39-15.27-12.05-33.76-27.25-31.73l-47.26,13.36a9,9,0,0,0-7.77,9.32L348,254.14l-.33.08s11.67,32.09,42.88,21.4c6.19-2.12,8.86-9,9.92-16.07l.08-18.14c-.15-9.27-.26-13.07-.25-13s19.46-3.79,22.8-29.4C424.8,186.29,423.58,165.51,422,148.55Z" style="fill:#ffbe9d"></path><path d="M380.32,172a3.29,3.29,0,0,1-3.07,3.39,3.13,3.13,0,0,1-3.45-2.86,3.26,3.26,0,0,1,3.06-3.38A3.13,3.13,0,0,1,380.32,172Z" style="fill:#263238"></path><path d="M414.18,170.89a3.29,3.29,0,0,1-3.07,3.39,3.14,3.14,0,0,1-3.45-2.86,3.28,3.28,0,0,1,3.06-3.39A3.15,3.15,0,0,1,414.18,170.89Z" style="fill:#263238"></path><path d="M419.17,159.89c-.38.58-3.32-1.49-7.14-1.12s-6.38,2.85-6.86,2.34c-.23-.22.12-1.23,1.23-2.38a8.78,8.78,0,0,1,5.42-2.54,8.67,8.67,0,0,1,5.76,1.56C418.86,158.69,419.37,159.63,419.17,159.89Z" style="fill:#263238"></path><path d="M383.76,162.23c-.48.52-3.36-1.79-7.44-1.81s-7.1,2.14-7.54,1.6c-.22-.24.26-1.2,1.57-2.21a9.91,9.91,0,0,1,6-1.93,9.6,9.6,0,0,1,5.92,2.1C383.56,161,384,162,383.76,162.23Z" style="fill:#263238"></path><path d="M396.75,186.85c0-.2,2.16-.64,5.69-1.19.9-.12,1.74-.32,1.87-.94a4.46,4.46,0,0,0-.67-2.64q-1.35-3.22-2.85-6.77c-4-9.64-6.85-17.58-6.46-17.73s3.91,7.53,7.88,17.17l2.73,6.81c.37,1,1,2.15.57,3.51a2.27,2.27,0,0,1-1.44,1.36,6.3,6.3,0,0,1-1.52.25C399,187,396.77,187.05,396.75,186.85Z" style="fill:#263238"></path><path d="M400.34,228.43a65,65,0,0,1-34.41-8.16s9.09,17.66,34.54,14.56Z" style="fill:#eb996e"></path><path d="M395.5,195.37a6.36,6.36,0,0,0-5.75-2.19,5.76,5.76,0,0,0-3.94,2.25,3.68,3.68,0,0,0-.16,4.21c1,1.31,3,1.56,4.64,1a13.46,13.46,0,0,0,4.43-2.8,3.93,3.93,0,0,0,1-1.07,1.17,1.17,0,0,0,0-1.31" style="fill:#F77F00"></path><path d="M386.46,189.57c.57,0,.69,3.77,4,6.4s7.4,2.08,7.45,2.62c.06.23-.89.76-2.61.86a9.53,9.53,0,0,1-6.2-2,8.27,8.27,0,0,1-3.14-5.37C385.8,190.52,386.2,189.56,386.46,189.57Z" style="fill:#263238"></path><path d="M384,152.74c-.32,1-3.85.61-8,1.22s-7.42,1.83-8,1c-.26-.41.3-1.32,1.62-2.29A14,14,0,0,1,381.83,151C383.36,151.55,384.14,152.28,384,152.74Z" style="fill:#263238"></path><path d="M416.24,145.6c-.69.82-3.48.06-6.81.12s-6.14.7-6.81-.11c-.3-.4.12-1.21,1.33-2a10.51,10.51,0,0,1,5.5-1.46,10.29,10.29,0,0,1,5.48,1.46C416.13,144.39,416.54,145.2,416.24,145.6Z" style="fill:#263238"></path><path d="M337.07,133.33c2.52-3.5,6.83-5.15,10.92-6.5a234.41,234.41,0,0,1,54.53-11.08c2.1,3.89-.27,8.93-3.86,11.51s-8.1,3.45-12.31,4.8-8.58,3.52-10.49,7.52c-2,4.25-.74,9.46-2.55,13.8-3.12,7.48-13.86,9.41-16.93,16.91-2.32,5.66.72,12,1.25,18.07A21.88,21.88,0,0,1,335,212.2q-.29-32.85-.58-65.7C334.33,141.93,334.4,137,337.07,133.33Z" style="fill:#263238"></path><path d="M290.37,186.34c3.6-2.92,8.05-5.38,9.65-9.74,2.31-6.34-2.49-14.16,1.13-19.87,3.3-5.2,12.24-4.49,15.33-9.82,2.42-4.16.07-8.06,1.09-11.77s6.5-6.73,10.3-6.1l27.7,44.68c2.06,14.64,4.47,22.49.94,30.82-1.93,4.57-4.38,9-5.29,13.88s.07,10.5,3.95,13.6c-17.9.53-34.16-9.62-49.16-19.4l-15.87-10.35a11.92,11.92,0,0,1-4.31-4C283.63,194.22,286.77,189.26,290.37,186.34Z" style="fill:#263238"></path><path d="M305.78,208.22a8.28,8.28,0,0,0,1.89.46,16.27,16.27,0,0,0,5.57-.12,17.14,17.14,0,0,0,7.95-3.79,16.87,16.87,0,0,0,5.61-10.17,17.42,17.42,0,0,0-.25-6.87,28.08,28.08,0,0,0-3-6.79,26.38,26.38,0,0,1-3.08-7c-.54-2.51-.4-5.46,1.32-7.52s4.77-2.48,7.62-3.47a8.18,8.18,0,0,0,3.94-2.62,8.06,8.06,0,0,0,1.46-4.62c.12-3.27-1.13-6.32-1.58-9.39a10.1,10.1,0,0,1,.2-4.55,6.33,6.33,0,0,1,2.75-3.49c2.66-1.72,6-1.85,9.14-2a19.4,19.4,0,0,0,9.32-2.26,17.26,17.26,0,0,0,6.62-6.51,28.38,28.38,0,0,0,2.74-8.43,40.26,40.26,0,0,1,2.14-7.93,17.8,17.8,0,0,1,4.51-6.12,20.05,20.05,0,0,1,23.54-2.14,24.54,24.54,0,0,1,6.61,5.57,32.64,32.64,0,0,1,3.95,6.29,2.68,2.68,0,0,0-.15-.47c-.12-.3-.27-.77-.55-1.34a24,24,0,0,0-2.94-4.74,24.32,24.32,0,0,0-6.63-5.81,20.94,20.94,0,0,0-11.25-3.07,21.25,21.25,0,0,0-13.15,5.06,18.78,18.78,0,0,0-4.78,6.4,40.57,40.57,0,0,0-2.24,8.1,27.67,27.67,0,0,1-2.66,8.14,16.41,16.41,0,0,1-6.26,6.11,18.3,18.3,0,0,1-8.87,2.11c-3.14.13-6.67.22-9.65,2.13a7.4,7.4,0,0,0-3.18,4,11.12,11.12,0,0,0-.23,5c.5,3.25,1.7,6.21,1.58,9.21a7,7,0,0,1-1.24,4,7.29,7.29,0,0,1-3.48,2.3c-1.36.5-2.81.81-4.22,1.33a8.49,8.49,0,0,0-3.79,2.46c-2,2.43-2.06,5.66-1.49,8.32a27.13,27.13,0,0,0,3.22,7.27,27.2,27.2,0,0,1,3,6.56,16.83,16.83,0,0,1,.31,6.56,16.38,16.38,0,0,1-5.27,9.85,17,17,0,0,1-7.65,3.84A19.15,19.15,0,0,1,305.78,208.22Z" style="fill:#455a64"></path><path d="M283.5,176.33a3.76,3.76,0,0,0-.66,1.43,6.39,6.39,0,0,0,.55,4.46,6.83,6.83,0,0,0,2.16,2.51,7.2,7.2,0,0,0,3.76,1.2,8.9,8.9,0,0,0,8.05-4.58A11.74,11.74,0,0,0,298.9,176a16.67,16.67,0,0,0-1-5.95c-1.23-3.93-3.61-7.82-3.45-12.33a8.26,8.26,0,0,1,2.37-6c1.67-1.53,4.14-1.8,6.58-1.71s5.1.48,7.76-.42a6.77,6.77,0,0,0,3.31-2.52,9.61,9.61,0,0,0,1.49-3.87c.47-2.76-.05-5.43-.25-8a17.28,17.28,0,0,1,.77-7.32,18.55,18.55,0,0,1,8.83-10.49c4-2.14,8.46-2.17,12.5-2.22s8-.08,11.38-1.22a23.76,23.76,0,0,0,8.24-4.64,23.24,23.24,0,0,0,4.65-5.41,16.92,16.92,0,0,0,2.4-5.55,33.11,33.11,0,0,1-2.74,5.33,23.79,23.79,0,0,1-4.69,5.19,23.27,23.27,0,0,1-8.08,4.37c-3.27,1.07-7.08,1.09-11.16,1.07s-8.69,0-12.94,2.23a19.51,19.51,0,0,0-9.36,11,18.52,18.52,0,0,0-.84,7.74c.22,2.59.7,5.19.27,7.7s-1.8,4.83-4.13,5.59-4.87.42-7.38.37-5.31.18-7.28,2a9.22,9.22,0,0,0-2.66,6.75,17.54,17.54,0,0,0,1.31,6.72c.76,2.06,1.64,4,2.28,5.9a15.8,15.8,0,0,1,1,5.65,11.23,11.23,0,0,1-1.37,5,8.31,8.31,0,0,1-7.4,4.36,6.71,6.71,0,0,1-3.5-1,6.56,6.56,0,0,1-2.79-6.51C283.25,176.82,283.55,176.36,283.5,176.33Z" style="fill:#263238"></path><path d="M470.91,196.18a7,7,0,0,1-.29,4.66,6.12,6.12,0,0,1-3.89,3.58,6.44,6.44,0,0,1-6.45-2.11,5.88,5.88,0,0,1-1.35-3.81,12.17,12.17,0,0,1,.9-4.48c1.09-3,3.19-6.16,3.08-10.11A14.35,14.35,0,0,0,458,173.34a16.74,16.74,0,0,0-5.41-3.2,24.74,24.74,0,0,0-6.31-1.22,34.13,34.13,0,0,1-6.13-.95,8.21,8.21,0,0,1-4.65-3.22,10.12,10.12,0,0,1-1.48-5.36,20.07,20.07,0,0,1,.73-5.48c.91-3.52,2.14-6.94,2.11-10.35a15.79,15.79,0,0,0-2.76-8.82,20.51,20.51,0,0,0-5.57-5.2,38,38,0,0,1-4.49-3.43,11.88,11.88,0,0,1-2.74-3.9s0,.11.06.32a5.26,5.26,0,0,0,.32.89,9.44,9.44,0,0,0,2.07,3,34.86,34.86,0,0,0,4.44,3.63,20.14,20.14,0,0,1,5.3,5.13,15.29,15.29,0,0,1,2.51,8.41c0,3.21-1.22,6.52-2.18,10.11a20.73,20.73,0,0,0-.79,5.74,11,11,0,0,0,1.62,5.9,9.19,9.19,0,0,0,5.2,3.65,34.17,34.17,0,0,0,6.33,1,23.93,23.93,0,0,1,6.06,1.16,16.12,16.12,0,0,1,5.09,3,13.48,13.48,0,0,1,4.64,9.82c.13,3.62-1.81,6.68-2.94,9.8a13.08,13.08,0,0,0-.9,4.8,6.67,6.67,0,0,0,1.6,4.27A7.05,7.05,0,0,0,466.9,205a6.81,6.81,0,0,0,4.45-7.61A3.86,3.86,0,0,0,470.91,196.18Z" style="fill:#263238"></path><path d="M331.27,123.53c-1.71,5.66-6.72,9.6-10,14.52-4.63,6.94-5.7,15.64-5.8,24,.24-3.93-1.33-7.72-2.1-11.58a28.52,28.52,0,0,1,19.17-32.72" style="fill:#263238"></path><path d="M342.2,247.1c3.36-.94-16.58,6.68-17,6.81l17.8,29,69,14.69,26-42.2-52.5-15.65Z" style="fill:#ffbe9d"></path><path d="M441.75,345.15l42.07-18.08s-16-55.53-20.2-61.42S416,246.28,416,246.28s-15,25-40.67,26.72-35.39-1-40.44-23.28c0,0-43,9.92-46.34,13.71s-26,66.16-26,66.16,44.59,12.62,46.28,13.46,4.62,66.89,4.62,66.89-19.91,51.47-20.72,60.73l163.37-.42-16.86-97.33Z" style="fill:#455a64"></path><path d="M296.27,295.07a15.49,15.49,0,0,1,.67,2c.4,1.39.95,3.23,1.6,5.46,1.33,4.62,3.13,11,5.08,18.08,1,3.53,1.88,6.9,2.72,10,.4,1.53.83,3,1.17,4.37s.61,2.67.84,3.85c.46,2.36.77,4.28,1,5.61a12.69,12.69,0,0,1,.27,2.07,2.32,2.32,0,0,1-.16-.52c-.09-.41-.21-.91-.35-1.51-.29-1.41-.69-3.29-1.17-5.56-.26-1.18-.55-2.46-.91-3.82s-.79-2.81-1.22-4.33c-.85-3.07-1.79-6.44-2.77-10-1.95-7.07-3.68-13.48-4.9-18.13l-1.42-5.51A12.46,12.46,0,0,1,296.27,295.07Z" style="fill:#263238"></path><path d="M396.12,381.78a3.08,3.08,0,0,1-.48.47l-1.46,1.24c-1.26,1.08-3.14,2.59-5.5,4.39a191.17,191.17,0,0,1-40,23.4c-2.73,1.18-5,2.07-6.53,2.65l-1.79.65a3,3,0,0,1-.65.19,3.24,3.24,0,0,1,.6-.3c.46-.21,1-.46,1.76-.76,1.53-.64,3.73-1.6,6.44-2.82a218.89,218.89,0,0,0,39.95-23.35c2.39-1.76,4.31-3.21,5.61-4.23l1.53-1.16A2.25,2.25,0,0,1,396.12,381.78Z" style="fill:#263238"></path><g style="opacity:0.2"><path d="M429.17,359.7c-7.95-9.45-19.06-15.73-30.48-20.43-11.59-4.77-24.31-8.14-36.61-5.73-11.35,2.23-21.15,9.11-30.5,15.91-3.06,2.22-6.17,4.51-8.44,7.54-2.46,3.27-3.8,7.23-5,11.13-3.2,10.12-2.9,21.89-5.12,32.27l.09,1.85c2.14.65,3.1-.35,5.07-1.41,11.72-6.37,16.47-23,29.41-26.23a64.18,64.18,0,0,1,7.2-1A40.92,40.92,0,0,0,372.24,367c2.11-1.42,4.27-3.08,6.81-3.26s5.16,1.31,7.5,2.64a77.35,77.35,0,0,0,21.8,8.25,7,7,0,0,1,2.9,1.07,6.84,6.84,0,0,1,1.94,3.36c2.86,8.23,6.49,16.3,11.94,23.08s12.9,12.22,21.42,14C444.84,396.19,442,375,429.17,359.7Z"></path></g><g style="opacity:0.2"><path d="M349.62,420.39c9,3.14,24.06-1,32.41-5.62s15.6-14.7,17.68-24C385.64,399.88,365,413.58,349.62,420.39Z"></path></g><g style="opacity:0.2"><path d="M303,319.21c-1.95-6.07-3.4-12.55-5.34-18.62h-.22a60.21,60.21,0,0,0,.06,22.47,35.16,35.16,0,0,0,11.29,19.22A175.33,175.33,0,0,0,303,319.21Z"></path></g><path d="M295.47,278.63a29.9,29.9,0,0,1-2.78-6.93c-1.21-3.95-1.7-7.28-1.54-7.31s.93,3.21,2.13,7.13S295.64,278.57,295.47,278.63Z" style="fill:#263238"></path><path d="M453.06,278.14c.17,0-1.9,14.4-4.62,32.09s-5.05,32-5.22,32,1.9-14.39,4.62-32.09S452.89,278.12,453.06,278.14Z" style="fill:#263238"></path><path d="M411.18,251.25c-19.7-11.49-56.23-5.68-56.23-5.68-7.94-9.86-18.54-9.33-23.32-8.46a3.05,3.05,0,0,0-2.48,3l.25,15c-15,6.16-18.49,25.42-18.49,25.42l-6.74,1.89a5.58,5.58,0,0,0-4.07,5.46l.25,14.51a5.57,5.57,0,0,0,4.39,5.36l6.65,1.43c7.88,12.28,15.62,18.91,26,22.39l.26,12.92,21.26-.35,4.93-9,24-.63,3.93,9.75,22.09-1.07.23-15.19c15.16-12.37,19.28-20.29,19.62-36.84S430.24,262.38,411.18,251.25Z" style="fill:#F77F00"></path><path d="M323.4,276.5a3.27,3.27,0,1,0,.8-.24" style="fill:#263238"></path><path d="M335.3,256.07a20.81,20.81,0,0,1-.31-2.64,39.95,39.95,0,0,0-3.34-12.24,20,20,0,0,1-1.07-2.43A10.43,10.43,0,0,1,332,241a30.76,30.76,0,0,1,2.32,6,31.69,31.69,0,0,1,1.05,6.36A9.55,9.55,0,0,1,335.3,256.07Z" style="fill:#263238"></path><g style="opacity:0.30000000000000004"><path d="M361.52,253.07l1.38,2.54a82.38,82.38,0,0,1,27.23-.45l-2.64-2.89A65.27,65.27,0,0,0,361.52,253.07Z"></path></g><path d="M306.12,295c0,1.51-.53,2.74-1.23,2.75s-1.3-1.2-1.33-2.71.53-2.74,1.23-2.75S306.09,293.49,306.12,295Z" style="fill:#263238"></path><path d="M303.26,305.65a5.9,5.9,0,0,0,1.21.2,3.81,3.81,0,0,0,2.95-1.14,8.21,8.21,0,0,0,1.33-1.84,11.28,11.28,0,0,0,.81-2.5,23.83,23.83,0,0,0,.74-6,22.83,22.83,0,0,0-.79-6,7,7,0,0,0-2.78-3.89,5.3,5.3,0,0,0-3.13-.85c-.78.05-1.19.25-1.21.2s.09-.07.29-.16a3.35,3.35,0,0,1,.9-.25,5.28,5.28,0,0,1,3.34.75,7.15,7.15,0,0,1,3.05,4.05,22.18,22.18,0,0,1,.85,6.15,23.27,23.27,0,0,1-.79,6.16,11.55,11.55,0,0,1-.9,2.58,8,8,0,0,1-1.45,1.9,3.5,3.5,0,0,1-1.74,1,4.4,4.4,0,0,1-1.49.1,2.89,2.89,0,0,1-.91-.23C303.34,305.74,303.25,305.67,303.26,305.65Z" style="fill:#263238"></path><path d="M408,330.27a5.19,5.19,0,0,1-.67.19l-1.94.45c-1.69.39-4.16.87-7.21,1.39s-6.72,1-10.79,1.47-8.58.72-13.31.84-9.25,0-13.34-.19-7.78-.55-10.86-.92-5.56-.73-7.26-1l-2-.35A4.91,4.91,0,0,1,340,332a3.32,3.32,0,0,1,.7.05l2,.26c1.71.25,4.2.55,7.27.87s6.75.61,10.84.81,8.58.26,13.3.15,9.21-.43,13.28-.8,7.72-.87,10.78-1.35,5.53-.9,7.23-1.23l2-.35A3,3,0,0,1,408,330.27Z" style="fill:#263238"></path><path d="M354.71,245.46a4,4,0,0,1-.15,1.07,17.55,17.55,0,0,1-.87,2.8,19.22,19.22,0,0,1-14.49,11.74,17.47,17.47,0,0,1-2.92.27,4.16,4.16,0,0,1-1.07-.08c0-.1,1.53-.05,3.92-.55a20,20,0,0,0,14.22-11.53C354.35,247,354.61,245.44,354.71,245.46Z" style="fill:#263238"></path><path d="M328.34,257c.05.08-1.18.92-3,2.47a40.32,40.32,0,0,0-10.92,14.95c-.93,2.2-1.35,3.63-1.44,3.6a4.18,4.18,0,0,1,.21-1c.17-.66.47-1.59.89-2.72a36,36,0,0,1,11-15.09,24.64,24.64,0,0,1,2.32-1.67A4.31,4.31,0,0,1,328.34,257Z" style="fill:#fff"></path><path d="M304.46,282.85a9.71,9.71,0,0,1,2.67-.79,10,10,0,0,1,2.73-.55,6.12,6.12,0,0,1-2.6,1.05A6.31,6.31,0,0,1,304.46,282.85Z" style="fill:#fff"></path><path d="M301.27,301.2a8.3,8.3,0,0,1-.45-2.27,45.22,45.22,0,0,1,0-11.15,9.36,9.36,0,0,1,.45-2.27c.16,0-.28,3.51-.28,7.85S301.42,301.18,301.27,301.2Z" style="fill:#fff"></path><path d="M330.07,239.33c.16,0-.19,3.44-.11,7.66s.52,7.62.37,7.65a8.33,8.33,0,0,1-.47-2.21,43.25,43.25,0,0,1-.42-5.43,42.31,42.31,0,0,1,.24-5.45A8.83,8.83,0,0,1,330.07,239.33Z" style="fill:#fff"></path><path d="M348.57,241.23a30.5,30.5,0,0,0-16.86-3.2,8.76,8.76,0,0,1,2.54-.45,23.19,23.19,0,0,1,12.12,2.3A9.11,9.11,0,0,1,348.57,241.23Z" style="fill:#fff"></path><path d="M390.2,256.6c0,.08-1.53-.19-4-.5a73.07,73.07,0,0,0-19.3.1c-2.45.33-4,.62-4,.54a3.7,3.7,0,0,1,1-.31c.67-.18,1.66-.38,2.89-.6a60.72,60.72,0,0,1,9.7-.84,59.83,59.83,0,0,1,9.7.75c1.23.2,2.22.39,2.9.56A4.76,4.76,0,0,1,390.2,256.6Z" style="fill:#fff"></path><path d="M396.41,247.64a8.31,8.31,0,0,1-1.51-.26c-1-.2-2.37-.48-4.1-.78a97.8,97.8,0,0,0-13.69-1.39,96.82,96.82,0,0,0-13.74.63c-1.75.2-3.17.4-4.14.55a9.33,9.33,0,0,1-1.53.18,8.12,8.12,0,0,1,1.49-.38c1-.21,2.38-.46,4.13-.72a83.56,83.56,0,0,1,13.81-.78,82.57,82.57,0,0,1,13.73,1.55c1.74.35,3.13.68,4.09.95A9.49,9.49,0,0,1,396.41,247.64Z" style="fill:#fff"></path><path d="M339.71,327.09a3.47,3.47,0,0,1-1-.12,23.81,23.81,0,0,1-2.63-.65,32.82,32.82,0,0,1-14.93-9.5,24.37,24.37,0,0,1-1.69-2.11,3.56,3.56,0,0,1-.53-.84c.07-.06.92,1.07,2.49,2.7A37.05,37.05,0,0,0,336.2,326C338.35,326.7,339.73,327,339.71,327.09Z" style="fill:#fff"></path><path d="M426.25,310.64a9.48,9.48,0,0,1-.85,1.41,15.1,15.1,0,0,1-1.12,1.58c-.47.59-1,1.3-1.62,2a29.4,29.4,0,0,1-2.15,2.25c-.79.8-1.72,1.56-2.68,2.37a39.76,39.76,0,0,1-14.53,7.36,34.52,34.52,0,0,1-3.49.76,29.65,29.65,0,0,1-3.09.41c-.94.12-1.81.1-2.56.13a14.92,14.92,0,0,1-1.94,0,9.08,9.08,0,0,1-1.64-.15,9.71,9.71,0,0,1,1.65-.05c.52,0,1.17,0,1.92-.06s1.6-.06,2.53-.21a29.84,29.84,0,0,0,3.05-.46c1.09-.18,2.24-.5,3.44-.8a45.11,45.11,0,0,0,7.54-2.94,44.14,44.14,0,0,0,6.82-4.34c1-.79,1.89-1.52,2.68-2.3s1.54-1.49,2.18-2.18,1.18-1.36,1.66-1.93a15.68,15.68,0,0,0,1.18-1.51A9.83,9.83,0,0,1,426.25,310.64Z" style="fill:#fff"></path><path d="M271.63,332.17s-8.11,46.94-9.16,54.92,1.11,26.16,7.62,31.62,12,6.84,16.61,6,19.11-16,24.57-22.06,32.89-55.42,32.89-55.42L318.84,336l-14.81,18,3.34-11.38Z" style="fill:#ffbe9d"></path><path d="M304.5,353.36a9.38,9.38,0,0,1-1,1.44c-.73,1-1.69,2.27-2.84,3.81s-2.68,3.49-4.38,5.53a65.06,65.06,0,0,1-5.89,6.34,41.1,41.1,0,0,1-7.1,5c-2.28,1.36-4.32,2.59-5.93,3.77a32.19,32.19,0,0,0-4.77,4.33s.06-.15.23-.39a11.17,11.17,0,0,1,.79-1,21.69,21.69,0,0,1,3.49-3.26A69.55,69.55,0,0,1,283,375a42.73,42.73,0,0,0,7-5,69.68,69.68,0,0,0,5.87-6.25c1.72-2,3.21-3.88,4.47-5.44l3-3.69A9,9,0,0,1,304.5,353.36Z" style="fill:#eb996e"></path><path d="M324.54,329.45s7.89-6.64,10.38-4.71,2.64,3.71,1.6,5.05-7,8.92-7,8.92l4.41,4.17,7.85-2.56,3.37-.81s8.08.19,6.36,5.62c0,0,8.35-2.66,9.86-2.79,2.31-.19,8.12-.77,7.29,2.24a6.53,6.53,0,0,1-4,4.08s3.71,1.19,1.48,4.46a9.72,9.72,0,0,1-5.29,4l-13.16,5.27a7.14,7.14,0,0,1-5,.1L338.45,361l-8.17,3.57s-16.5-4.76-18.87-19.17l2.14-4.46,1.41-2.64s-1.95-12.3-2-14c0-1.17-2.36-6.49-3.78-9.59a1.88,1.88,0,0,1,2-2.64,12.12,12.12,0,0,1,5.91,3.07c5.67,4.8,6.37,9.72,6.37,9.72l1.2,4.83" style="fill:#ffbe9d"></path><path d="M319,335s.55-.45,1.49-1.3,2.21-2.2,3.84-3.83a36.09,36.09,0,0,1,2.81-2.49,17.28,17.28,0,0,1,3.62-2.41,6.23,6.23,0,0,1,2.33-.62,4.55,4.55,0,0,1,1.27.11,2.47,2.47,0,0,1,.64.2,5.21,5.21,0,0,1,.56.34,3.76,3.76,0,0,1,1,.95,2.22,2.22,0,0,1,.23.67l.18.6a2.55,2.55,0,0,1,.12,1.42,11,11,0,0,1-.44,1.26,20,20,0,0,1-2.78,4.35,38.35,38.35,0,0,1-3.22,3.54A22.09,22.09,0,0,1,324,342.5a6.45,6.45,0,0,1-5.38-.08,3.94,3.94,0,0,1-1.19-.9,1.39,1.39,0,0,1-.31-.42,5.79,5.79,0,0,0,6.73,1,22.72,22.72,0,0,0,6.34-4.74,40.21,40.21,0,0,0,3.14-3.51,19.17,19.17,0,0,0,2.69-4.22,8.53,8.53,0,0,0,.42-1.2,2.07,2.07,0,0,0-.11-1.1l-.18-.61a1.74,1.74,0,0,0-.17-.52,2.91,2.91,0,0,0-.81-.79,3.48,3.48,0,0,0-.48-.3,1.87,1.87,0,0,0-.52-.16,3.77,3.77,0,0,0-1.11-.1,5.84,5.84,0,0,0-2.14.55,17,17,0,0,0-3.54,2.3c-1.05.84-2,1.62-2.83,2.41-1.65,1.58-3,2.9-4,3.7-.5.41-.91.7-1.19.89S319,335,319,335Z" style="fill:#eb996e"></path><path d="M324.7,329.72a18.69,18.69,0,0,1-6.56,0,19.35,19.35,0,0,1,6.56,0Z" style="fill:#eb996e"></path><path d="M328.71,345.27a3,3,0,0,1,.59-.29l1.72-.73,6.37-2.57a45.4,45.4,0,0,1,4.47-1.63,12.43,12.43,0,0,1,5.49-.47,8.08,8.08,0,0,1,2.85,1,3.68,3.68,0,0,1,1.95,2.55,3.52,3.52,0,0,1-1.42,3,11.07,11.07,0,0,1-3,1.51l-11.62,4.54a34,34,0,0,1-5.2,1.72,10.67,10.67,0,0,1-4.8,0,4.93,4.93,0,0,1-3.18-2.34,7.33,7.33,0,0,1-.83-2.87,12.72,12.72,0,0,1-.05-1.87,3.65,3.65,0,0,1,.06-.65c.06,0,0,.9.21,2.5a7.23,7.23,0,0,0,.89,2.73,4.62,4.62,0,0,0,3,2.11,10.43,10.43,0,0,0,4.6-.11,34,34,0,0,0,5.11-1.75l11.6-4.58a10.94,10.94,0,0,0,2.84-1.42,3,3,0,0,0,1.22-2.5,3.13,3.13,0,0,0-1.68-2.14,7.38,7.38,0,0,0-2.65-1,12.16,12.16,0,0,0-5.27.4c-1.63.45-3.1,1.05-4.46,1.56l-6.43,2.4-1.76.63A2.37,2.37,0,0,1,328.71,345.27Z" style="fill:#eb996e"></path><path d="M351.69,345.21a2.89,2.89,0,0,1,.56-.27l1.65-.66a39.94,39.94,0,0,1,6.24-1.93,19.25,19.25,0,0,1,4.51-.43,13.62,13.62,0,0,1,2.55.28,2.33,2.33,0,0,1,1.23.74,2.22,2.22,0,0,1,.49,1.41,3.44,3.44,0,0,1-1.29,2.62,16.29,16.29,0,0,1-2.45,1.67,41.65,41.65,0,0,1-5.52,2.72,108.94,108.94,0,0,1-11.27,3.69l-5,1.43a44.74,44.74,0,0,1-4.37,1.12,8.38,8.38,0,0,1-3.76-.11,5.51,5.51,0,0,1-2.43-1.48,3.78,3.78,0,0,1-.89-1.55,1.94,1.94,0,0,1-.09-.62,4.56,4.56,0,0,0,1.14,2,5.33,5.33,0,0,0,2.36,1.33,8.19,8.19,0,0,0,3.6,0c1.33-.25,2.76-.72,4.31-1.18l4.95-1.47c3.48-1,7.33-2.14,11.19-3.72a42.55,42.55,0,0,0,5.46-2.67,16.37,16.37,0,0,0,2.37-1.6,2.92,2.92,0,0,0,1.13-2.2,1.66,1.66,0,0,0-1.34-1.68,13.3,13.3,0,0,0-2.42-.28,20,20,0,0,0-4.43.34,47.27,47.27,0,0,0-6.24,1.75l-1.68.56A2.5,2.5,0,0,1,351.69,345.21Z" style="fill:#eb996e"></path><path d="M411.17,352.46s28.87,72.87,45.17,74.78c17.37,2,34.22-13.36,31.06-39.94-1.21-10.19-8.32-58.2-8.32-58.2l-36.15,15.55,9.6,19.91-14.24-22.24Z" style="fill:#ffbe9d"></path><path d="M476.58,401.64c-.06,0,0-.93-.11-2.6a29.06,29.06,0,0,0-1.12-7,18.29,18.29,0,0,0-5.49-8.69c-1.44-1.3-3.3-2.34-4.9-3.84a49.9,49.9,0,0,1-4.72-4.8,161.16,161.16,0,0,1-13.71-19.1c-1.6-2.55-2.87-4.62-3.74-6.06l-1-1.67a2.69,2.69,0,0,1-.31-.6,3.6,3.6,0,0,1,.41.54l1.09,1.6,3.9,5.95a181.94,181.94,0,0,0,13.8,18.94,53.84,53.84,0,0,0,4.66,4.75c1.56,1.48,3.38,2.5,4.89,3.87a18.6,18.6,0,0,1,5.53,9,26.55,26.55,0,0,1,.93,7.08c0,.84,0,1.5-.05,1.94A3.23,3.23,0,0,1,476.58,401.64Z" style="fill:#eb996e"></path><path d="M427.5,314.48c1.55,2.57,5.05,10.49,5.05,10.49s9.39,13.46,8.94,22.34c-.09,1.73-5.51,5.25-5.51,5.25s-17.14,12.86-21.26,13.72-10.28-3.09-11-3.26-23.83-14.92-23.94-17a4.34,4.34,0,0,1,2.5-4.48l26.24-1.49L421,330.28l-.56-7.25" style="fill:#ffbe9d"></path><path d="M426.18,340.26a9.25,9.25,0,0,1-1.41,1.05l-4,2.69c-1.7,1.12-3.64,2.44-6,3.91a4.65,4.65,0,0,1-2.12.31c-.7,0-1.41,0-2.13.08-1.45.08-2.94.2-4.48.33a78.5,78.5,0,0,1-8.71.39,9,9,0,0,1-3.78-.82,3.36,3.36,0,0,1-1.94-2.76,4,4,0,0,1,.9-2.65,5.41,5.41,0,0,1,1.65-1.3,7.1,7.1,0,0,1,1.21-.5,1.3,1.3,0,0,1,.45-.09c0,.05-.59.22-1.55.78a5.52,5.52,0,0,0-1.51,1.31,3.69,3.69,0,0,0-.75,2.42,3,3,0,0,0,1.75,2.37,8.7,8.7,0,0,0,3.58.71,83.49,83.49,0,0,0,8.65-.43c1.54-.13,3-.25,4.5-.32.73,0,1.45-.06,2.15-.07a4.24,4.24,0,0,0,1.9-.23l6-3.78,4.06-2.54A11.92,11.92,0,0,1,426.18,340.26Z" style="fill:#eb996e"></path><path d="M427.06,352.9a1.61,1.61,0,0,1-.52.14l-1.5.32-5.54,1-8.24,1.47-4.87.86c-.85.13-1.69.32-2.6.41a4.48,4.48,0,0,1-2.76-.55c-.83-.48-1.51-1-2.24-1.55s-1.44-1-2.16-1.43a29.39,29.39,0,0,0-4.35-2.23c-1.44-.6-2.9-.95-4.21-1.51a11.62,11.62,0,0,1-3.31-2.15c-.9-.81-1.66-1.56-2.31-2.27a3.46,3.46,0,0,1-1-2.24,2,2,0,0,1,.54-1.46.92.92,0,0,1,.47-.27s-.16.09-.38.35a2,2,0,0,0-.41,1.38c0,1.35,1.67,2.63,3.39,4.2a11.31,11.31,0,0,0,3.23,2c1.27.53,2.74.86,4.22,1.46a28.18,28.18,0,0,1,4.45,2.25c.74.45,1.47.93,2.2,1.44s1.44,1.08,2.19,1.52c1.49.92,3.31.31,5,.08l4.87-.82,8.26-1.36,5.57-.86,1.53-.21A1.78,1.78,0,0,1,427.06,352.9Z" style="fill:#eb996e"></path><path d="M419.9,361.08a10.17,10.17,0,0,1-2.37.71,52.1,52.1,0,0,1-5.88,1,45.44,45.44,0,0,1-5.95.32,3.51,3.51,0,0,1-2.39-.67,9.31,9.31,0,0,0,2.39.27c1.5-.07,3.6-.23,5.89-.49s4.36-.57,5.86-.81A12.24,12.24,0,0,1,419.9,361.08Z" style="fill:#eb996e"></path><path d="M437.42,349.75s0,.14-.06.4a4.77,4.77,0,0,1-.4,1.07,8,8,0,0,1-2.93,3,12.64,12.64,0,0,1-2.64,1.23c-.48.17-.91.38-1,.81s-.16,1.09-.37,1.65a6.2,6.2,0,0,1-2.21,3.06,10,10,0,0,1-3.73,1.47,16.29,16.29,0,0,0-3.68,1.09c-1.05.58-2.11,1.27-3.1,1.85-.5.3-1,.6-1.5.87a4.62,4.62,0,0,1-1.63.42,8.22,8.22,0,0,1-2.92-.32,23.23,23.23,0,0,1-3.9-1.53,7.94,7.94,0,0,1-1.35-.72,7.21,7.21,0,0,1,1.44.5,31.07,31.07,0,0,0,3.91,1.34,8.34,8.34,0,0,0,2.77.23,4.35,4.35,0,0,0,1.45-.4c.45-.23.94-.56,1.43-.86,1-.61,2-1.27,3.14-1.92a17,17,0,0,1,3.81-1.15,9.47,9.47,0,0,0,3.51-1.36,5.72,5.72,0,0,0,2-2.74c.2-.53.2-1,.4-1.66a1.91,1.91,0,0,1,1.37-1.1,13.19,13.19,0,0,0,2.59-1.13,8.24,8.24,0,0,0,2.94-2.76C437.24,350.27,437.36,349.73,437.42,349.75Z" style="fill:#eb996e"></path><path d="M424.12,327.64c.11.13-3.29,3-7.59,6.44s-7.87,6.1-8,6a84,84,0,0,1,7.6-6.44A82.76,82.76,0,0,1,424.12,327.64Z" style="fill:#eb996e"></path></g><g id="freepik--credit-card--inject-7"><circle cx="624.55" cy="300.59" r="70.88" transform="translate(229.79 870.32) rotate(-80.98)" style="fill:#f5f5f5"></circle><path d="M695.44,300.59s0-.39-.06-1.15,0-1.89-.16-3.37a70.76,70.76,0,0,0-2-12.78,71.72,71.72,0,0,0-7.84-18.86,71.82,71.82,0,0,0-18-20.09,70.39,70.39,0,0,0-29.77-13.19,70.4,70.4,0,0,0-18.22-1,68.88,68.88,0,0,0-9.47,1.32,75.93,75.93,0,0,0-9.45,2.7,70.79,70.79,0,0,0-38.6,33.9,65.94,65.94,0,0,0-4.32,10.22,70.65,70.65,0,0,0,0,44.59c.56,1.78,1.27,3.5,2,5.22s1.5,3.38,2.37,5a68.48,68.48,0,0,0,5.76,9.27A70.81,70.81,0,0,0,600.46,367a75.88,75.88,0,0,0,9.45,2.69,71.69,71.69,0,0,0,27.69.33,70.57,70.57,0,0,0,29.77-13.2,71.66,71.66,0,0,0,18-20.09,68,68,0,0,0,4.93-10,70.46,70.46,0,0,0,2.92-8.89,71.47,71.47,0,0,0,2-12.78c.14-1.48.11-2.61.16-3.37s.06-1.15.06-1.15,0,1.56-.11,4.53a69.15,69.15,0,0,1-4.82,21.75,67.75,67.75,0,0,1-4.91,10,71.62,71.62,0,0,1-18,20.24,71.54,71.54,0,0,1-57.78,13,77.3,77.3,0,0,1-9.51-2.7,71.14,71.14,0,0,1-38.9-34.13c-.88-1.63-1.62-3.34-2.39-5s-1.4-3.46-2-5.25a71.14,71.14,0,0,1,0-44.93,65.81,65.81,0,0,1,4.36-10.28,70.13,70.13,0,0,1,5.8-9.34,71.24,71.24,0,0,1,33.09-24.78,75.16,75.16,0,0,1,9.51-2.71,69.94,69.94,0,0,1,9.53-1.32,70.82,70.82,0,0,1,18.34,1A68.92,68.92,0,0,1,654,235.91a69.62,69.62,0,0,1,13.57,8.14,71.88,71.88,0,0,1,18,20.23,68.32,68.32,0,0,1,4.91,10,69.13,69.13,0,0,1,4.82,21.76C695.48,299,695.44,300.59,695.44,300.59Z" style="fill:#263238"></path><rect x="584.32" y="272.37" width="88.68" height="59.79" rx="7.28" style="fill:#F77F00"></rect><g style="opacity:0.30000000000000004"><rect x="584.32" y="285.29" width="88.68" height="12.53" style="fill:#fff"></rect></g><path d="M623.44,318.79c0,.15-7.23.26-16.15.26s-16.14-.11-16.14-.26,7.22-.26,16.14-.26S623.44,318.65,623.44,318.79Z" style="fill:#263238"></path><path d="M630.24,315.93c0,.14-8.75.26-19.55.26s-19.54-.12-19.54-.26,8.75-.26,19.54-.26S630.24,315.79,630.24,315.93Z" style="fill:#263238"></path><ellipse cx="654.12" cy="308.56" rx="5.2" ry="5.21" style="fill:#fff"></ellipse><path d="M661.06,313.91a5.26,5.26,0,1,1,5.25-5.26A5.27,5.27,0,0,1,661.06,313.91Zm0-9.52a4.26,4.26,0,1,0,4.25,4.26A4.26,4.26,0,0,0,661.06,304.39Z" style="fill:#fff"></path><path d="M554.61,302.85c0,.15-15.31.26-34.19.26s-34.19-.11-34.19-.26,15.31-.26,34.19-.26S554.61,302.71,554.61,302.85Z" style="fill:#263238"></path></g><g id="freepik--House--inject-7"><circle cx="555.02" cy="107.3" r="70.88" style="fill:#f5f5f5"></circle><path d="M625.9,107.3s0-.39,0-1.15,0-1.89-.16-3.37a71.68,71.68,0,0,0-2-12.78,71.72,71.72,0,0,0-7.84-18.86,71.57,71.57,0,0,0-18-20.09,70.57,70.57,0,0,0-29.77-13.2,71.69,71.69,0,0,0-27.69.33,74.59,74.59,0,0,0-9.44,2.7,70.79,70.79,0,0,0-38.6,33.9A65.94,65.94,0,0,0,488,85a70.65,70.65,0,0,0,0,44.59c.56,1.78,1.26,3.5,1.94,5.22s1.5,3.38,2.37,5a69.49,69.49,0,0,0,5.76,9.27,70.8,70.8,0,0,0,32.85,24.64,76.28,76.28,0,0,0,9.44,2.7,69.24,69.24,0,0,0,9.48,1.32,70,70,0,0,0,18.22-1,68.94,68.94,0,0,0,16.26-5.12,70,70,0,0,0,13.51-8.07,71.71,71.71,0,0,0,18-20.1,68.45,68.45,0,0,0,4.93-10,69.75,69.75,0,0,0,2.91-8.89,71.68,71.68,0,0,0,2-12.78c.13-1.48.11-2.61.16-3.37s0-1.15,0-1.15,0,1.56-.1,4.52a70.51,70.51,0,0,1-1.94,12.83,69.23,69.23,0,0,1-2.88,8.93,67.75,67.75,0,0,1-4.91,10,71.77,71.77,0,0,1-18,20.24A69.62,69.62,0,0,1,584.49,172a68.92,68.92,0,0,1-16.34,5.19,70.82,70.82,0,0,1-18.34,1,69.94,69.94,0,0,1-9.53-1.32,75.3,75.3,0,0,1-9.52-2.71,71.24,71.24,0,0,1-33.09-24.79,68.87,68.87,0,0,1-5.8-9.34c-.88-1.63-1.63-3.33-2.39-5s-1.4-3.46-2-5.26a71,71,0,0,1,0-44.92,67.27,67.27,0,0,1,4.35-10.29,69.44,69.44,0,0,1,5.81-9.33,71.35,71.35,0,0,1,33.08-24.79,77,77,0,0,1,9.52-2.7,72.35,72.35,0,0,1,27.86-.29,70.95,70.95,0,0,1,29.92,13.33,71.9,71.9,0,0,1,18,20.23A68.32,68.32,0,0,1,621,81,69.23,69.23,0,0,1,623.86,90a70.39,70.39,0,0,1,1.94,12.83C625.94,105.74,625.9,107.3,625.9,107.3Z" style="fill:#263238"></path><polygon points="568.62 74.54 540.88 74.64 540.88 74.83 536.82 144.72 596.05 144.51 595.9 101.76 568.62 74.54" style="fill:#F77F00"></polygon><g style="opacity:0.30000000000000004"><polygon points="568.62 74.54 540.88 74.64 540.88 74.83 536.82 144.72 596.05 144.51 595.9 101.76 568.62 74.54"></polygon></g><polygon points="540.88 74.64 513.24 100.69 513.39 144.8 568.86 144.61 568.71 101.43 540.88 74.64" style="fill:#F77F00"></polygon><g style="opacity:0.30000000000000004"><rect x="548.71" y="105.42" width="11.82" height="11.82" transform="translate(-0.38 1.93) rotate(-0.2)" style="fill:#fff"></rect></g><g style="opacity:0.30000000000000004"><rect x="519.88" y="105.52" width="11.82" height="11.82" transform="translate(-0.38 1.82) rotate(-0.2)" style="fill:#fff"></rect></g><rect x="519.8" y="79.43" width="5.91" height="17.53" transform="translate(-0.3 1.81) rotate(-0.2)" style="fill:#F77F00"></rect><g style="opacity:0.30000000000000004"><rect x="531.77" y="123" width="13.74" height="21.71" transform="translate(-0.46 1.87) rotate(-0.2)"></rect></g><path d="M568.62,74.54l.14.12.39.36,1.49,1.44L576.26,82l19.81,19.63.4.4h-.57l-27.19-.3h-.11l-.07-.07L563.77,97l-23-22.22H541L519.76,94.75l-6,5.61-1.62,1.47-.42.37-.15.12a.67.67,0,0,1,.13-.15l.39-.4c.38-.36.9-.87,1.56-1.52,1.41-1.34,3.42-3.27,6-5.71l21.15-20.07.16-.15.16.15,23.09,22.19,4.76,4.58-.18-.07,27.2.36-.17.4L576.06,82.17c-2.35-2.4-4.22-4.29-5.52-5.6l-1.44-1.5-.37-.39C568.65,74.6,568.61,74.55,568.62,74.54Z" style="fill:#263238"></path><path d="M545.48,144.69a1.69,1.69,0,0,1,0-.42c0-.33,0-.73-.05-1.21,0-1.13,0-2.66-.07-4.53,0-3.93-.06-9.32-.09-15.51l.25.26H531.81l.26-.26c0,6.2-.07,11.6-.1,15.54,0,1.88-.05,3.41-.07,4.54,0,.49,0,.89,0,1.22a1.46,1.46,0,0,1-.05.42,1.8,1.8,0,0,1,0-.42c0-.33,0-.73,0-1.22,0-1.13-.05-2.66-.08-4.54,0-3.94,0-9.34-.09-15.54v-.25h14.17V123c0,6.19-.06,11.58-.09,15.51,0,1.88,0,3.4-.07,4.53l0,1.21A1.37,1.37,0,0,1,545.48,144.69Z" style="fill:#263238"></path><path d="M517.28,167.31c.12.07-11.95,20.36-27,45.31s-27.3,45.13-27.42,45.05,11.95-20.36,27-45.32S517.16,167.23,517.28,167.31Z" style="fill:#263238"></path></g><g id="freepik--Invoice--inject-7"><circle cx="196.65" cy="109.6" r="70.88" style="fill:#f5f5f5"></circle><path d="M267.53,109.6s0-.39,0-1.15,0-1.89-.16-3.37a71.68,71.68,0,0,0-2-12.78,71.72,71.72,0,0,0-7.84-18.86,71.57,71.57,0,0,0-18-20.09,70.6,70.6,0,0,0-29.76-13.2,71.73,71.73,0,0,0-27.7.33,74.59,74.59,0,0,0-9.44,2.7A70.79,70.79,0,0,0,134,77.08a65.94,65.94,0,0,0-4.32,10.22,70.65,70.65,0,0,0,0,44.59c.56,1.78,1.26,3.5,1.94,5.22s1.51,3.38,2.38,5a68.42,68.42,0,0,0,5.75,9.27A70.8,70.8,0,0,0,172.56,176a75.93,75.93,0,0,0,9.45,2.7,71.49,71.49,0,0,0,27.69.32A68.8,68.8,0,0,0,226,173.92a70,70,0,0,0,13.51-8.07,71.71,71.71,0,0,0,18-20.1,68.45,68.45,0,0,0,4.93-10,69.75,69.75,0,0,0,2.91-8.89,70.76,70.76,0,0,0,2-12.78c.14-1.48.11-2.61.16-3.37s0-1.15,0-1.15,0,1.56-.1,4.52a69.13,69.13,0,0,1-4.82,21.76,67.75,67.75,0,0,1-4.91,10,71.77,71.77,0,0,1-18,20.24,70.83,70.83,0,0,1-29.91,13.33,70.82,70.82,0,0,1-18.34,1,69.94,69.94,0,0,1-9.53-1.32,75.16,75.16,0,0,1-9.51-2.71,71.22,71.22,0,0,1-33.1-24.79,69.88,69.88,0,0,1-5.8-9.34c-.88-1.63-1.63-3.33-2.39-5s-1.4-3.46-2-5.26a71.11,71.11,0,0,1,0-44.92,66.74,66.74,0,0,1,4.35-10.28,68.93,68.93,0,0,1,5.81-9.34A71.33,71.33,0,0,1,172.4,42.72a76.8,76.8,0,0,1,9.51-2.7,72.38,72.38,0,0,1,27.87-.29,71,71,0,0,1,29.91,13.33,71.9,71.9,0,0,1,18,20.23,68.32,68.32,0,0,1,4.91,10,69.13,69.13,0,0,1,4.82,21.76C267.57,108,267.53,109.6,267.53,109.6Z" style="fill:#263238"></path><path d="M165.23,67.05V152.4H224A10.07,10.07,0,0,0,234,142.33V82.48L213.26,61.72H170.57A5.34,5.34,0,0,0,165.23,67.05Z" style="fill:#fff"></path><path d="M165.23,67.05v-.23a4,4,0,0,1,.06-.67,5.16,5.16,0,0,1,1.05-2.43,5.38,5.38,0,0,1,3.71-2.06c1.72-.06,3.67,0,5.88,0l37.33-.09h.08l.06.06,20.79,20.74.06.07v.09c0,10.27,0,21.36,0,33v17.94c0,3.06,0,6.13,0,9.26a10.32,10.32,0,0,1-1.26,4.6,10.86,10.86,0,0,1-3.23,3.55,10.32,10.32,0,0,1-4.12,1.64,29,29,0,0,1-4.35.15H196.14l-30.91,0H165v-.24c0-25.29.07-46.63.09-61.65,0-7.5,0-13.42.07-17.48,0-2,0-3.56,0-4.63,0-.51,0-.9,0-1.18s0-.41,0-.41a3.24,3.24,0,0,1,0,.41c0,.28,0,.67,0,1.18,0,1.07,0,2.62,0,4.63,0,4.06,0,10,.06,17.48,0,15,.06,36.36.1,61.65l-.24-.23,30.91,0H221.3a30.23,30.23,0,0,0,4.27-.14,9.74,9.74,0,0,0,3.9-1.56,10.14,10.14,0,0,0,3.07-3.38,9.79,9.79,0,0,0,1.2-4.36c0-3.09,0-6.19,0-9.24,0-6.11,0-12.1,0-17.94,0-11.68,0-22.77,0-33l.07.16L213.12,61.85l.14.06-37.33-.08c-2.2,0-4.18,0-5.86,0a5.25,5.25,0,0,0-3.64,2,5.39,5.39,0,0,0-1.09,2.37C165.23,66.74,165.26,67.05,165.23,67.05Z" style="fill:#263238"></path><path d="M213.26,61.72,234,82.48H216.75a3.49,3.49,0,0,1-3.49-3.5Z" style="fill:#e0e0e0"></path><path d="M154.28,139.94h0a12.46,12.46,0,0,0,12.47,12.46h57.47a13.52,13.52,0,0,1-7.61-11.79l0-.67Z" style="fill:#e0e0e0"></path><path d="M188.36,80.27a54,54,0,0,1-7.43.26,53.81,53.81,0,0,1-7.42-.26,53.81,53.81,0,0,1,7.42-.26A54,54,0,0,1,188.36,80.27Z" style="fill:#263238"></path><path d="M219.81,89.63c0,.14-9.95.26-22.23.26s-22.24-.12-22.24-.26,9.95-.26,22.24-.26S219.81,89.48,219.81,89.63Z" style="fill:#263238"></path><path d="M219.81,97.87c0,.14-9.95.26-22.23.26s-22.24-.12-22.24-.26,9.95-.26,22.24-.26S219.81,97.72,219.81,97.87Z" style="fill:#263238"></path><path d="M219.81,106.11c0,.14-9.95.26-22.23.26s-22.24-.12-22.24-.26,9.95-.26,22.24-.26S219.81,106,219.81,106.11Z" style="fill:#263238"></path><path d="M219.81,114.35c0,.14-9.95.26-22.23.26s-22.24-.12-22.24-.26,9.95-.26,22.24-.26S219.81,114.2,219.81,114.35Z" style="fill:#263238"></path><path d="M219.81,122.59c0,.14-9.95.26-22.23.26s-22.24-.12-22.24-.26,9.95-.26,22.24-.26S219.81,122.44,219.81,122.59Z" style="fill:#263238"></path><path d="M219.81,130.83c0,.14-9.95.26-22.23.26s-22.24-.12-22.24-.26,9.95-.26,22.24-.26S219.81,130.68,219.81,130.83Z" style="fill:#263238"></path><path d="M246.27,111.68a18.39,18.39,0,1,1-17.92-18.81A18.37,18.37,0,0,1,246.27,111.68Z" style="fill:#F77F00"></path><g style="opacity:0.30000000000000004"><path d="M229.25,119.61l0,2.44-2.18,0,0-2.37a10.42,10.42,0,0,1-5.41-1.81l1.23-2.64a8.82,8.82,0,0,0,4.21,1.59l0-3.64c-2.41-.61-5.1-1.45-5.07-4.57,0-2.31,1.73-4.27,5.18-4.63l0-2.42,2.18,0,0,2.38a9.83,9.83,0,0,1,4.41,1.37L232.72,108a9.2,9.2,0,0,0-3.32-1.17l-.05,3.71c2.42.59,5.07,1.43,5,4.5C234.36,117.29,232.68,119.23,229.25,119.61ZM227.18,110l0-3.1c-1.15.25-1.62.88-1.63,1.6S226.22,109.63,227.18,110Zm3.69,5.29c0-.76-.62-1.18-1.55-1.52l0,3C230.38,116.5,230.86,115.94,230.87,115.24Z"></path></g><g style="opacity:0.30000000000000004"><path d="M241.8,110a9.25,9.25,0,0,1-.32-1.69A15.1,15.1,0,0,0,240,104a14.73,14.73,0,0,0-1.79-2.59,13.65,13.65,0,0,0-2.7-2.38,12.53,12.53,0,0,0-1.68-1,13,13,0,0,0-1.89-.75,13.75,13.75,0,0,0-2-.47,14.09,14.09,0,0,0-2.16-.16,15.48,15.48,0,0,0-2.16.18,13.81,13.81,0,0,0-2,.5,14.1,14.1,0,0,0-1.87.77,12.21,12.21,0,0,0-1.68,1,13.86,13.86,0,0,0-2.67,2.41,14.27,14.27,0,0,0-3.21,7,7.77,7.77,0,0,1-.31,1.69,4.09,4.09,0,0,1-.11-1.74,13,13,0,0,1,1.19-4.64,14.26,14.26,0,0,1,4.54-5.5,13.68,13.68,0,0,1,1.78-1.1,12.93,12.93,0,0,1,2-.86,14.45,14.45,0,0,1,2.2-.55,13.8,13.8,0,0,1,2.32-.2,16.28,16.28,0,0,1,2.33.17,14.13,14.13,0,0,1,2.2.53,12.08,12.08,0,0,1,2,.84,13.35,13.35,0,0,1,1.8,1.07,14.51,14.51,0,0,1,2.81,2.63,14.36,14.36,0,0,1,1.79,2.82,12.91,12.91,0,0,1,1.24,4.63A3.82,3.82,0,0,1,241.8,110Z"></path></g><path d="M241.9,111.3a.94.94,0,0,1,0-.23c0-.17,0-.39,0-.67a6.59,6.59,0,0,0-.09-1.08,10.55,10.55,0,0,0-.26-1.46,13.67,13.67,0,0,0-1.45-3.79,13.94,13.94,0,0,0-9.22-6.9,13.73,13.73,0,0,0-7.34.44,15.55,15.55,0,0,0-1.84.77,14.12,14.12,0,0,0-1.72,1.08,13.22,13.22,0,0,0-3,2.93,14,14,0,0,0-2,3.81,15.3,15.3,0,0,0-.82,4.39,15.51,15.51,0,0,0,.59,4.42,13.74,13.74,0,0,0,1.86,3.92,13.27,13.27,0,0,0,2.84,3.08,15.58,15.58,0,0,0,1.67,1.16,12.77,12.77,0,0,0,1.79.86,13.68,13.68,0,0,0,13.25-1.68,14.2,14.2,0,0,0,3.63-3.92,13.78,13.78,0,0,0,1.63-3.7,10.36,10.36,0,0,0,.33-1.45,7.85,7.85,0,0,0,.16-1.08c0-.28,0-.5.06-.67a.89.89,0,0,1,0-.23.68.68,0,0,1,0,.23l0,.68a7.32,7.32,0,0,1-.12,1.09,11.53,11.53,0,0,1-.3,1.46,13.67,13.67,0,0,1-1.61,3.77,14,14,0,0,1-17.16,5.81,16.31,16.31,0,0,1-1.84-.88,15.37,15.37,0,0,1-1.71-1.19,13.47,13.47,0,0,1-2.92-3.14,14.28,14.28,0,0,1-1.9-4,15.58,15.58,0,0,1-.61-4.53,15.79,15.79,0,0,1,.84-4.5,14.13,14.13,0,0,1,2.11-3.9,13.38,13.38,0,0,1,3.07-3,13.67,13.67,0,0,1,1.77-1.1,15.3,15.3,0,0,1,1.88-.79A14,14,0,0,1,240.22,104a13.9,13.9,0,0,1,1.4,3.85,10.35,10.35,0,0,1,.23,1.48,6.29,6.29,0,0,1,.06,1.09v.67A.77.77,0,0,1,241.9,111.3Z" style="fill:#263238"></path><path d="M222.7,127.92s-.2,0-.56-.1a11.24,11.24,0,0,1-1.46-.49,16,16,0,0,1-4.34-2.65,16.11,16.11,0,0,1-3.29-3.88,10.5,10.5,0,0,1-.72-1.37,1.94,1.94,0,0,1-.19-.53c.06,0,.41.69,1.12,1.77a18.58,18.58,0,0,0,3.31,3.74,18.34,18.34,0,0,0,4.21,2.69C222,127.63,222.72,127.87,222.7,127.92Z" style="fill:#fff"></path><path d="M225.7,128.76c0,.09-.39.1-.83,0s-.77-.25-.75-.34.39-.1.83,0S225.72,128.66,225.7,128.76Z" style="fill:#fff"></path><path d="M224.22,152.4a.75.75,0,0,1-.25-.1l-.73-.37-.53-.28-.6-.41-.7-.48-.72-.62a12.71,12.71,0,0,1-2.94-3.93,13.84,13.84,0,0,1-1.36-6.29l.2.22-23.41.06-27.51-.08-8.33-.08-2.27,0a6.93,6.93,0,0,1-.79-.05,4,4,0,0,1,.79-.06l2.27,0,8.33-.09,27.51-.07,23.41,0h.22V140a13.57,13.57,0,0,0,1.26,6.12,12.62,12.62,0,0,0,2.79,3.89A21.15,21.15,0,0,0,224.22,152.4Z" style="fill:#263238"></path><path d="M213.26,61.72a9.9,9.9,0,0,1,.1,1.57c0,1.11,0,2.55.08,4.29s0,4,.06,6.36c0,1.2,0,2.46,0,3.76a13.62,13.62,0,0,0,.07,1.93,3.24,3.24,0,0,0,.89,1.64,3.31,3.31,0,0,0,1.64.89,13.56,13.56,0,0,0,1.93.07h3.76l6.36.06,4.29.08a9.9,9.9,0,0,1,1.57.1,8.58,8.58,0,0,1-1.57.1l-4.29.09-6.36,0-3.76,0a14.16,14.16,0,0,1-2-.07,3.78,3.78,0,0,1-2.94-2.94,14.16,14.16,0,0,1-.07-2c0-1.3,0-2.56,0-3.76,0-2.37,0-4.52,0-6.36s.06-3.18.09-4.29A8.58,8.58,0,0,1,213.26,61.72Z" style="fill:#263238"></path><path d="M288.15,250c-.12.08-12.33-17.8-27.27-39.93s-27-40.15-26.85-40.23,12.33,17.79,27.28,39.93S288.27,249.92,288.15,250Z" style="fill:#263238"></path></g><g id="freepik--Car--inject-7"><circle cx="121.89" cy="302.27" r="70.88" style="fill:#f5f5f5"></circle><path d="M192.78,302.27s0-.39-.06-1.15,0-1.89-.16-3.37a69.48,69.48,0,0,0-4.94-21.68,68.45,68.45,0,0,0-4.93-10,71.68,71.68,0,0,0-18-20.09,70.57,70.57,0,0,0-29.77-13.2,71.69,71.69,0,0,0-27.69.33,74.2,74.2,0,0,0-9.45,2.69A70.91,70.91,0,0,0,65,260.48a69.49,69.49,0,0,0-5.76,9.27A66.24,66.24,0,0,0,54.88,280a70.68,70.68,0,0,0,0,44.6c.56,1.78,1.27,3.5,1.95,5.22s1.5,3.38,2.37,5a70.76,70.76,0,0,0,38.6,33.92,76.43,76.43,0,0,0,9.45,2.7,72.07,72.07,0,0,0,27.69.32,70.57,70.57,0,0,0,29.77-13.2,71.53,71.53,0,0,0,18-20.09,67.53,67.53,0,0,0,4.93-10,69.3,69.3,0,0,0,4.94-21.67c.14-1.47.11-2.61.16-3.36s.06-1.15.06-1.15,0,1.56-.11,4.52a69.43,69.43,0,0,1-1.94,12.82,70.78,70.78,0,0,1-2.87,8.94,69.87,69.87,0,0,1-4.92,10,71.75,71.75,0,0,1-18,20.24A69.24,69.24,0,0,1,151.37,367,70.08,70.08,0,0,1,135,372.14a71.21,71.21,0,0,1-18.33,1,73.13,73.13,0,0,1-9.54-1.32,75.64,75.64,0,0,1-9.51-2.71,71.26,71.26,0,0,1-33.09-24.79A70.19,70.19,0,0,1,58.74,335c-.88-1.63-1.62-3.33-2.39-5s-1.4-3.47-2-5.26a71.11,71.11,0,0,1,0-44.92,65.92,65.92,0,0,1,4.36-10.29,69.38,69.38,0,0,1,5.8-9.33,71.26,71.26,0,0,1,33.09-24.79,77.3,77.3,0,0,1,9.51-2.7,71.58,71.58,0,0,1,9.53-1.33,70.82,70.82,0,0,1,18.34,1,70.81,70.81,0,0,1,29.91,13.32,71.77,71.77,0,0,1,18,20.24,71.43,71.43,0,0,1,7.79,19,69.43,69.43,0,0,1,1.94,12.82C192.82,300.71,192.78,302.27,192.78,302.27Z" style="fill:#263238"></path><rect x="62.76" y="300.73" width="112.42" height="16.5" style="fill:#F77F00"></rect><g style="opacity:0.5"><rect x="62.76" y="300.73" width="112.42" height="16.5"></rect></g><path d="M67,317a10.84,10.84,0,1,0,11-10.68A10.84,10.84,0,0,0,67,317Z" style="fill:#263238"></path><path d="M67,316.93v0a10.84,10.84,0,1,0,21.68.31v0Z" style="fill:#263238"></path><path d="M70.26,317a7.61,7.61,0,1,0,7.72-7.5A7.61,7.61,0,0,0,70.26,317Z" style="fill:#fafafa"></path><path d="M78,309.51a7.61,7.61,0,0,0-7.72,7.5l15.22.22A7.61,7.61,0,0,0,78,309.51Z" style="fill:#e0e0e0"></path><path d="M73.23,317.05a4.64,4.64,0,1,0,4.71-4.57A4.64,4.64,0,0,0,73.23,317.05Z" style="fill:#263238"></path><circle cx="160.76" cy="317.12" r="10.84" transform="translate(-22.14 12.23) rotate(-4.08)" style="fill:#263238"></circle><path d="M149.93,316.93v0a10.84,10.84,0,1,0,21.68.31v0Z" style="fill:#263238"></path><path d="M153.15,317a7.61,7.61,0,1,0,7.72-7.5A7.61,7.61,0,0,0,153.15,317Z" style="fill:#fafafa"></path><path d="M160.87,309.51a7.62,7.62,0,0,0-7.72,7.5l15.22.22A7.61,7.61,0,0,0,160.87,309.51Z" style="fill:#e0e0e0"></path><path d="M156.13,317.05a4.64,4.64,0,1,0,4.7-4.57A4.63,4.63,0,0,0,156.13,317.05Z" style="fill:#263238"></path><path d="M92.08,291.45s-16,1.18-21.88,2.51c-4.17.93-12.21,2.55-12.11,7.6l.63,3.63a5.46,5.46,0,0,0-3,4.84c0,3.47-.73,8.87,6.23,9.08,1.15,0,3.33,0,3.33,0S64,304.29,77.59,303.85C91.44,303.41,90.52,319,90.52,319h57.84S146,303.81,160.9,303.79s12.65,15.29,12.65,15.29,5.49.47,8-4.14,1.89-7.9,1.89-7.9l-.09-2.91a1.88,1.88,0,0,0-1.81-1.83h0s1-7.34-.53-8.61-9.91-8.94-9.91-8.94l.39-.25a.93.93,0,0,0-.19-1.68l-11-3.78a2.67,2.67,0,0,0-.68-.15c-.89-.06-3.39-.22-8-.27-5.6-.06-27.79,0-27.79,0s-7.64.63-11.9,2.5C107.57,283.09,92.08,291.45,92.08,291.45Z" style="fill:#F77F00"></path><g style="opacity:0.4"><path d="M59.79,309.63a2.46,2.46,0,0,0-1.91.26,1.81,1.81,0,0,0-.47,1.2,5.44,5.44,0,0,0,0,1.8,2.24,2.24,0,0,0,1,1.43,1.4,1.4,0,0,0,1.66-.2,2.17,2.17,0,0,0,.41-1.56,12.54,12.54,0,0,0-.09-2.21,1.22,1.22,0,0,0-.2-.45.6.6,0,0,0-.46-.27"></path></g><path d="M58.72,305.19c1.7,0,3.34-.09,5-.21a.86.86,0,0,0,.52-.15.83.83,0,0,0,.17-.62,3.17,3.17,0,0,0-.72-2.53,2.81,2.81,0,0,0-1.55-.53,10.22,10.22,0,0,0-4.08.41Z" style="fill:#fafafa"></path><path d="M94.52,318.76v-.48l-.05-1.4c0-1.23-.08-3-.15-5.31s-.14-5.06-.23-8.25q0-1.19-.06-2.46a8,8,0,0,1,0-1.29c0-.21.07-.43.1-.65s.09-.43.13-.65a12.94,12.94,0,0,1,.9-2.6,12.51,12.51,0,0,1,1.49-2.46h0l10-6.31,2.71-1.71a22.62,22.62,0,0,1,2.86-1.6,29.19,29.19,0,0,1,3.11-1.24c.53-.18,1.08-.34,1.62-.5s1.1-.29,1.66-.41a37.92,37.92,0,0,1,6.46-.81,59.13,59.13,0,0,1,6.25,0h.06v.06l-2.7,12h0a12.92,12.92,0,0,0-1.21,2.59,7.12,7.12,0,0,0-.41,2.68c.07.89.1,1.76.12,2.6s0,1.67,0,2.46c0,3.18.06,6,.06,8.24s0,4.08,0,5.31c0,.61,0,1.08,0,1.4v.48a1.09,1.09,0,0,0,0-.12V318c0-.32,0-.79,0-1.4,0-1.22,0-3,0-5.31s0-5.06-.09-8.24c0-.79,0-1.61,0-2.46s-.05-1.71-.12-2.6a7.07,7.07,0,0,1,.41-2.71,13.34,13.34,0,0,1,1.21-2.61v0l2.69-12,0,.06a61.55,61.55,0,0,0-6.23,0,37.59,37.59,0,0,0-6.44.82c-.56.11-1.11.26-1.66.4s-1.09.32-1.62.5a28.86,28.86,0,0,0-3.09,1.24,21.27,21.27,0,0,0-2.85,1.59l-2.71,1.7-10,6.3h0a13.49,13.49,0,0,0-2.38,5,19.14,19.14,0,0,0-.22,5c.08,3.18.15,6,.2,8.25s.1,4.08.13,5.31c0,.62,0,1.08,0,1.4a3.44,3.44,0,0,0,0,.36A.55.55,0,0,1,94.52,318.76Z" style="fill:#263238"></path><path d="M124.52,298.87l.16,0a1,1,0,0,0,.43-.17,1.07,1.07,0,0,0,.43-.56,1.26,1.26,0,0,0,.06-.45,1.28,1.28,0,0,0-.13-.48,1.06,1.06,0,0,0-.93-.57H120a1.09,1.09,0,0,0-.71.28,1.06,1.06,0,0,0-.34.66,1.17,1.17,0,0,0,.13.72,1.06,1.06,0,0,0,.52.46,1.67,1.67,0,0,0,.67.08h1.85l1.73,0h0l-1.73,0H120a1.17,1.17,0,0,1-.36-.08,1.2,1.2,0,0,1-.57-.5,1.3,1.3,0,0,1-.14-.78,1.12,1.12,0,0,1,.37-.73,1.15,1.15,0,0,1,.78-.3h4.5a1.14,1.14,0,0,1,1,.62,1.4,1.4,0,0,1,.06,1,1.17,1.17,0,0,1-.47.58,1.22,1.22,0,0,1-.45.16Z" style="fill:#263238"></path><path d="M154.5,298.87l.16,0a1,1,0,0,0,.42-.17,1,1,0,0,0,.44-.56,1.27,1.27,0,0,0,0-.45,1.06,1.06,0,0,0-1.06-1.05H150a1.1,1.1,0,0,0-.72.28,1.06,1.06,0,0,0-.34.66,1.24,1.24,0,0,0,.13.72,1.1,1.1,0,0,0,.52.46,1.7,1.7,0,0,0,.68.08h1.85l1.72,0h0l-1.72,0h-2.2a1.17,1.17,0,0,1-.37-.08,1.14,1.14,0,0,1-.56-.5,1.24,1.24,0,0,1-.15-.78,1.15,1.15,0,0,1,1.16-1h4.49a1.13,1.13,0,0,1,1,.62,1.07,1.07,0,0,1,.13.51,1.41,1.41,0,0,1-.07.47,1.14,1.14,0,0,1-.91.74Z" style="fill:#263238"></path><path d="M180.78,294h-6a2.19,2.19,0,0,0-1.95,1.18h0a2.19,2.19,0,0,0-.07,1.92l2.35,5.34,6-.05S182.39,295.59,180.78,294Z" style="fill:#fafafa"></path><path d="M97.48,293.22l31-.57,20.14-.37,6.64-3.83a1,1,0,0,0,.31-1.52l-4.14-5.43a2.3,2.3,0,0,0-1.81-.91L127,280.41s-8.48-.5-15.16,3.25A141.3,141.3,0,0,0,97.48,293.22Z" style="fill:#263238"></path><path d="M111.67,281s1.55.71.54,1.36-16.69,10.54-16.69,10.54l-3.61-1.63C98.3,287.68,104.75,284.23,111.67,281Z" style="fill:#455a64"></path><path d="M171,284.54s-1.38,1.55-.84,2.68,6.16,5.11,6.16,5.11l4.07.77Z" style="fill:#455a64"></path><polygon points="132.23 281.77 131.31 291.67 147.71 291.2 154.32 287.36 150.04 281.77 132.23 281.77" style="fill:#455a64"></polygon><path d="M101.37,292.17s9.89-7.14,13.79-8.56a25.14,25.14,0,0,1,9.27-1.82c3.38-.09,5.44,0,5.44,0l-2.61,10.06Z" style="fill:#455a64"></path><path d="M99.92,292.21h0a1.76,1.76,0,0,1,.88-1.52l2.27-1.27a4.29,4.29,0,0,1,2.13-.56h0a4.32,4.32,0,0,1,1.34.22,2.46,2.46,0,0,1,1.66,2.26h0a2.5,2.5,0,0,1-2.5,2.6h-4A1.73,1.73,0,0,1,99.92,292.21Z" style="fill:#F77F00"></path><path d="M99.92,292.21a1.89,1.89,0,0,0,0,.22,1.71,1.71,0,0,0,.9,1.27,1.8,1.8,0,0,0,.58.19c.22,0,.46,0,.7,0h3.47a2.65,2.65,0,0,0,1-.16,2.36,2.36,0,0,0,.86-.54,2.43,2.43,0,0,0,.73-1.95,2.46,2.46,0,0,0-1-1.82,2.76,2.76,0,0,0-.94-.39,4.17,4.17,0,0,0-1-.12,4.42,4.42,0,0,0-1.78.38c-.26.12-.5.27-.74.4l-.68.37-1.16.65a1.76,1.76,0,0,0-.7.68,1.85,1.85,0,0,0-.22.82,1.34,1.34,0,0,1,0-.23,1.85,1.85,0,0,1,.19-.61,1.75,1.75,0,0,1,.7-.71L102,290l.67-.39c.24-.13.47-.28.74-.4a4.63,4.63,0,0,1,1.82-.4,4.27,4.27,0,0,1,1,.12,2.8,2.8,0,0,1,1,.41,2.55,2.55,0,0,1,1.07,1.89,2.82,2.82,0,0,1-.16,1.12,2.47,2.47,0,0,1-.61.91,2.56,2.56,0,0,1-.89.57,2.91,2.91,0,0,1-1,.16h-3.47c-.24,0-.48,0-.7,0a2.19,2.19,0,0,1-.61-.2,1.83,1.83,0,0,1-.7-.72,1.63,1.63,0,0,1-.19-.61A1.19,1.19,0,0,1,99.92,292.21Z" style="fill:#263238"></path><path d="M124.14,296.27a15.27,15.27,0,0,1-1.78.05,15,15,0,0,1-1.77-.05,15,15,0,0,1,1.77,0A15.27,15.27,0,0,1,124.14,296.27Z" style="fill:#fff"></path><path d="M153.93,296.1s-1.23.06-2.75.08-2.74,0-2.74,0,1.22-.06,2.74-.08S153.93,296.07,153.93,296.1Z" style="fill:#fff"></path><path d="M106.19,289.82s-.06-.08-.19-.19a1.4,1.4,0,0,0-.67-.27,2.84,2.84,0,0,0-1.08.12,8,8,0,0,0-1.28.43,8.14,8.14,0,0,0-2.07,1.29c-.49.41-.74.7-.76.69l.18-.21a4.33,4.33,0,0,1,.53-.53,7.79,7.79,0,0,1,2.08-1.34,8.48,8.48,0,0,1,1.29-.43,2.78,2.78,0,0,1,1.12-.09,1.31,1.31,0,0,1,.68.31.87.87,0,0,1,.14.16Z" style="fill:#fff"></path><path d="M257.55,295.2c0,.15-14.47.26-32.32.26s-32.32-.11-32.32-.26,14.46-.26,32.32-.26S257.55,295.06,257.55,295.2Z" style="fill:#263238"></path></g></svg>